<svg width="70" height="70" viewBox="0 0 70 70" fill="none" xmlns="http://www.w3.org/2000/svg">
<path d="M63.0479 53.7599V40.8336C63.0479 40.1889 62.5254 39.6664 61.8816 39.6664H47.8811C47.2368 39.6664 46.7148 40.1889 46.7148 40.8336V53.6668H43.2143V40.8336C43.2143 40.1889 42.6922 39.6664 42.0475 39.6664H28.0479C27.4037 39.6664 26.8816 40.1889 26.8816 40.8336V53.6668H23.3811V40.8336C23.3811 40.1889 22.859 39.6664 22.2143 39.6664H8.21432C7.57046 39.6664 7.04794 40.1889 7.04794 40.8336V53.7599C2.58877 54.4393 -0.475011 58.6045 0.203456 63.0632C0.807582 67.0289 4.20334 69.9692 8.21432 70H61.8816C66.3916 69.9654 70.0193 66.2808 69.9847 61.7708C69.9535 57.759 67.0136 54.3636 63.0479 53.7599ZM49.0479 42H60.7143V53.6668H49.0479V42ZM29.2148 42H40.8811V53.6668H29.2148V42ZM9.38156 42H21.0479V53.6668H9.38156V42ZM61.8816 67.6668H8.21432C4.99289 67.6668 2.38113 65.0551 2.38113 61.8332C2.38113 58.6118 4.99289 56 8.21432 56H61.8816C65.103 56 67.7143 58.6118 67.7143 61.8332C67.7143 65.0551 65.103 67.6668 61.8816 67.6668Z" fill="#2A2A3F"/>
<path d="M29.2148 57.1664C26.6373 57.1664 24.5476 59.2556 24.5476 61.8332C24.5476 64.4108 26.6373 66.5 29.2148 66.5C31.792 66.5 33.8812 64.4108 33.8812 61.8332C33.8812 59.2556 31.792 57.1664 29.2148 57.1664ZM29.2148 64.1664C27.9263 64.1664 26.8817 63.1218 26.8817 61.8332C26.8817 60.5446 27.9263 59.5 29.2148 59.5C30.5034 59.5 31.548 60.5446 31.548 61.8332C31.548 63.1218 30.5034 64.1664 29.2148 64.1664Z" fill="#2A2A3F"/>
<path d="M40.8812 57.1664C38.3041 57.1664 36.2148 59.2556 36.2148 61.8332C36.2148 64.4108 38.3041 66.5 40.8812 66.5C43.4588 66.5 45.548 64.4108 45.548 61.8332C45.548 59.2556 43.4588 57.1664 40.8812 57.1664ZM40.8812 64.1664C39.5927 64.1664 38.548 63.1218 38.548 61.8332C38.548 60.5446 39.5927 59.5 40.8812 59.5C42.1698 59.5 43.2144 60.5446 43.2144 61.8332C43.2144 63.1218 42.1698 64.1664 40.8812 64.1664Z" fill="#2A2A3F"/>
<path d="M51.3812 57.1664C48.8041 57.1664 46.7148 59.2556 46.7148 61.8332C46.7148 64.4108 48.8041 66.5 51.3812 66.5C53.9588 66.5 56.048 64.4108 56.048 61.8332C56.048 59.2556 53.9588 57.1664 51.3812 57.1664ZM51.3812 64.1664C50.0927 64.1664 49.048 63.1218 49.048 61.8332C49.048 60.5446 50.0927 59.5 51.3812 59.5C52.6702 59.5 53.7148 60.5446 53.7148 61.8332C53.7148 63.1218 52.6702 64.1664 51.3812 64.1664Z" fill="#2A2A3F"/>
<path d="M61.8816 57.1664C59.304 57.1664 57.2144 59.2556 57.2144 61.8332C57.2144 64.4108 59.304 66.5 61.8816 66.5C64.4588 66.5 66.548 64.4108 66.548 61.8332C66.548 59.2556 64.4588 57.1664 61.8816 57.1664ZM61.8816 64.1664C60.5926 64.1664 59.5476 63.1218 59.5476 61.8332C59.5476 60.5446 60.5926 59.5 61.8816 59.5C63.1702 59.5 64.2148 60.5446 64.2148 61.8332C64.2148 63.1218 63.1702 64.1664 61.8816 64.1664Z" fill="#2A2A3F"/>
<path d="M18.7147 57.1664C16.1371 57.1664 14.0479 59.2556 14.0479 61.8332C14.0479 64.4108 16.1371 66.5 18.7147 66.5C21.2918 66.5 23.381 64.4108 23.381 61.8332C23.381 59.2556 21.2918 57.1664 18.7147 57.1664ZM18.7147 64.1664C17.4257 64.1664 16.381 63.1218 16.381 61.8332C16.381 60.5446 17.4257 59.5 18.7147 59.5C20.0032 59.5 21.0479 60.5446 21.0479 61.8332C21.0479 63.1218 20.0032 64.1664 18.7147 64.1664Z" fill="#2A2A3F"/>
<path d="M8.21423 57.1664C5.63708 57.1664 3.54785 59.2556 3.54785 61.8332C3.54785 64.4108 5.63708 66.5 8.21423 66.5C10.7918 66.5 12.881 64.4108 12.881 61.8332C12.881 59.2556 10.7918 57.1664 8.21423 57.1664ZM8.21423 64.1664C6.92566 64.1664 5.88104 63.1218 5.88104 61.8332C5.88104 60.5446 6.92566 59.5 8.21423 59.5C9.50323 59.5 10.5479 60.5446 10.5479 61.8332C10.5479 63.1218 9.50323 64.1664 8.21423 64.1664Z" fill="#2A2A3F"/>
<path d="M16.3812 22.1664C19.5278 22.1647 22.3904 20.3463 23.7311 17.5H51.8328C52.3715 17.9789 53.0167 18.3224 53.7148 18.5036V28.1166C51.0005 28.6746 49.0514 31.0625 49.048 33.8332C49.048 34.4779 49.5705 35 50.2144 35C50.8591 35 51.3812 34.4779 51.3812 33.8332C51.3812 31.9003 52.9483 30.3336 54.8812 30.3336C56.8145 30.3336 58.3812 31.9003 58.3812 33.8332C58.3812 34.4779 58.9037 35 59.5475 35C60.1923 35 60.7144 34.4779 60.7144 33.8332C60.7109 31.0625 58.7618 28.6746 56.048 28.1166V18.5006C58.5388 17.8597 60.0385 15.3206 59.3976 12.8298C58.8674 10.77 57.008 9.33063 54.8812 9.33319C53.7558 9.33618 52.6706 9.75146 51.8306 10.5H23.7311C23.344 9.68524 22.8236 8.94055 22.1926 8.29626C22.202 8.25354 22.2097 8.20996 22.2144 8.16681V1.16681C22.2144 0.522095 21.6918 0 21.048 0H11.7148C11.0701 0 10.548 0.522095 10.548 1.16681V8.16681C10.548 8.2074 10.5676 8.24243 10.5715 8.28345C7.40472 11.4827 7.43164 16.6434 10.6313 19.8093C12.1613 21.3239 14.2287 22.1707 16.3812 22.1664ZM57.2144 14C57.2144 15.2886 56.1697 16.3336 54.8812 16.3336C54.2159 16.3379 53.5823 16.0521 53.1453 15.5509C52.3438 14.6639 52.3489 13.313 53.1581 12.4333C53.5943 11.9407 54.2232 11.6613 54.8812 11.6672C56.1697 11.6664 57.2144 12.7114 57.2144 14ZM50.363 12.8336C50.3451 12.9033 50.3374 12.9746 50.3216 13.0443C50.3066 13.1143 50.2951 13.1729 50.2844 13.2382C50.1921 13.7398 50.1921 14.2534 50.2844 14.7549C50.2951 14.822 50.3088 14.8878 50.3229 14.9532C50.3365 15.0186 50.3451 15.0929 50.363 15.1621H24.4625C24.5749 14.3879 24.5749 13.6027 24.4625 12.8285L50.363 12.8336ZM12.8812 2.33319H19.8816V6.61975C17.6659 5.57129 15.0969 5.57129 12.8812 6.61975V2.33319ZM13.1717 9.13409C15.0926 7.89294 17.5574 7.87244 19.4988 9.08112C19.53 9.10248 19.565 9.11743 19.5975 9.13879C20.6566 9.8399 21.4568 10.8683 21.8773 12.0671C22.3306 13.322 22.3306 14.6956 21.8773 15.9508C20.807 18.9894 17.4758 20.5847 14.4372 19.5145C11.3986 18.4442 9.80328 15.1134 10.8735 12.0744C11.2986 10.8683 12.1078 9.83521 13.1777 9.13409H13.1717Z" fill="#2A2A3F"/>
<path d="M16.3811 17.5C18.314 17.5 19.8811 15.9329 19.8811 14C19.8811 12.0671 18.314 10.5 16.3811 10.5C14.4478 10.5 12.8811 12.0671 12.8811 14C12.8811 15.9329 14.4478 17.5 16.3811 17.5ZM16.3811 12.8336C17.0254 12.8336 17.5475 13.3557 17.5475 14C17.5475 14.6443 17.0254 15.1668 16.3811 15.1668C15.7368 15.1668 15.2143 14.6443 15.2143 14C15.2143 13.3557 15.7368 12.8336 16.3811 12.8336Z" fill="#2A2A3F"/>
</svg>
