<svg width="70" height="70" viewBox="0 0 70 70" fill="none" xmlns="http://www.w3.org/2000/svg">
<path d="M70 43.1668V26.8332H63C62.4074 24.7999 61.5922 22.8384 60.5698 20.9838L65.5233 16.0298L53.9736 4.47968L49.0201 9.43359C47.1641 8.40991 45.2018 7.59302 43.1668 7V0H26.8332V7C24.7999 7.59259 22.8384 8.40778 20.9838 9.43018L16.0298 4.4754L4.47968 16.0256L9.43359 20.9786C8.40906 22.8354 7.59302 24.7982 7 26.8332H0V43.1668H7C7.59259 45.2001 8.40778 47.1616 9.43018 49.0162L4.4754 53.9697L16.0256 65.5199L20.9786 60.5664C22.8354 61.5901 24.7982 62.4061 26.8332 63V70H43.1668V63C45.2001 62.4074 47.1616 61.5922 49.0162 60.5698L53.9697 65.5233L65.5199 53.9736L60.5664 49.0197C61.5901 47.1641 62.4061 45.2009 63 43.1668H70ZM60.9843 41.7073C60.3571 44.1337 59.3906 46.4583 58.1132 48.6138L57.6462 49.3935L62.2233 53.9702L53.9702 62.225L49.3935 57.6483L48.6138 58.1149C46.4587 59.3936 44.1337 60.3605 41.7073 60.986L40.8336 61.2107V67.6668H29.1664V61.2107L28.2927 60.9843C25.8663 60.3575 23.5413 59.3911 21.3862 58.1132L20.6065 57.6462L16.0298 62.225L7.77502 53.9697L12.3517 49.3931L11.8851 48.6138C10.6068 46.4583 9.64038 44.1328 9.01404 41.7073L8.78931 40.8328H2.33319V29.1664H8.78931L9.01575 28.2927C9.64252 25.8663 10.6089 23.5413 11.8868 21.3862L12.3538 20.6065L7.77502 16.0298L16.0298 7.77502L20.6065 12.3517L21.3862 11.8851C23.5413 10.6064 25.8663 9.63953 28.2927 9.01404L29.1664 8.78931V2.33319H40.8336V8.78931L41.7073 9.01575C44.1337 9.64252 46.4587 10.6089 48.6138 11.8868L49.3935 12.3538L53.9702 7.77502L62.225 16.0298L57.6483 20.6065L58.1149 21.3862C59.3936 23.5413 60.3605 25.8663 60.986 28.2927L61.2124 29.1664H67.6668V40.8336H61.2107L60.9843 41.7073Z" fill="#2A2A3F"/>
<path d="M34.9999 15.1668C24.0522 15.1608 15.1723 24.0317 15.1668 34.9791C15.1629 42.775 19.728 49.8489 26.8331 53.0563V53.0832L27.5552 53.3806H27.5624L29.1663 54.0304V53.9509C31.0556 54.5371 33.0222 54.8345 34.9999 54.8332C35.3939 54.8332 35.7818 54.8204 36.1667 54.7982V54.8481L37.4741 54.6837L38.4999 54.5598V54.5076C49.2785 52.5812 56.4545 42.2824 54.5285 31.5043C52.8379 22.0459 44.6083 15.1608 34.9999 15.1668ZM29.1663 51.5002V39.9608L28.7771 39.6104C24.9379 36.1766 24.6097 30.2806 28.0439 26.4418C29.814 24.4624 32.3446 23.3319 34.9999 23.3336C35.3422 23.3336 35.6844 23.3516 36.0253 23.3879L30.6002 28.8169L31.6367 36.0348L38.8546 37.0704L44.2789 31.6457C44.3148 31.9845 44.3331 32.3254 44.3331 32.6668C44.3122 37.0157 41.3099 40.7815 37.0755 41.7723L36.1667 41.9778V52.4637C33.7925 52.6162 31.4115 52.2885 29.1663 51.5002ZM38.4999 52.1535V43.8013C43.3441 42.2465 46.639 37.7536 46.6663 32.6668C46.6714 31.3987 46.4647 30.1388 46.0554 28.9391L45.4478 27.1729L38.0334 34.5903L33.7003 33.9699L33.0765 29.6334L40.4939 22.2147L38.7272 21.608C37.5271 21.2 36.2671 20.9944 34.9999 21C28.5596 20.997 23.3365 26.2154 23.3336 32.6553C23.3318 35.7908 24.5931 38.7948 26.8331 40.9896V50.4783C18.2912 45.9657 15.0241 35.3841 19.5358 26.8417C24.0475 18.2994 34.6304 15.0327 43.1723 19.5444C51.7142 24.0561 54.9818 34.6386 50.4697 43.1809C48.0233 47.8114 43.6312 51.1029 38.4999 52.1501V52.1535Z" fill="#2A2A3F"/>
</svg>
