<svg width="70" height="70" viewBox="0 0 70 70" fill="none" xmlns="http://www.w3.org/2000/svg">
<g clip-path="url(#clip0)">
<path d="M68.8328 40.8336H65.2546L62.9996 8.08777C62.9573 7.47467 62.4476 6.99957 61.8328 7.00043H54.8328C54.218 6.99957 53.7083 7.47467 53.666 8.08777L51.4109 40.8336H49V33.8336C49 33.1898 48.4775 32.6668 47.8336 32.6668C47.5679 32.6664 47.3107 32.757 47.1039 32.9227L37.3332 40.7392V33.8336C37.3332 33.1898 36.8111 32.6668 36.1668 32.6668C35.9015 32.6664 35.6443 32.757 35.4375 32.9227L25.6668 40.7392V33.8336C25.6668 33.1898 25.1447 32.6668 24.5004 32.6668C24.2351 32.6664 23.9775 32.757 23.7711 32.9227L14.0004 40.7392V33.8336C14 33.1898 13.4775 32.6672 12.8336 32.6672C12.6213 32.6672 12.4141 32.7249 12.2325 32.8339L0.565674 39.8339C0.214905 40.0449 0 40.4239 0 40.8336V68.8336C0 69.4779 0.522522 70 1.16681 70H68.8328C69.4771 70 69.9996 69.4779 69.9996 68.8336V42.0004C69.9996 41.3557 69.4771 40.8336 68.8328 40.8336ZM55.9222 9.33362H60.7433L62.9163 40.8336H53.7493L55.9222 9.33362ZM39.666 67.6668V53.6668H46.666V67.6668H39.666ZM67.6664 67.6668H49V52.5C49 51.8561 48.4771 51.3336 47.8328 51.3336H38.4996C37.8553 51.3336 37.3328 51.8561 37.3328 52.5V67.6668H2.33319V41.4941L11.6664 35.8942V43.1668C11.6664 43.8115 12.1885 44.3336 12.8328 44.3345C13.0977 44.3345 13.3553 44.2439 13.5625 44.0781L23.3332 36.2617V43.1668C23.3332 43.8115 23.8549 44.3336 24.4996 44.3345C24.7645 44.3345 25.0217 44.2439 25.2289 44.0786L34.9996 36.2621V43.1672C34.9996 43.8115 35.5212 44.3345 36.166 44.3345C36.4308 44.3345 36.688 44.2439 36.8953 44.0786L46.666 36.2621V42.0004C46.666 42.6451 47.1885 43.1672 47.8328 43.1672H67.6655V67.6668H67.6664Z" fill="#2A2A3F"/>
<path d="M39.6583 2.33402C40.0826 2.56132 40.4658 2.85783 40.7927 3.21116C41.4468 4.00883 42.3782 4.52836 43.3997 4.66721C44.476 4.53007 45.4586 3.98789 46.1486 3.15049C46.4439 2.84074 46.7741 2.56687 47.1334 2.33402C47.3735 2.3447 48.0024 2.93345 48.3408 3.24961C48.9702 4.02848 49.8742 4.53562 50.8663 4.66721C52.0122 4.52195 53.0593 3.9473 53.7972 3.05949C54.083 2.79118 54.5158 2.38401 54.5996 2.33402C55.2259 2.33402 55.3694 2.54166 55.7548 3.09708C56.2611 4.05369 57.2506 4.65653 58.3333 4.66721C58.9771 4.66721 59.4996 4.14469 59.4996 3.50083C59.4996 2.85612 58.9771 2.33402 58.3333 2.33402C58.0996 2.33402 58.0543 2.31779 57.6753 1.77049C57.0558 0.657511 55.8727 -0.0230922 54.5996 0.000406342C53.6558 0.131571 52.797 0.616922 52.1989 1.35862C51.8113 1.72392 51.1619 2.33402 50.9154 2.33958C50.554 2.12083 50.2241 1.85423 49.9327 1.54789C49.2312 0.693399 48.2297 0.140116 47.133 0.000406342C46.1217 0.138407 45.2006 0.653665 44.5533 1.44236C44.226 1.79356 43.8479 2.09391 43.4322 2.33402C43.0434 2.111 42.6896 1.83244 42.3825 1.50559C41.7006 0.677591 40.7299 0.140116 39.666 0.000406342C39.0222 -0.00172989 38.4975 0.518656 38.4954 1.16337C38.4932 1.80723 39.014 2.33189 39.6583 2.33402Z" fill="#2A2A3F"/>
<path d="M12.8336 53.6668H8.16638C7.52209 53.6668 7 54.1893 7 54.8332V61.8332C7 62.4779 7.52209 63 8.16638 63H12.8336C13.4775 63 14 62.4779 14 61.8332V54.8332C14 54.1893 13.4775 53.6668 12.8336 53.6668ZM11.6664 60.6668H9.33319V56.0004H11.6664V60.6668Z" fill="#2A2A3F"/>
<path d="M22.1669 53.6668H17.5001C16.8553 53.6668 16.3333 54.1893 16.3333 54.8332V61.8332C16.3333 62.4779 16.8553 63 17.5001 63H22.1669C22.8107 63 23.3333 62.4779 23.3333 61.8332V54.8332C23.3333 54.1893 22.8107 53.6668 22.1669 53.6668ZM20.9996 60.6668H18.6664V56.0004H20.9996V60.6668Z" fill="#2A2A3F"/>
<path d="M31.4999 53.6668H26.8331C26.1884 53.6668 25.6663 54.1893 25.6663 54.8332V61.8332C25.6663 62.4779 26.1884 63 26.8331 63H31.4999C32.1437 63 32.6663 62.4779 32.6663 61.8332V54.8332C32.6663 54.1893 32.1437 53.6668 31.4999 53.6668ZM30.3326 60.6668H27.9995V56.0004H30.3326V60.6668Z" fill="#2A2A3F"/>
</g>
<defs>
<clipPath id="clip0">
<rect width="70" height="70" fill="white"/>
</clipPath>
</defs>
</svg>
