<svg width="70" height="70" viewBox="0 0 70 70" fill="none" xmlns="http://www.w3.org/2000/svg">
<path d="M2.1875 67.8125H67.8125V2.1875H2.1875V67.8125ZM4.375 4.375H65.625V65.625H4.375V4.375Z" fill="#2A2A3F"/>
<path d="M7.65625 63.4375H62.3438V52.5H7.65625V63.4375ZM9.84375 54.6875H12.0312V59.0625H14.2188V54.6875H16.4062V56.875H18.5938V54.6875H20.7812V56.875H22.9688V54.6875H25.1562V56.875H27.3438V54.6875H29.5312V56.875H31.7188V54.6875H33.9062V59.0625H36.0938V54.6875H38.2812V56.875H40.4688V54.6875H42.6562V56.875H44.8438V54.6875H47.0312V56.875H49.2188V54.6875H51.4062V56.875H53.5938V54.6875H55.7812V59.0625H57.9688V54.6875H60.1562V61.25H9.84375V54.6875Z" fill="#2A2A3F"/>
<path d="M21.875 26.25H6.5625V28.4375H21.875V26.25Z" fill="#2A2A3F"/>
<path d="M21.875 30.625H6.5625V32.8125H21.875V30.625Z" fill="#2A2A3F"/>
<path d="M26.25 26.25H24.0625V28.4375H26.25V26.25Z" fill="#2A2A3F"/>
<path d="M26.25 35H6.5625V37.1875H26.25V35Z" fill="#2A2A3F"/>
<path d="M36.0938 42.6562H55.7812V22.9688H36.0938V42.6562ZM38.2812 25.1562H53.5938V40.4688H38.2812V25.1562Z" fill="#2A2A3F"/>
<path d="M56.875 17.5H48.125V10.9375H26.25V6.5625H6.5625V24.0625H26.25V13.125H45.9375V17.5H35V15.3125H28.4375V21.875H30.625V43.75H28.4375V50.3125H35V48.125H56.875V50.3125H63.4375V43.75H61.25V21.875H63.4375V15.3125H56.875V17.5ZM24.0625 21.875H8.75V8.75H24.0625V21.875ZM30.625 17.5H32.8125V19.6875H30.625V17.5ZM32.8125 48.125H30.625V45.9375H32.8125V48.125ZM61.25 48.125H59.0625V45.9375H61.25V48.125ZM59.0625 43.75H56.875V45.9375H35V43.75H32.8125V21.875H35V19.6875H56.875V21.875H59.0625V43.75ZM59.0625 17.5H61.25V19.6875H59.0625V17.5Z" fill="#2A2A3F"/>
<path d="M57.9688 8.75H61.25V12.0312H63.4375V6.5625H57.9688V8.75Z" fill="#2A2A3F"/>
<path d="M55.7812 6.5625H53.5938V8.75H55.7812V6.5625Z" fill="#2A2A3F"/>
</svg>
