<svg width="70" height="70" viewBox="0 0 70 70" fill="none" xmlns="http://www.w3.org/2000/svg">
<g clip-path="url(#clip0)">
<path d="M18.5789 18.7488H22.0942V22.2642C22.0942 29.3838 27.8655 35.1551 34.9851 35.1551C42.1043 35.1551 47.876 29.3838 47.876 22.2642V18.7488H51.3918C52.0386 18.7488 52.5633 18.2238 52.5633 17.5769V12.8892C52.5633 12.2419 52.0386 11.7172 51.3918 11.7172H49.8012C48.064 4.38525 41.225 -0.574224 33.7162 0.0534008C33.2932 0.0888623 32.8707 0.142268 32.4477 0.214045C26.4111 1.22448 21.5704 5.75927 20.1686 11.7172H18.5789C17.9316 11.7172 17.4065 12.2423 17.4065 12.8896V17.5769C17.4065 18.2238 17.9316 18.7488 18.5789 18.7488ZM45.5321 22.2642C45.5321 28.0893 40.8098 32.8116 34.9851 32.8116C29.16 32.8116 24.4377 28.0893 24.4377 22.2642V18.7488H45.5321V22.2642ZM47.3872 11.7172H39.6724C39.669 10.5872 39.252 9.49768 38.5005 8.65386V2.85571C42.8037 4.06054 46.1704 7.41741 47.3872 11.7172ZM33.8563 2.39471C34.2079 2.36309 34.5493 2.34942 34.8937 2.34686H35.0881C35.4294 2.34686 35.7691 2.36438 36.1113 2.39471H36.1566V7.17816C35.388 6.98034 34.5818 6.98034 33.8132 7.17816V2.40069L33.8563 2.39471ZM32.7733 12.4662C32.6831 12.2269 32.6382 11.9731 32.6408 11.7172C32.6374 11.049 32.9241 10.412 33.4278 9.97235C34.0858 9.40411 35.0001 9.23748 35.8161 9.53784C36.7261 9.87622 37.3294 10.7457 37.3286 11.7172C37.3294 11.9885 37.2798 12.2577 37.1812 12.5102C36.7496 13.7231 35.4166 14.3567 34.2037 13.9257C33.5282 13.6851 33.0006 13.1468 32.7733 12.4662ZM31.4693 2.85571V8.65643C30.7178 9.49938 30.3012 10.5884 30.2974 11.7172H22.583C23.8007 7.41827 27.1669 4.0614 31.4693 2.85571ZM19.7504 14.0611H30.9293C31.0117 14.2012 31.1014 14.3367 31.1984 14.4678C31.2198 14.4969 31.2373 14.5298 31.2595 14.5588C31.3941 14.7361 31.5415 14.9036 31.7004 15.0596C31.7449 15.1027 31.7949 15.1416 31.8419 15.1839C31.9585 15.2916 32.0807 15.3932 32.208 15.4881C32.2721 15.5364 32.3413 15.5787 32.4092 15.6244C32.5263 15.7017 32.6438 15.7756 32.7733 15.8436C32.8489 15.8833 32.9245 15.9209 33.0078 15.9602C33.1356 16.02 33.2659 16.0777 33.3992 16.1213C33.4778 16.1503 33.5573 16.1798 33.6337 16.2046C33.7803 16.2477 33.9302 16.2806 34.0815 16.3114C34.1528 16.3251 34.2233 16.3439 34.296 16.3545C34.7523 16.4259 35.2167 16.4259 35.673 16.3545C35.7482 16.3439 35.8217 16.3242 35.8956 16.3084C36.0425 16.2815 36.187 16.2473 36.3301 16.2054C36.4194 16.1798 36.504 16.1478 36.5907 16.1161C36.7078 16.0721 36.8308 16.0251 36.9423 15.9709C37.0346 15.9277 37.1248 15.8829 37.2141 15.8354C37.3033 15.7872 37.4097 15.718 37.5046 15.662C37.5999 15.6056 37.6943 15.5445 37.7844 15.4731C37.8746 15.4018 37.9276 15.3556 37.9993 15.2958C38.0985 15.2117 38.1993 15.1301 38.292 15.0386C38.3104 15.0181 38.327 14.9976 38.3458 14.9771C38.5765 14.7374 38.7799 14.4725 38.9529 14.1871C38.9786 14.1453 39.0102 14.1077 39.0354 14.0645H50.2194V16.4084H19.7504V14.0611Z" fill="#2A2A3F"/>
<path d="M45.3116 33.9832C45.0198 33.9832 44.7391 34.0917 44.5225 34.2878L35.0303 42.9096L26.5111 34.3348C26.2914 34.1109 25.9919 33.9844 25.6788 33.9832H24.6585C14.1859 33.9951 5.69946 42.4815 5.6875 52.9542V63.2807C5.6875 63.7853 6.01007 64.2335 6.48901 64.3924L12.3795 66.3556C19.6696 68.7759 27.3032 70.0064 34.9851 70C42.6669 70.006 50.2997 68.7755 57.5906 66.3556L63.4807 64.3924C63.9592 64.2335 64.2822 63.7853 64.2822 63.2807V52.9533C64.2702 42.4811 55.7838 33.9951 45.3116 33.9832ZM61.9383 62.4356L56.8485 64.1322C42.652 68.8315 27.3181 68.8315 13.1212 64.1322L8.03137 62.4356V52.9533C8.03906 43.7739 15.4791 36.3347 24.6585 36.3266H25.1913L34.1528 45.3505C34.5945 45.7948 35.3085 45.8132 35.7725 45.3911L45.7568 36.3266C54.7606 36.5791 61.9306 43.9465 61.9383 52.9533V62.4356Z" fill="#2A2A3F"/>
</g>
<defs>
<clipPath id="clip0">
<rect width="70" height="70" fill="white"/>
</clipPath>
</defs>
</svg>
