<svg width="25" height="25" viewBox="0 0 25 25" fill="none" xmlns="http://www.w3.org/2000/svg">
<g clip-path="url(#clip0)">
<path d="M12.5 24.999C19.4036 24.999 25 19.4026 25 12.499C25 5.59546 19.4036 -0.000976562 12.5 -0.000976562C5.59644 -0.000976562 0 5.59546 0 12.499C0 19.4026 5.59644 24.999 12.5 24.999Z" fill="#DC4E41"/>
<path d="M4.35198 13.06C4.30764 15.2107 5.78897 17.2632 7.8267 17.9325C9.74611 18.5774 12.106 18.095 13.3833 16.4512C14.3158 15.2994 14.5277 13.7639 14.4268 12.3294C12.783 12.3147 11.1392 12.3196 9.49789 12.322C9.49521 12.9076 9.49789 13.491 9.50034 14.0765C10.4846 14.1037 11.469 14.0912 12.4532 14.1111C12.2048 14.9625 11.6388 15.7549 10.7798 16.0624C9.12131 16.7932 7.00515 15.8384 6.4833 14.0986C5.85337 12.4325 6.8846 10.422 8.5872 9.93736C9.64294 9.56591 10.7305 9.98415 11.6339 10.533C12.0916 10.1047 12.5198 9.64702 12.9405 9.18443C11.9142 8.32567 10.5953 7.79913 9.23941 7.91478C6.57911 7.94642 4.25104 10.4024 4.35198 13.06Z" fill="#DC4E41"/>
<path d="M17.6259 10.8445C17.621 11.3343 17.6158 11.8265 17.6134 12.316C17.1212 12.3209 16.6316 12.3234 16.1418 12.3258C16.1418 12.8156 16.1418 13.3027 16.1418 13.7924C16.6316 13.7949 17.1238 13.7974 17.6134 13.8025C17.6183 14.2922 17.6183 14.7818 17.6232 15.274C18.1105 15.274 18.6003 15.2716 19.0898 15.274C19.0925 14.7818 19.0947 14.2922 19.0998 13.8C19.5894 13.7976 20.0816 13.7951 20.5714 13.7927C20.5714 13.3029 20.5714 12.8158 20.5714 12.326C20.0818 12.3236 19.5896 12.3211 19.0998 12.3162C19.0972 11.8265 19.0925 11.3343 19.0898 10.8447C18.6003 10.8445 18.1129 10.8445 17.6259 10.8445Z" fill="#DC4E41"/>
<path d="M4.35198 13.0593C4.25104 10.4016 6.57889 7.94567 9.23919 7.9138C10.5951 7.79816 11.9142 8.32469 12.9403 9.18346C12.5194 9.64626 12.0911 10.1037 11.6337 10.532C10.7303 9.98317 9.64272 9.56493 8.58698 9.93638C6.88416 10.4212 5.85293 12.4318 6.48307 14.0976C7.00493 15.8374 9.12109 16.7922 10.7796 16.0614C11.6383 15.7539 12.2045 14.9615 12.453 14.1101C11.4688 14.0905 10.4843 14.1027 9.50011 14.0756C9.49766 13.49 9.49521 12.9066 9.49766 12.321C11.139 12.3186 12.7828 12.3137 14.4265 12.3284C14.5275 13.7632 14.3158 15.2986 13.3831 16.4502C12.1058 18.094 9.74611 18.5764 7.82648 17.9315C5.7892 17.2624 4.30764 15.21 4.35198 13.0593Z" fill="white"/>
<path d="M17.6259 10.8445C18.1132 10.8445 18.6003 10.8445 19.0898 10.8445C19.0925 11.3343 19.0972 11.8265 19.0998 12.316C19.5894 12.3209 20.0816 12.3234 20.5714 12.3258C20.5714 12.8156 20.5714 13.3027 20.5714 13.7924C20.0818 13.7949 19.5896 13.7974 19.0998 13.7998C19.0949 14.292 19.0925 14.7816 19.0898 15.2738C18.6003 15.2713 18.1103 15.2738 17.6232 15.2738C17.6185 14.7816 17.6185 14.292 17.6134 13.8023C17.1238 13.7971 16.6316 13.7949 16.1418 13.7922C16.1418 13.3025 16.1418 12.8154 16.1418 12.3256C16.6316 12.3231 17.1214 12.3207 17.6134 12.3158C17.6158 11.8265 17.6207 11.3343 17.6259 10.8445Z" fill="white"/>
</g>
<defs>
<clipPath id="clip0">
<rect width="25" height="25" fill="white"/>
</clipPath>
</defs>
</svg>
