<svg width="25" height="25" viewBox="0 0 25 25" fill="none" xmlns="http://www.w3.org/2000/svg">
<g clip-path="url(#clip0)">
<path d="M12.5 24.999C19.4036 24.999 25 19.4026 25 12.499C25 5.59546 19.4036 -0.000976562 12.5 -0.000976562C5.59644 -0.000976562 0 5.59546 0 12.499C0 19.4026 5.59644 24.999 12.5 24.999Z" fill="#007AB9"/>
<path d="M19.9686 13.5055V18.659H16.9808V13.8509C16.9808 12.6437 16.5494 11.8192 15.4676 11.8192C14.642 11.8192 14.1516 12.3743 13.935 12.9117C13.8564 13.1038 13.8361 13.3705 13.8361 13.6399V18.6588H10.848C10.848 18.6588 10.8881 10.5155 10.848 9.67252H13.8363V10.946C13.8303 10.956 13.8218 10.9658 13.8165 10.9754H13.8363V10.946C14.2334 10.335 14.9415 9.46151 16.5291 9.46151C18.4949 9.46151 19.9686 10.7459 19.9686 13.5055ZM7.72222 5.34082C6.70013 5.34082 6.03143 6.01174 6.03143 6.89324C6.03143 7.75601 6.68074 8.44632 7.68301 8.44632H7.70239C8.74454 8.44632 9.39251 7.75601 9.39251 6.89324C9.37268 6.01174 8.74454 5.34082 7.72222 5.34082ZM6.20902 18.659H9.19598V9.67252H6.20902V18.659Z" fill="#F1F2F2"/>
</g>
<defs>
<clipPath id="clip0">
<rect width="25" height="25" fill="white"/>
</clipPath>
</defs>
</svg>
