<svg width="25" height="25" viewBox="0 0 25 25" fill="none" xmlns="http://www.w3.org/2000/svg">
<path d="M0 12.5C0 19.4036 5.59644 25 12.5 25C19.4036 25 25 19.4036 25 12.5C25 5.59644 19.4036 0 12.5 0C5.59644 0 0 5.59644 0 12.5Z" fill="#61A8DE"/>
<path d="M19.6852 5.51861L2.96734 12.0334C2.42584 12.2444 2.45865 13.0214 3.01605 13.186L7.26423 14.4405L8.84965 19.4712C9.01526 19.9967 9.68117 20.156 10.0666 19.7624L12.2631 17.5197L16.5726 20.683C17.1 21.0702 17.8511 20.7825 17.985 20.1422L20.8393 6.496C20.9791 5.82757 20.3214 5.27066 19.6852 5.51861ZM17.5892 8.54704L9.82385 15.4139C9.74645 15.4824 9.69719 15.5771 9.68567 15.6798L9.3867 18.3375C9.37693 18.4242 9.25564 18.4357 9.22975 18.3524L7.99969 14.3888C7.94335 14.2073 8.01681 14.0107 8.17825 13.9106L17.3483 8.22328C17.5592 8.09239 17.7751 8.38269 17.5892 8.54704Z" fill="white"/>
</svg>
