<svg width="25" height="25" viewBox="0 0 25 25" fill="none" xmlns="http://www.w3.org/2000/svg">
<g clip-path="url(#clip0)">
<path d="M12.5009 24.9998C19.4044 24.9998 25.0007 19.4034 25.0007 12.4999C25.0007 5.59639 19.4044 0 12.5009 0C5.59737 0 0.000976562 5.59639 0.000976562 12.4999C0.000976562 19.4034 5.59737 24.9998 12.5009 24.9998Z" fill="#55ACEE"/>
<path d="M20.1567 8.98338C19.621 9.22091 19.0448 9.38157 18.4405 9.45331C19.0575 9.08365 19.531 8.49874 19.7545 7.80064C19.1771 8.14312 18.5374 8.39157 17.8571 8.52548C17.3121 7.94503 16.5356 7.58228 15.6757 7.58228C14.0259 7.58228 12.6879 8.92032 12.6879 10.5701C12.6879 10.8043 12.7144 11.0322 12.7657 11.251C10.2825 11.1265 8.08081 9.93706 6.60706 8.12886C6.34993 8.57005 6.20242 9.08365 6.20242 9.63113C6.20242 10.6675 6.73028 11.5824 7.53155 12.118C7.04201 12.1027 6.58099 11.9683 6.17835 11.7439C6.17813 11.7566 6.17813 11.7693 6.17813 11.7818C6.17813 13.2295 7.20846 14.437 8.57503 14.7113C8.32458 14.7799 8.06009 14.8162 7.78802 14.8162C7.59506 14.8162 7.40811 14.7977 7.22584 14.7629C7.60598 15.9497 8.70917 16.8136 10.0169 16.8379C8.99416 17.6394 7.70602 18.1169 6.30581 18.1169C6.06516 18.1169 5.82674 18.1028 5.59344 18.075C6.915 18.923 8.4859 19.4175 10.1731 19.4175C15.6688 19.4175 18.6742 14.8648 18.6742 10.9161C18.6742 10.7867 18.6713 10.6577 18.6655 10.5298C19.2498 10.1086 19.7563 9.58255 20.1567 8.98338Z" fill="#F1F2F2"/>
</g>
<defs>
<clipPath id="clip0">
<rect width="25" height="25" fill="white"/>
</clipPath>
</defs>
</svg>
