<svg width="58" height="70" viewBox="0 0 58 70" fill="none" xmlns="http://www.w3.org/2000/svg">
<path d="M49.732 46.608C52.1686 48.3771 53.3198 53.5984 53.5593 55.4649L55.3764 69.1711L57.2749 68.922L55.4594 55.1999C55.4211 54.8965 54.4599 47.6682 50.8657 45.0751C49.6618 44.2704 48.3716 43.6014 47.0176 43.0825C46.9362 43.0202 46.8484 42.9707 46.751 42.9372L45.9606 42.6577C44.7662 42.1963 43.5192 41.7652 42.3217 41.3915L41.5824 41.1329C41.509 41.1057 41.4339 41.0898 41.3557 41.0818C39.3534 40.4479 37.5954 39.98 36.6534 39.7341V37.6393C39.5131 35.5955 41.212 32.2967 41.2088 28.7823V27.1696C41.5281 27.2862 41.865 27.3469 42.2019 27.3517C43.8002 27.3517 45.0952 26.0567 45.0952 24.4584V21.8781C45.0952 21.1772 44.8365 20.5018 44.3719 19.9812C44.68 19.4894 44.8365 18.9178 44.8237 18.3398V17.2381C44.8684 16.4349 44.6146 15.643 44.1132 15.0123C43.8529 14.7408 43.5192 14.546 43.152 14.455C42.9252 11.8412 41.6846 4.16741 35.0662 1.16879H35.0087C33.2843 0.429508 31.4337 0.0335237 29.5608 0.00318617H29.0099C27.2184 -0.0335382 25.4349 0.247483 23.7392 0.831879H23.6944C16.3655 3.52713 15.0451 11.7167 14.8375 14.4295C14.4687 14.5205 14.1333 14.7137 13.8747 14.9867C13.3494 15.6094 13.0747 16.403 13.1083 17.2141V18.3478C13.0939 18.9258 13.2504 19.4958 13.5569 19.9844C13.0955 20.5097 12.8352 21.1852 12.8352 21.8861V24.4712C12.8352 26.0695 14.1317 27.3628 15.7285 27.3628C16.0686 27.3628 16.4023 27.3006 16.72 27.1808V28.7999C16.7264 32.2743 18.3886 35.5364 21.1956 37.5834V39.7341C17.8106 40.6171 14.475 41.6885 11.2098 42.9483H11.1667C9.72003 43.4896 8.34048 44.197 7.05193 45.0496C3.45773 47.6682 2.49811 54.8885 2.45819 55.1759L0.642731 68.9061L2.54122 69.152L4.35668 55.4218C4.59938 53.5601 5.74742 48.3452 8.15366 46.5617C8.91848 46.0523 9.72961 45.618 10.5775 45.2636V53.4882C9.17875 54.0024 7.41438 55.441 7.41438 58.4779V69.0514C7.41438 69.5735 7.83751 69.9998 8.36283 69.9998H49.5995C50.1248 69.9998 50.5463 69.5735 50.5463 69.0514V58.4955C50.5463 55.4586 48.7708 54.0215 47.3833 53.509V45.2843C48.2088 45.6484 48.9927 46.0923 49.732 46.608ZM43.2142 21.8781V24.4664C43.1727 25.0125 42.6921 25.4212 42.146 25.3781C41.6606 25.3382 41.2742 24.9518 41.2343 24.4664V21.8781C41.1928 21.3305 41.5984 20.853 42.146 20.8067C42.6921 20.7636 43.1727 21.1724 43.2142 21.7185C43.2206 21.7711 43.2206 21.8254 43.2142 21.8781ZM30.3064 1.94638C31.4609 2.0342 32.5993 2.28489 33.6867 2.68406V7.48857C32.9043 8.61425 31.67 9.33756 30.3064 9.46849V1.94638ZM25.0293 2.42061C26.1278 2.10605 27.2631 1.93201 28.4095 1.90168V9.49404C27.0459 9.36311 25.8085 8.6382 25.0293 7.51252V2.42061ZM16.6961 24.4584C16.653 25.0045 16.1723 25.4148 15.6279 25.3701C15.1425 25.3334 14.7561 24.947 14.7161 24.4584V21.8781C14.6714 21.3305 15.0802 20.853 15.6279 20.8067C16.1723 20.7636 16.653 21.1724 16.6961 21.7185C16.7009 21.7711 16.7009 21.8254 16.6961 21.8781V24.4584ZM15.7029 18.9801C15.5225 18.9801 15.3468 18.9977 15.1728 19.0296C15.0259 18.8332 14.9556 18.5857 14.9812 18.3398V17.1902C14.97 16.8884 15.0451 16.5914 15.2031 16.3343C15.2399 16.304 15.2878 16.2928 15.3373 16.2992H15.7029C16.2266 16.2992 16.653 15.8729 16.653 15.3476C16.653 14.9053 16.7775 6.48743 23.126 3.18383V7.74244C23.126 7.88296 23.158 8.02027 23.2186 8.14641C23.2841 8.27894 24.8313 11.4372 29.35 11.4372C33.8671 11.4372 35.4207 8.27415 35.483 8.14641C35.5404 8.02027 35.574 7.88296 35.5692 7.74244V3.64049C41.1337 7.19158 41.2663 14.9229 41.2663 15.3476C41.2663 15.8729 41.6926 16.2992 42.2147 16.2992H42.5819C42.6762 16.2992 42.6969 16.2992 42.7145 16.3343C42.8757 16.5978 42.9508 16.9012 42.9364 17.2109V18.3398C42.962 18.5889 42.8885 18.838 42.7336 19.0296C41.8027 18.846 40.8399 19.1398 40.1725 19.8168H17.7579C17.2134 19.2755 16.4741 18.9785 15.7093 18.9865L15.7029 18.9801ZM18.5946 28.7999V21.7153H39.3486V28.7999C39.3406 33.7752 35.3057 37.8021 30.332 37.7973H27.5984C22.6294 37.7957 18.6009 33.7704 18.5946 28.7999ZM34.7788 38.741V40.1445L28.9588 47.5868L23.0733 40.1445V38.7011C24.4928 39.3605 26.0368 39.7006 27.5984 39.7022H30.332C31.8664 39.7022 33.3833 39.3733 34.7788 38.741ZM17.5886 42.7344C19.3977 42.1819 20.9561 41.7604 21.764 41.5496L28.9716 50.662L36.0977 41.5496C36.9168 41.7652 38.5008 42.1819 40.3497 42.7583V53.6287H17.5679L17.5886 42.7344ZM48.651 58.4955V68.1189H9.31128V58.4955C9.31128 55.631 11.4317 55.2191 11.6584 55.1791C12.1295 55.1137 12.476 54.7113 12.476 54.2387V44.4923C13.5186 44.0868 14.6267 43.702 15.7029 43.3539V54.5788C15.7029 55.1041 16.1276 55.5304 16.653 55.5304H41.3285C41.8522 55.5304 42.2786 55.1041 42.2786 54.5788V43.3731L45.4736 44.4923V54.2387C45.4736 54.7129 45.8265 55.1185 46.2959 55.1791C46.3933 55.1919 48.651 55.5304 48.651 58.4955Z" fill="white"/>
<path d="M11.5081 57.2988H16.632V59.0009H11.5081V57.2988Z" fill="white"/>
<path d="M41.2978 57.2988H46.4249V59.0009H41.2978V57.2988Z" fill="white"/>
</svg>
