<svg width="20" height="20" viewBox="0 0 20 20" fill="none" xmlns="http://www.w3.org/2000/svg">
<g clip-path="url(#clip0)">
<path d="M19.5413 15.806L16.4542 12.7169C15.8393 12.1042 14.8211 12.1228 14.1848 12.7597L12.6295 14.3154C12.5312 14.2612 12.4295 14.2046 12.3226 14.1446C11.3404 13.6001 9.99622 12.8539 8.58169 11.4376C7.16297 10.0183 6.4164 8.67128 5.87054 7.68799C5.81294 7.58381 5.75775 7.48338 5.70325 7.388L6.74708 6.34518L7.26026 5.8311C7.89754 5.19331 7.91512 4.1748 7.30166 3.56028L4.21459 0.470905C3.60113 -0.142752 2.58241 -0.124135 1.94512 0.513654L1.07508 1.38915L1.09885 1.41277C0.807115 1.78521 0.56333 2.21477 0.381913 2.678C0.214681 3.11894 0.110563 3.53971 0.0629546 3.96134C-0.344674 7.34243 1.19958 10.4325 5.3905 14.6256C11.1836 20.4214 15.8521 19.9835 16.0535 19.9622C16.4921 19.9097 16.9125 19.8048 17.3397 19.6388C17.7987 19.4595 18.2277 19.2159 18.5998 18.9246L18.6188 18.9415L19.5002 18.078C20.1362 17.4403 20.1545 16.4215 19.5413 15.806Z" fill="white"/>
</g>
<defs>
<clipPath id="clip0">
<rect width="19.9896" height="20" fill="white"/>
</clipPath>
</defs>
</svg>
