<svg width="20" height="20" viewBox="0 0 20 20" fill="none" xmlns="http://www.w3.org/2000/svg">
<g clip-path="url(#clip0)">
<path d="M19.5515 15.806L16.4628 12.7169C15.8476 12.1042 14.8288 12.1228 14.1922 12.7597L12.6361 14.3154C12.5378 14.2612 12.436 14.2046 12.329 14.1446C11.3464 13.6001 10.0014 12.8539 8.58617 11.4376C7.16671 10.0183 6.41975 8.67128 5.87361 7.68799C5.81598 7.58381 5.76076 7.48338 5.70623 7.388L6.7506 6.34518L7.26405 5.8311C7.90166 5.19331 7.91925 4.1748 7.30547 3.56028L4.21679 0.470905C3.60302 -0.142752 2.58376 -0.124135 1.94614 0.513654L1.07564 1.38915L1.09943 1.41277C0.807543 1.78521 0.563631 2.21477 0.38212 2.678C0.214801 3.11894 0.110628 3.53971 0.062995 3.96134C-0.344846 7.34243 1.20021 10.4325 5.39331 14.6256C11.1894 20.4214 15.8604 19.9835 16.0619 19.9622C16.5007 19.9097 16.9213 19.8048 17.3488 19.6388C17.808 19.4595 18.2373 19.2159 18.6095 18.9246L18.6285 18.9415L19.5104 18.078C20.1467 17.4403 20.165 16.4215 19.5515 15.806Z" fill="#203371"/>
</g>
<defs>
<clipPath id="clip0">
<rect width="20" height="20" fill="white"/>
</clipPath>
</defs>
</svg>
