<svg width="15" height="15" viewBox="0 0 15 15" fill="none" xmlns="http://www.w3.org/2000/svg">
<g clip-path="url(#clip0)">
<path d="M7.50015 0C7.33161 0 7.19678 0.134831 7.19678 0.303371V11.3381L4.93222 9.07354C4.81271 8.95403 4.62272 8.95403 4.50321 9.07354C4.3837 9.19305 4.3837 9.38304 4.50321 9.50255L7.28564 12.285C7.34387 12.3432 7.42354 12.3738 7.50015 12.3738C7.57676 12.3738 7.65643 12.3432 7.71466 12.285L10.4971 9.50255C10.6166 9.38304 10.6166 9.19305 10.4971 9.07354C10.3776 8.95403 10.1876 8.95403 10.0681 9.07354L7.80352 11.3381V0.303371C7.80352 0.134831 7.66869 0 7.50015 0Z" fill="white"/>
<path d="M1.1874 11.2432C1.01886 11.2432 0.884033 11.378 0.884033 11.5465V14.6967C0.884033 14.8652 1.01886 15.0001 1.1874 15.0001H13.8125C13.9811 15.0001 14.1159 14.8652 14.1159 14.6967V11.5465C14.1159 11.378 13.9811 11.2432 13.8125 11.2432C13.644 11.2432 13.5092 11.378 13.5092 11.5465V14.3933H1.49077V11.5465C1.49077 11.378 1.35594 11.2432 1.1874 11.2432Z" fill="white"/>
</g>
<defs>
<clipPath id="clip0">
<rect width="15" height="15" fill="white"/>
</clipPath>
</defs>
</svg>
