<svg width="21" height="20" viewBox="0 0 21 20" fill="none" xmlns="http://www.w3.org/2000/svg">
<g clip-path="url(#clip0)">
<path d="M12.9196 16.3203L11.3361 17.9053V10.0391C11.3361 9.69391 11.0564 9.41406 10.7115 9.41406C10.3665 9.41406 10.0868 9.69391 10.0868 10.0391V17.9053L8.50328 16.3203C8.26354 16.0721 7.86808 16.0651 7.61995 16.3049C7.37182 16.5446 7.3648 16.9405 7.60455 17.1887C7.60958 17.1939 7.61477 17.1989 7.61995 17.204L10.2692 19.8553C10.327 19.913 10.3955 19.959 10.4709 19.9902C10.6247 20.0552 10.7982 20.0552 10.952 19.9902C11.0273 19.959 11.0959 19.913 11.1537 19.8553L13.8029 17.204C14.0511 16.9643 14.0579 16.5686 13.8184 16.3203C13.5786 16.0719 13.1832 16.0651 12.935 16.3049C12.9298 16.31 12.9247 16.3152 12.9196 16.3203Z" fill="white"/>
<path d="M18.8321 2.53906H11.0455C11.0205 2.50122 10.9914 2.46628 10.9587 2.43469L8.82604 0.387879C8.59438 0.16388 8.28479 0.0389101 7.96284 0.0390626H2.59058C1.55565 0.0390626 0.716553 0.878601 0.716553 1.91406V13.1641C0.716553 14.1995 1.55565 15.0391 2.59058 15.0391H8.21265C8.55762 15.0391 8.83732 14.7592 8.83732 14.4141C8.83732 14.0689 8.55762 13.7891 8.21265 13.7891H2.59058C2.2456 13.7891 1.9659 13.5092 1.9659 13.1641V1.91406C1.9659 1.56891 2.2456 1.28906 2.59058 1.28906H7.96284L10.0536 3.29727C10.2897 3.60672 10.6563 3.7886 11.0455 3.78906H18.8321C19.1771 3.78906 19.4568 4.06891 19.4568 4.41406V13.1641C19.4568 13.5092 19.1771 13.7891 18.8321 13.7891H13.21C12.8651 13.7891 12.5854 14.0689 12.5854 14.4141C12.5854 14.7592 12.8651 15.0391 13.21 15.0391H18.8321C19.867 15.0391 20.7061 14.1995 20.7061 13.1641V4.41406C20.7061 3.37845 19.867 2.53906 18.8321 2.53906Z" fill="white"/>
</g>
<defs>
<clipPath id="clip0">
<rect width="19.9896" height="20" fill="white" transform="translate(0.716553)"/>
</clipPath>
</defs>
</svg>
