<svg width="20" height="20" viewBox="0 0 20 20" fill="none" xmlns="http://www.w3.org/2000/svg">
<g clip-path="url(#clip0)">
<path d="M11.3281 19.9609H8.12531C7.59033 19.9609 7.15515 19.5258 7.15515 18.9908V11.7667H5.28656C4.75159 11.7667 4.31641 11.3313 4.31641 10.7965V7.70096C4.31641 7.16599 4.75159 6.7308 5.28656 6.7308H7.15515V5.18066C7.15515 3.64365 7.63779 2.33597 8.55072 1.39923C9.46777 0.458221 10.7494 -0.0390625 12.2569 -0.0390625L14.6996 -0.0350952C15.2336 -0.0341797 15.668 0.401001 15.668 0.935059V3.8092C15.668 4.34418 15.233 4.77936 14.6982 4.77936L13.0536 4.77997C12.552 4.77997 12.4243 4.88052 12.397 4.91135C12.352 4.96246 12.2984 5.10696 12.2984 5.50598V6.73065H14.5746C14.7459 6.73065 14.912 6.77292 15.0546 6.85257C15.3624 7.02454 15.5537 7.3497 15.5537 7.70111L15.5525 10.7967C15.5525 11.3313 15.1173 11.7665 14.5824 11.7665H12.2984V18.9908C12.2984 19.5258 11.8631 19.9609 11.3281 19.9609ZM8.32764 18.7885H11.1258V11.2418C11.1258 10.8846 11.4165 10.594 11.7735 10.594H14.38L14.3811 7.90329H11.7734C11.4163 7.90329 11.1258 7.61276 11.1258 7.25555V5.50598C11.1258 5.04791 11.1723 4.52698 11.5181 4.13544C11.9359 3.66211 12.5943 3.60748 13.0533 3.60748L14.4955 3.60687V1.13709L12.256 1.13342C9.83322 1.13342 8.32764 2.68433 8.32764 5.18066V7.25555C8.32764 7.61261 8.03711 7.90329 7.68005 7.90329H5.48889V10.594H7.68005C8.03711 10.594 8.32764 10.8846 8.32764 11.2418V18.7885ZM14.6973 1.13739H14.6974H14.6973Z" fill="white"/>
</g>
<defs>
<clipPath id="clip0">
<rect width="19.9609" height="20" fill="white"/>
</clipPath>
</defs>
</svg>
