<svg width="20" height="20" viewBox="0 0 20 20" fill="none" xmlns="http://www.w3.org/2000/svg">
<path d="M9.99959 0C6.00564 0 2.75635 3.2493 2.75635 7.2432C2.75635 12.1998 9.23834 19.4763 9.51432 19.7836C9.77354 20.0723 10.2261 20.0718 10.4849 19.7836C10.7608 19.4763 17.2428 12.1998 17.2428 7.2432C17.2428 3.2493 13.9935 0 9.99959 0ZM9.99959 10.8875C7.99014 10.8875 6.35537 9.25266 6.35537 7.2432C6.35537 5.23375 7.99018 3.59898 9.99959 3.59898C12.009 3.59898 13.6438 5.23379 13.6438 7.24324C13.6438 9.2527 12.009 10.8875 9.99959 10.8875Z" fill="white"/>
</svg>
