<svg width="10" height="10" viewBox="0 0 10 10" fill="none" xmlns="http://www.w3.org/2000/svg">
<path d="M9.7399 4.76949L5.0704 0.100268C5.00375 0.0335163 4.92689 0 4.84003 0C4.75327 0 4.67652 0.0335163 4.60973 0.100268L4.10867 0.601258C4.04189 0.668045 4.00854 0.744764 4.00854 0.831731C4.00854 0.918697 4.04189 0.995416 4.10867 1.0622L8.04665 5.00007L4.10871 8.93804C4.04192 9.00483 4.00858 9.08169 4.00858 9.16841C4.00858 9.25534 4.04192 9.3322 4.10871 9.39899L4.60977 9.89984C4.67652 9.96669 4.75327 10 4.84007 10C4.92703 10 5.00379 9.96662 5.0704 9.89984L9.7399 5.23058C9.80666 5.16383 9.83996 5.08693 9.83996 5.0001C9.83996 4.91328 9.80666 4.83642 9.7399 4.76949Z" fill="#858A91"/>
<path d="M5.9922 5.0001C5.9922 4.91328 5.95896 4.83638 5.89193 4.76949L1.22274 0.100268C1.15599 0.0335163 1.07913 0 0.992305 0C0.905479 0 0.828584 0.0335163 0.761832 0.100268L0.260878 0.601293C0.193985 0.66808 0.160645 0.744799 0.160645 0.831766C0.160645 0.918733 0.193985 0.995452 0.260878 1.06224L4.19874 5.0001L0.260878 8.93804C0.193985 9.00483 0.160645 9.08169 0.160645 9.16841C0.160645 9.25534 0.193985 9.3322 0.260878 9.39899L0.761797 9.89984C0.828584 9.96669 0.905443 10 0.99227 10C1.0791 10 1.15596 9.96662 1.22274 9.89984L5.89193 5.23058C5.95896 5.16383 5.9922 5.08693 5.9922 5.0001Z" fill="#858A91"/>
</svg>
