<svg width="21" height="20" viewBox="0 0 21 20" fill="none" xmlns="http://www.w3.org/2000/svg">
<g clip-path="url(#clip0)">
<path d="M20.8345 2.63378C20.6381 2.39467 20.3127 2.30599 20.0232 2.4124L1.64139 9.05517C1.27415 9.18864 1.01639 9.5123 0.968534 9.89986C0.921139 10.2856 1.09115 10.6599 1.41007 10.8753L4.03758 12.6689C4.29213 12.8428 4.61946 12.8614 4.89206 12.7176L10.5917 9.71197L6.14955 13.0288C5.94101 13.1846 5.81641 13.4331 5.81641 13.6933V16.7657C5.81641 17.0826 5.99024 17.373 6.27003 17.5237C6.55027 17.6744 6.88876 17.6595 7.15493 17.484L9.15117 16.1598L11.1142 17.4983C11.2862 17.6162 11.4911 17.6783 11.6978 17.6783C11.7677 17.6783 11.8378 17.6711 11.907 17.6567C12.1826 17.5992 12.4265 17.4289 12.5761 17.1895L20.8927 3.47588C21.0546 3.21185 21.0314 2.87397 20.8345 2.63378ZM11.6539 16.4445L9.62099 15.0583C9.47957 14.9616 9.3166 14.9133 9.15377 14.9133C8.99446 14.9133 8.835 14.9596 8.69542 15.0523L6.99119 16.1827V13.8667L14.835 8.00973C15.1853 7.74814 15.2735 7.27205 15.0401 6.90237C14.8064 6.53269 14.3388 6.40778 13.9521 6.61174L4.52819 11.5813L2.30583 10.0642L19.233 3.94723L11.6539 16.4445Z" fill="white"/>
</g>
<defs>
<clipPath id="clip0">
<rect width="20.0391" height="20" fill="white" transform="translate(0.960938)"/>
</clipPath>
</defs>
</svg>
