<svg width="20" height="20" viewBox="0 0 20 20" fill="none" xmlns="http://www.w3.org/2000/svg">
<path d="M10.7535 4.31736C13.3954 4.4051 15.7728 6.84058 15.7406 9.42767C15.736 9.78445 16.0218 10.0767 16.378 10.0812C16.3806 10.0812 16.3838 10.0812 16.3864 10.0812C16.7386 10.0812 17.027 9.798 17.0315 9.4438C17.0728 6.13671 14.1593 3.1393 10.7967 3.02833C10.4444 2.9993 10.1425 3.29607 10.1302 3.65156C10.1186 4.00768 10.3973 4.30575 10.7535 4.31736Z" fill="white"/>
<path d="M10.602 6.46382C12.2453 6.65801 13.5717 8.03221 13.5588 9.52769C13.5556 9.88446 13.8421 10.1754 14.1982 10.1787C14.2001 10.1787 14.2021 10.1787 14.204 10.1787C14.5575 10.1787 14.8459 9.8935 14.8492 9.5393C14.8672 7.40511 13.0298 5.45092 10.753 5.18253C10.4014 5.13801 10.0788 5.3935 10.0369 5.74769C9.9956 6.10124 10.2485 6.42253 10.602 6.46382Z" fill="white"/>
<path d="M16.1142 12.4761L15.9284 12.3342C15.5897 12.0671 15.2355 11.8245 14.893 11.5903L14.6646 11.4336C14.0362 11.0013 13.4381 10.8348 12.8897 10.9394C12.3742 11.0374 11.9271 11.3632 11.5613 11.9065C11.4749 12.0336 11.393 12.1555 11.0188 11.989C10.3633 11.6981 9.79747 11.3297 9.33682 10.8942L8.20844 9.28646C8.01811 8.8413 8.12198 8.70775 8.38069 8.53549C8.70715 8.31742 9.38586 7.86388 9.33553 6.9542C9.28457 6.03613 7.47037 3.60968 6.60327 3.29807C6.20844 3.15549 5.79682 3.15226 5.3794 3.29162C4.43618 3.60323 3.75618 4.16259 3.41424 4.90968C3.0865 5.62581 3.10005 6.4542 3.45295 7.30323C5.25876 11.6529 8.48521 14.8336 13.0426 16.7574C13.2775 16.8568 13.5181 16.909 13.6775 16.9445L13.7865 16.969C13.8459 16.9852 13.9078 16.991 13.9691 16.991C15.2923 16.991 16.6407 15.8 17.0284 14.7219C17.4723 13.4923 16.622 12.8561 16.1142 12.4761ZM15.8136 14.2845C15.5671 14.9703 14.6813 15.6613 14.0226 15.6987C14.0007 15.6942 13.9775 15.689 13.9523 15.6832C13.8265 15.6555 13.6697 15.6213 13.5446 15.5684C9.30973 13.7807 6.31553 10.8329 4.64392 6.80775C4.43295 6.29871 4.41295 5.82839 4.58779 5.4471C4.77682 5.03484 5.19037 4.71291 5.78521 4.51678C5.86005 4.49226 5.92779 4.47936 5.99166 4.47936C6.04908 4.47936 6.10327 4.48968 6.15682 4.50968C6.60844 4.71742 7.96908 6.53742 8.04715 7.02646C8.0536 7.13162 8.02973 7.21871 7.66521 7.46194C7.17747 7.7871 6.44973 8.53162 7.05682 9.87226C7.07295 9.90904 7.09295 9.94323 7.11618 9.97613L8.31682 11.6871C8.34069 11.7206 8.36715 11.7523 8.39618 11.7807C8.9736 12.34 9.68005 12.8065 10.4942 13.1684C11.3594 13.5555 12.1388 13.3587 12.631 12.6284C12.7975 12.3806 12.9652 12.2394 13.1297 12.2077C13.3794 12.1607 13.7033 12.3394 13.9317 12.4968L14.1633 12.6555C14.4904 12.8787 14.8181 13.1026 15.1284 13.3477C15.1975 13.4026 15.2691 13.4555 15.34 13.509C15.8897 13.9206 15.9155 14.0026 15.8136 14.2845Z" fill="white"/>
<path d="M14.6348 0H5.36516C2.45677 0 0 2.45742 0 5.36516V14.6342C0 17.5426 2.45677 20 5.36516 20H14.6348C17.5426 20 20 17.5426 20 14.6335V5.36516C20 2.45742 17.5432 0 14.6348 0ZM18.7097 14.6335C18.7097 16.8426 16.8439 18.709 14.6348 18.709H5.36516C3.15677 18.709 1.29032 16.8432 1.29032 14.6335V5.36516C1.29032 3.15677 3.15677 1.29032 5.36516 1.29032H14.6348C16.8432 1.29032 18.7097 3.15613 18.7097 5.36516V14.6335Z" fill="white"/>
</svg>
