<?xml version="1.0" encoding="utf-8"?>
<!-- Generator: Adobe Illustrator 21.1.0, SVG Export Plug-In . SVG Version: 6.00 Build 0)  -->
<svg version="1.1" id="Слой_1" xmlns="http://www.w3.org/2000/svg" xmlns:xlink="http://www.w3.org/1999/xlink" x="0px" y="0px"
	 viewBox="0 0 373 112" style="enable-background:new 0 0 373 112;" xml:space="preserve">
<style type="text/css">
	.st0{fill:#FFFFFF;}
</style>
<g>
	<path class="st0" d="M1.9,74.4L122.6,1c3.2-1.9,7.3-0.9,9.2,2.2c0.7,1.1,1,2.3,1,3.5l0,0.4l0,62.6c0,4.6-3.7,8.3-8.3,8.3
		c-1.3,0-2.5-0.3-3.6-0.8l-0.6-0.3L90.5,62.7l13.5-3.7l-27.6,47.3c-3.1,5.2-9.8,7-15,4c-1.5-0.9-2.7-2-3.6-3.3l-0.5-0.8L3.9,26.7
		C-1.4,18.9,0.7,8.3,8.5,3C16.4-2.3,27-0.2,32.2,7.6c0.4,0.6,0.8,1.2,1.1,1.8L76.5,95l-19.1-0.1l29.2-46.3l0.4-0.6
		c2.8-4.5,8.7-5.8,13.2-3.1l28.2,17.2l-12.5,7.2l3.3-62.5l10.2,6.1L3.9,77.8c-1,0.5-2.2,0.1-2.7-0.9C0.7,76,1,74.9,1.9,74.4z"/>
	<g>
		<polygon class="st0" points="172.2,23.6 168.1,3.2 162.2,3.2 157.9,23.6 154.5,3.2 146.2,3.1 153.4,35.2 161.4,35.2 165.1,15.9 
			168.6,35.2 176.6,35.3 184.1,3.3 175.8,3.2 		"/>
		<polygon class="st0" points="186.6,35.3 205.9,35.4 205.9,28.6 194.4,28.6 194.4,22.5 205.6,22.5 205.6,15.7 194.5,15.7 
			194.5,10.1 206,10.1 206,3.3 186.7,3.3 		"/>
		<path class="st0" d="M228.3,18.9c3-0.7,5.3-3.3,5.3-7.3c0-4.1-2.7-8.2-8.7-8.2l-14.6-0.1l-0.1,32l15.1,0.1c6,0,8.8-4,8.8-8.7
			C234.1,22.8,231.6,19.5,228.3,18.9z M218,10.1l4.9,0c1.8,0,2.7,1.2,2.7,2.9c0,1.8-1,2.9-2.7,2.9l-4.9,0L218,10.1z M223.1,28.8
			l-5.1,0l0-6.2l5.1,0c1.9,0,3,1.3,3,3.1C226.1,27.7,225,28.8,223.1,28.8z"/>
	</g>
	<g>
		<path class="st0" d="M154.6,48.7c0-1.4,1.1-2.4,3-2.4c2.4,0,5,0.8,7,2.7l3.6-5.7c-2.6-2.4-6.2-3.7-10.3-3.7
			c-7.2,0-11.3,4.7-11.3,9.8c0,11.1,14.2,9.3,14.2,13.9c0,1.6-1.4,2.7-3.7,2.7c-3.1,0-5.9-1.4-7.8-3.4l-3.7,5.9
			c2.7,2.6,6.4,4.2,11.6,4.2c7.2,0,11.5-4.1,11.5-10.2C168.8,51.6,154.6,52.9,154.6,48.7z"/>
		<path class="st0" d="M185,39.6c-8.6,0-14,6.9-14,16.5c0,9.7,5.3,16.6,13.9,16.6s14-6.9,14-16.5C199,46.5,193.7,39.6,185,39.6z
			 M184.9,65.8c-3.9,0-6-4.2-6-9.7c0-5.6,2.2-9.7,6.1-9.7c3.9,0,6.1,4.1,6.1,9.7C191,61.7,188.9,65.8,184.9,65.8z"/>
		<polygon class="st0" points="210.6,40.2 202.8,40.1 202.7,72.2 220.8,72.2 220.8,65.5 210.5,65.4 		"/>
		<path class="st0" d="M241.8,61c0,3.2-1.7,5.1-4.7,5.1c-3.1,0-4.7-1.9-4.7-5.1l0.1-20.7l-7.8,0l-0.1,20.6c0,7.6,4.9,12,12.5,12
			c7.6,0,12.5-4.3,12.6-11.9l0.1-20.6l-7.8,0L241.8,61z"/>
		<polygon class="st0" points="253.2,47.1 260.1,47.1 260,72.4 267.8,72.4 267.9,47.1 274.7,47.2 274.7,40.4 253.2,40.3 		"/>
		
			<rect x="266" y="52.5" transform="matrix(3.501243e-03 -1 1 3.501243e-03 224.6198 338.2782)" class="st0" width="32" height="7.8"/>
		<path class="st0" d="M303.7,40c-8.6,0-14,6.9-14,16.5c0,9.7,5.3,16.6,13.9,16.6c8.6,0,14-6.9,14-16.5
			C317.7,46.9,312.3,40,303.7,40z M303.6,66.2c-3.9,0-6-4.2-6-9.7c0-5.6,2.2-9.7,6.1-9.7c3.9,0,6.1,4.1,6.1,9.7
			C309.7,62.1,307.6,66.2,303.6,66.2z"/>
		<polygon class="st0" points="338.5,56.7 329.4,40.6 321.5,40.6 321.4,72.6 329.1,72.6 329.2,55.8 338.8,72.6 346.2,72.7 
			346.3,40.6 338.6,40.6 		"/>
		<path class="st0" d="M358.2,49.4c0-1.4,1.1-2.4,3-2.4c2.4,0,5,0.8,7,2.7l3.6-5.7c-2.6-2.4-6.2-3.7-10.3-3.7
			c-7.2,0-11.3,4.7-11.3,9.8c0,11.1,14.2,9.3,14.2,13.9c0,1.6-1.4,2.7-3.7,2.7c-3.1,0-5.9-1.4-7.8-3.4l-3.7,5.9
			c2.7,2.6,6.4,4.2,11.6,4.2c7.2,0,11.5-4.1,11.5-10.2C372.4,52.4,358.2,53.6,358.2,49.4z"/>
	</g>
	<g>
		<polygon class="st0" points="146,109 153.8,109 153.8,96.1 165,96.2 165,89.4 153.8,89.4 153.9,83.8 165.4,83.8 165.4,77 
			146.1,77 		"/>
		<path class="st0" d="M176,77.1l-9.6,32l8.4,0l1.2-4.9l9.1,0l1.2,4.9l8.4,0l-9.3-32.1L176,77.1z M177.6,97.4l3.1-12.3l2.9,12.3
			L177.6,97.4z"/>
		<path class="st0" d="M209.8,83.5c2.4,0,4.1,1.8,4.9,4.3l6.4-2.7c-1.5-3.9-4.5-8.4-11.3-8.4c-8.7,0-14.1,6.7-14.2,16.5
			c0,9.7,5.4,16.6,14.1,16.6c6.8,0,9.9-4.8,11.4-8.7l-6.4-2.8c-0.7,2.6-2.5,4.6-5,4.6c-3.9,0-6.2-4.1-6.2-9.7
			C203.5,87.6,205.8,83.5,209.8,83.5z"/>
		<polygon class="st0" points="222.8,84 229.6,84 229.5,109.3 237.3,109.3 237.4,84.1 244.2,84.1 244.2,77.3 222.8,77.2 		"/>
		<path class="st0" d="M260.4,76.8c-8.6,0-14,6.9-14,16.5c0,9.7,5.3,16.6,13.9,16.6c8.6,0,14-6.9,14-16.5
			C274.3,83.8,269,76.9,260.4,76.8z M260.3,103.1c-3.9,0-6-4.2-6-9.7c0-5.6,2.2-9.7,6.1-9.7c3.9,0,6.1,4.2,6.1,9.7
			C266.4,98.9,264.2,103.1,260.3,103.1z"/>
		<path class="st0" d="M301.4,87.9c0-5.9-3.9-10.4-10.2-10.5l-13.1,0l-0.1,32l7.8,0l0-11l2.9,0l4.2,11l8.6,0l-5.4-12.4
			C298.6,96.1,301.4,93.4,301.4,87.9z M290,91.7l-4.1,0l0-7.5l4.1,0c2.1,0,3.5,1.4,3.5,3.8C293.5,90.3,292,91.7,290,91.7z"/>
		<polygon class="st0" points="321.7,77.6 316.5,89.5 311.2,77.5 302.7,77.5 312.6,96.6 312.5,109.6 320.3,109.6 320.3,96.6 
			330.2,77.6 		"/>
	</g>
</g>
</svg>
