<svg width="20" height="20" viewBox="0 0 20 20" fill="none" xmlns="http://www.w3.org/2000/svg">
<g clip-path="url(#clip0)">
<path d="M18.2942 -0.0390625H1.62766C0.70755 -0.0379944 -0.0379944 0.70755 -0.0390625 1.62766V18.2942C-0.0379944 19.2143 0.70755 19.9599 1.62766 19.9609H18.2942C19.2143 19.9599 19.9599 19.2143 19.9609 18.2942V1.62766C19.9599 0.70755 19.2143 -0.0379944 18.2942 -0.0390625V-0.0390625ZM1.62766 0.627594H18.2942C18.8466 0.627594 19.2943 1.07529 19.2943 1.62766V2.62756H0.627594V1.62766C0.627594 1.07529 1.07529 0.627594 1.62766 0.627594ZM18.2942 19.2943H1.62766C1.07529 19.2943 0.627594 18.8466 0.627594 18.2942V3.29422H19.2943V18.2942C19.2943 18.8466 18.8466 19.2943 18.2942 19.2943Z" fill="black"/>
<path d="M1.62769 1.29443H2.29434V1.96109H1.62769V1.29443Z" fill="black"/>
<path d="M2.96094 1.29443H3.62759V1.96109H2.96094V1.29443Z" fill="black"/>
<path d="M4.29419 1.29443H4.96085V1.96109H4.29419V1.29443Z" fill="black"/>
<path d="M14.0236 6.88299C11.8855 4.91201 8.64149 4.75912 6.32765 6.52029C6.17933 6.63397 6.03529 6.7536 5.89689 6.88299C3.45243 9.11825 3.28275 12.912 5.51801 15.3565C7.61793 17.6529 11.1252 17.9619 13.5943 16.0683C13.7427 15.9546 13.8865 15.835 14.0249 15.7056C16.461 13.4667 16.6209 9.67672 14.3818 7.24066C14.268 7.1166 14.1488 6.99758 14.0249 6.8836L14.0236 6.88299ZM13.7759 15.0077C13.483 14.7646 13.1676 14.5501 12.8338 14.367C13.1132 13.4798 13.2652 12.5576 13.2852 11.6277H15.2769C15.1964 12.8974 14.6638 14.0964 13.7759 15.0077ZM13.2329 15.5007C13.1816 15.541 13.1286 15.5781 13.0758 15.6164C12.9999 15.6713 12.9236 15.7253 12.8453 15.776C12.789 15.8123 12.7316 15.8463 12.6742 15.8806C12.5957 15.9273 12.5166 15.9723 12.4356 16.014C12.3762 16.0453 12.316 16.0753 12.2552 16.1043C12.1736 16.1437 12.0906 16.1803 12.007 16.2153C11.9502 16.2386 11.8933 16.262 11.8359 16.2819C12.1498 15.8912 12.4066 15.4575 12.5986 14.9943C12.8387 15.1305 13.0678 15.2854 13.2835 15.4574C13.2663 15.472 13.2503 15.4873 13.2329 15.5007ZM7.6663 16.1046C7.60618 16.076 7.54682 16.0462 7.48792 16.0154C7.40629 15.9723 7.32588 15.9267 7.24653 15.8794C7.19023 15.846 7.13392 15.8127 7.0799 15.7767C7.00056 15.7253 6.9232 15.6704 6.8466 15.6147C6.79456 15.577 6.74223 15.5404 6.69157 15.5007C6.67417 15.4874 6.6583 15.472 6.64091 15.4584C6.85591 15.2862 7.08402 15.131 7.32328 14.9944C7.51508 15.458 7.77189 15.8918 8.08592 16.283C8.029 16.2617 7.97224 16.2388 7.91593 16.2163C7.83155 16.1811 7.74793 16.144 7.66523 16.1046H7.6663ZM6.14591 7.58093C6.43888 7.824 6.75428 8.03854 7.08799 8.22164C6.8086 9.10879 6.65663 10.0312 6.63664 10.9611H4.64491C4.72547 9.69122 5.258 8.49218 6.14591 7.58093ZM6.68897 7.08807C6.74024 7.04763 6.79319 7.01071 6.84599 6.97225C6.92198 6.91732 6.99827 6.86331 7.07685 6.81265C7.13285 6.77633 7.19023 6.7423 7.24729 6.70828C7.32588 6.66174 7.40522 6.61642 7.48625 6.57507C7.5456 6.54363 7.60587 6.51373 7.6666 6.48474C7.74824 6.44537 7.83125 6.40859 7.91487 6.37365C7.97163 6.35031 8.02854 6.32696 8.08592 6.30697C7.77204 6.69775 7.51524 7.13125 7.32328 7.59435C7.08311 7.45825 6.85407 7.30337 6.63816 7.1314C6.65556 7.1166 6.67158 7.10134 6.68897 7.08807ZM12.2555 6.48397C12.3157 6.51266 12.375 6.54241 12.4339 6.57339C12.5155 6.61627 12.596 6.66204 12.6753 6.70934C12.7316 6.74261 12.7879 6.77603 12.8419 6.81204C12.9213 6.86331 12.9986 6.91824 13.0752 6.97393C13.1273 7.01162 13.1796 7.04824 13.2303 7.08792C13.2477 7.10134 13.2635 7.1166 13.2809 7.13033C13.0659 7.30261 12.8378 7.45764 12.5986 7.59435C12.4067 7.13079 12.1499 6.69683 11.8359 6.3056C11.8928 6.32696 11.9496 6.35 12.0059 6.37228C12.0903 6.40768 12.1739 6.4446 12.2566 6.48397H12.2555ZM9.62766 8.28039C9.0431 8.24423 8.46876 8.11163 7.92753 7.88793C8.35188 6.88268 8.9546 6.18627 9.62766 6.00958V8.28039ZM9.62766 8.94705V10.9611H7.30299C7.32618 10.132 7.46076 9.3099 7.70292 8.5166C8.31632 8.76531 8.96665 8.91012 9.62766 8.94537V8.94705ZM9.62766 11.6277V13.6434C8.9662 13.6783 8.3151 13.8233 7.70124 14.072C7.4597 13.2787 7.32572 12.4566 7.30299 11.6277H9.62766ZM9.62766 14.3084V16.579C8.95567 16.4023 8.35294 15.7061 7.92753 14.7007C8.46876 14.477 9.0431 14.3444 9.62766 14.3084ZM10.2942 14.3084C10.8787 14.3444 11.4531 14.477 11.9943 14.7007C11.57 15.7061 10.9672 16.4007 10.2942 16.579V14.3084ZM10.2942 13.6417V11.6277H12.6188C12.5961 12.4566 12.4621 13.2787 12.2206 14.072C11.6067 13.8233 10.9556 13.6783 10.2942 13.6434V13.6417ZM10.2942 10.9611V8.94537C10.9556 8.91027 11.6067 8.76547 12.2206 8.5166C12.4621 9.3099 12.5961 10.132 12.6188 10.9609H10.2942V10.9611ZM10.2942 8.28039V6.00973C10.9662 6.18627 11.5689 6.88268 11.9943 7.88809C11.4531 8.11163 10.8787 8.24423 10.2942 8.28039ZM6.63664 11.6277C6.65663 12.5576 6.8086 13.4798 7.08799 14.367C6.75413 14.5501 6.43873 14.7646 6.14591 15.0077C5.25785 14.0966 4.72532 12.8975 4.64491 11.6277H6.63664ZM13.2852 10.9611C13.2652 10.0312 13.1132 9.10879 12.8338 8.22164C13.1677 8.03854 13.4831 7.824 13.7759 7.58093C14.664 8.49203 15.1965 9.69122 15.2769 10.9609H13.2852V10.9611Z" fill="black"/>
</g>
<defs>
<clipPath id="clip0">
<rect width="20" height="20" fill="white"/>
</clipPath>
</defs>
</svg>
