<svg width="20" height="20" viewBox="0 0 20 20" fill="none" xmlns="http://www.w3.org/2000/svg">
<g clip-path="url(#clip0)">
<path d="M17.5585 2.38965H2.44569C1.09663 2.38965 0 3.48628 0 4.83534V15.1643C0 16.5134 1.09663 17.61 2.44569 17.61H17.5543C18.9034 17.61 20 16.5134 20 15.1643V4.83947C20.0041 3.49041 18.9075 2.38965 17.5585 2.38965ZM18.8868 15.1643C18.8868 15.8968 18.2909 16.4927 17.5585 16.4927H2.44569C1.71322 16.4927 1.11732 15.8968 1.11732 15.1643V4.83947C1.11732 4.10701 1.71322 3.51111 2.44569 3.51111H17.5543C18.2868 3.51111 18.8827 4.10701 18.8827 4.83947V15.1643H18.8868Z" fill="black"/>
<path d="M12.6135 9.87145L17.5049 5.48494C17.7325 5.27803 17.7532 4.92628 17.5463 4.69454C17.3393 4.46694 16.9876 4.44624 16.7559 4.65316L10.0106 10.7074L8.69461 9.53211C8.69047 9.52798 8.68634 9.52384 8.68634 9.5197C8.65737 9.49073 8.6284 9.4659 8.59529 9.44107L3.24044 4.64902C3.0087 4.44211 2.65695 4.4628 2.45004 4.69454C2.24313 4.92628 2.26382 5.27803 2.49556 5.48494L7.44487 9.90869L2.51625 14.5228C2.29279 14.7339 2.28038 15.0856 2.49143 15.3132C2.60316 15.4291 2.75213 15.4911 2.90111 15.4911C3.03767 15.4911 3.17423 15.4415 3.28182 15.3422L8.28493 10.6618L9.64226 11.8743C9.74986 11.9695 9.88228 12.015 10.0147 12.015C10.1471 12.015 10.2837 11.9654 10.3871 11.8702L11.7817 10.6205L16.7559 15.3463C16.8635 15.4498 17.0042 15.4994 17.1407 15.4994C17.2897 15.4994 17.4345 15.4415 17.5463 15.3256C17.7573 15.1022 17.749 14.7463 17.5256 14.5352L12.6135 9.87145Z" fill="black"/>
</g>
<defs>
<clipPath id="clip0">
<rect width="20" height="20" fill="white"/>
</clipPath>
</defs>
</svg>
