<svg width="54" height="54" viewBox="0 0 54 54" fill="none" xmlns="http://www.w3.org/2000/svg">
<path d="M53.516 1.14296C53.216 0.960964 52.842 0.952964 52.533 1.11596L36 9.86896L19.468 1.11596C19.455 1.10896 19.44 1.10696 19.427 1.10096C19.379 1.07796 19.33 1.06096 19.28 1.04596C19.252 1.03796 19.225 1.02896 19.197 1.02296C19.142 1.01196 19.086 1.00796 19.029 1.00596C19.004 1.00496 18.979 1.00196 18.953 1.00296C18.899 1.00596 18.846 1.01596 18.793 1.02796C18.763 1.03396 18.733 1.03796 18.704 1.04696C18.697 1.04896 18.69 1.04896 18.684 1.05096L0.684 7.05096C0.275 7.18696 0 7.56896 0 7.99996V51C0 51.321 0.154 51.623 0.416 51.812C0.588 51.935 0.793 52 1 52C1.106 52 1.213 51.983 1.316 51.948L18.962 46.066L35.619 52.925C35.633 52.931 35.649 52.929 35.663 52.934C35.773 52.973 35.885 53 36 53C36.09 53 36.179 52.985 36.266 52.961C36.294 52.953 36.32 52.94 36.348 52.93C36.388 52.915 36.43 52.904 36.468 52.884L53.468 43.884C53.795 43.711 54 43.37 54 43V1.99996C54 1.64896 53.816 1.32396 53.516 1.14296ZM2 8.72096L18 3.38796V30.38C17.57 30.458 17.146 30.546 16.736 30.654C16.202 30.796 15.884 31.343 16.026 31.877C16.145 32.325 16.549 32.621 16.992 32.621C17.076 32.621 17.163 32.61 17.249 32.588C17.489 32.524 17.751 32.492 18 32.44V44.28L2 49.612V8.72096ZM20 32.16C20.321 32.135 20.632 32.094 20.961 32.087C21.513 32.075 21.951 31.618 21.94 31.066C21.928 30.521 21.483 30.087 20.94 30.087C20.933 30.087 20.925 30.087 20.918 30.087C20.608 30.094 20.303 30.111 20 30.132V3.66096L35 11.602V32.796C34.286 32.765 33.56 32.681 32.799 32.534C32.255 32.427 31.732 32.783 31.627 33.325C31.522 33.867 31.877 34.392 32.419 34.497C33.305 34.669 34.165 34.753 35.001 34.786V50.507L20 44.33V32.16ZM52 42.397L37 50.338V34.678C37.372 34.509 37.62 34.129 37.587 33.698C37.558 33.324 37.318 33.024 37 32.877V11.602L52 3.66096V42.397Z" fill="black"/>
<path d="M11 9C8.243 9 6 11.243 6 14C6 16.415 7.721 18.434 10 18.899V21C10 21.553 10.448 22 11 22C11.552 22 12 21.553 12 21V18.899C14.279 18.434 16 16.415 16 14C16 11.243 13.757 9 11 9ZM11 17C9.346 17 8 15.654 8 14C8 12.346 9.346 11 11 11C12.654 11 14 12.346 14 14C14 15.654 12.654 17 11 17Z" fill="black"/>
<path d="M45.0701 27.6731C45.1901 27.7201 45.3131 27.7411 45.4341 27.7411C45.8341 27.7411 46.2111 27.5001 46.3661 27.1051C46.8361 25.9061 47.2131 24.5521 47.4891 23.0811C47.5911 22.5391 47.2331 22.0171 46.6901 21.9141C46.1441 21.8241 45.6251 22.1711 45.5231 22.7141C45.2711 24.0621 44.9281 25.2941 44.5041 26.3771C44.3031 26.8901 44.5561 27.4711 45.0701 27.6731Z" fill="black"/>
<path d="M12.805 32.3419C11.598 33.0989 10.51 34.0469 9.56999 35.1619C9.21399 35.5839 9.26799 36.2149 9.68999 36.5709C9.87799 36.7289 10.107 36.8059 10.334 36.8059C10.619 36.8059 10.901 36.6849 11.099 36.4509C11.905 35.4949 12.836 34.6819 13.867 34.0369C14.335 33.7429 14.476 33.1259 14.183 32.6579C13.89 32.1899 13.272 32.0479 12.805 32.3419Z" fill="black"/>
<path d="M8.62703 38.2761C8.12503 38.0461 7.53103 38.2631 7.30003 38.7651C6.27403 40.9911 6.02003 42.7881 6.00903 42.8641C5.93403 43.4111 6.31603 43.9141 6.86303 43.9891C6.90903 43.9961 6.95603 43.9991 7.00103 43.9991C7.49203 43.9991 7.92003 43.6371 7.99103 43.1381C7.99303 43.1221 8.22203 41.5411 9.11603 39.6041C9.34703 39.1011 9.12803 38.5081 8.62703 38.2761Z" fill="black"/>
<path d="M40.423 33.729C40.576 33.729 40.732 33.694 40.877 33.62C42.169 32.959 43.308 32.021 44.261 30.834C44.607 30.403 44.5379 29.773 44.1069 29.428C43.6769 29.085 43.047 29.152 42.701 29.582C41.925 30.549 41.005 31.308 39.966 31.839C39.474 32.091 39.2789 32.693 39.5309 33.185C39.7089 33.53 40.06 33.729 40.423 33.729Z" fill="black"/>
<path d="M29.1699 31.4319C28.7289 31.2469 28.4709 31.119 28.4539 31.11C28.3889 31.077 28.3199 31.0499 28.2489 31.0319C27.1659 30.7539 26.0989 30.5339 25.0759 30.3779C24.5309 30.2919 24.0199 30.6689 23.9359 31.2149C23.8529 31.7609 24.2279 32.2719 24.7739 32.3549C25.6999 32.4969 26.6669 32.6949 27.6509 32.9449C27.7849 33.0089 28.0409 33.1299 28.3989 33.2789C28.5249 33.3319 28.6559 33.3559 28.7839 33.3559C29.1749 33.3559 29.5469 33.126 29.7069 32.742C29.9199 32.2299 29.6799 31.6439 29.1699 31.4319Z" fill="black"/>
<path d="M46.923 19.931C46.945 19.932 46.966 19.933 46.988 19.933C47.511 19.933 47.951 19.527 47.985 18.996C48.047 18.035 48.078 17.018 48.078 15.976C48.078 15.629 48.075 15.277 48.068 14.918C48.058 14.365 47.578 13.945 47.05 13.936C46.498 13.946 46.058 14.402 46.068 14.954C46.074 15.301 46.078 15.642 46.078 15.976C46.078 16.976 46.048 17.949 45.989 18.869C45.954 19.42 46.372 19.895 46.923 19.931Z" fill="black"/>
<path d="M8.29301 28.707C8.48801 28.902 8.74401 29 9.00001 29C9.25601 29 9.51201 28.902 9.70701 28.707L11 27.414L12.293 28.707C12.488 28.902 12.744 29 13 29C13.256 29 13.512 28.902 13.707 28.707C14.098 28.316 14.098 27.684 13.707 27.293L12.414 26L13.707 24.707C14.098 24.316 14.098 23.684 13.707 23.293C13.316 22.902 12.684 22.902 12.293 23.293L11 24.586L9.70701 23.293C9.31601 22.902 8.68401 22.902 8.29301 23.293C7.90201 23.684 7.90201 24.316 8.29301 24.707L9.58601 26L8.29301 27.293C7.90201 27.683 7.90201 28.316 8.29301 28.707Z" fill="black"/>
</svg>
