<svg width="20" height="20" viewBox="0 0 20 20" fill="none" xmlns="http://www.w3.org/2000/svg">
<g clip-path="url(#clip0)">
<path d="M15.8062 12.3892C15.3967 11.9628 14.9028 11.7349 14.3794 11.7349C13.8602 11.7349 13.3621 11.9586 12.9358 12.385L11.6019 13.7146C11.4922 13.6555 11.3824 13.6007 11.2769 13.5458C11.1249 13.4698 10.9814 13.398 10.859 13.3221C9.60953 12.5285 8.47405 11.4943 7.38499 10.1562C6.85735 9.48926 6.50278 8.92785 6.24529 8.358C6.59142 8.04141 6.91223 7.71216 7.22459 7.39558C7.34278 7.27739 7.46097 7.15497 7.57917 7.03678C8.4656 6.15034 8.4656 5.00219 7.57917 4.11576L6.4268 2.96339C6.29594 2.83253 6.16086 2.69745 6.03423 2.56238C5.78096 2.30067 5.51503 2.03051 5.24066 1.77725C4.83121 1.37202 4.34155 1.15674 3.82658 1.15674C3.3116 1.15674 2.8135 1.37202 2.39139 1.77725C2.38717 1.78147 2.38717 1.78147 2.38295 1.78569L0.94776 3.23354C0.407455 3.77384 0.0993118 4.43234 0.0317737 5.19637C-0.0695336 6.42894 0.293484 7.57709 0.572079 8.32845C1.2559 10.1731 2.27742 11.8826 3.80125 13.7146C5.65011 15.9223 7.87465 17.6656 10.4158 18.894C11.3866 19.3541 12.6825 19.8986 14.1304 19.9915C14.219 19.9957 14.3119 19.9999 14.3963 19.9999C15.3714 19.9999 16.1903 19.6495 16.8319 18.9531C16.8361 18.9446 16.8446 18.9404 16.8488 18.9319C17.0683 18.666 17.3216 18.4254 17.5875 18.1679C17.769 17.9949 17.9547 17.8133 18.1362 17.6234C18.5541 17.1886 18.7736 16.6821 18.7736 16.1629C18.7736 15.6395 18.5499 15.1371 18.1236 14.715L15.8062 12.3892ZM17.3173 16.834C17.3131 16.834 17.3131 16.8383 17.3173 16.834C17.1527 17.0113 16.9839 17.1717 16.8024 17.349C16.528 17.6107 16.2494 17.8851 15.9877 18.1932C15.5613 18.6491 15.059 18.8644 14.4005 18.8644C14.3372 18.8644 14.2697 18.8644 14.2064 18.8602C12.9527 18.78 11.7876 18.2903 10.9139 17.8724C8.5247 16.7158 6.4268 15.0738 4.68347 12.9928C3.24406 11.2579 2.28164 9.65389 1.64425 7.93166C1.25168 6.8806 1.10816 6.0617 1.17148 5.28923C1.21369 4.79536 1.40364 4.38591 1.754 4.03555L3.19341 2.59615C3.40024 2.40197 3.61974 2.29645 3.83502 2.29645C4.10095 2.29645 4.31623 2.45685 4.4513 2.59192C4.45553 2.59615 4.45975 2.60037 4.46397 2.60459C4.72146 2.84519 4.96628 3.09424 5.22377 3.36017C5.35463 3.49525 5.4897 3.63032 5.62478 3.76962L6.77715 4.92199C7.22459 5.36943 7.22459 5.7831 6.77715 6.23055C6.65474 6.35296 6.53655 6.47537 6.41413 6.59356C6.05956 6.95658 5.72187 7.29427 5.35463 7.62352C5.34619 7.63196 5.33774 7.63618 5.33352 7.64463C4.9705 8.00764 5.03804 8.36222 5.11402 8.60282C5.11824 8.61549 5.12246 8.62815 5.12669 8.64081C5.42639 9.36685 5.8485 10.0507 6.49011 10.8654L6.49433 10.8696C7.65937 12.3048 8.88772 13.4234 10.2427 14.2803C10.4158 14.39 10.5931 14.4786 10.7619 14.5631C10.9139 14.6391 11.0574 14.7108 11.1798 14.7868C11.1967 14.7952 11.2136 14.8079 11.2304 14.8163C11.374 14.8881 11.509 14.9219 11.6483 14.9219C11.9987 14.9219 12.2182 14.7024 12.29 14.6306L13.7336 13.187C13.8771 13.0435 14.105 12.8704 14.371 12.8704C14.6327 12.8704 14.848 13.035 14.9788 13.1785C14.983 13.1828 14.983 13.1828 14.9873 13.187L17.3131 15.5128C17.7479 15.9434 17.7479 16.3866 17.3173 16.834Z" fill="black"/>
<path d="M10.8084 4.75741C11.9144 4.94314 12.919 5.46656 13.721 6.26857C14.523 7.07059 15.0422 8.07522 15.2322 9.18116C15.2786 9.45975 15.5192 9.65392 15.7936 9.65392C15.8273 9.65392 15.8569 9.6497 15.8907 9.64548C16.203 9.59483 16.4099 9.29935 16.3592 8.98699C16.1313 7.64888 15.4981 6.42898 14.5315 5.46234C13.5648 4.49569 12.3449 3.86252 11.0068 3.63458C10.6944 3.58393 10.4032 3.79076 10.3483 4.09891C10.2934 4.40705 10.4961 4.70675 10.8084 4.75741Z" fill="black"/>
<path d="M19.9769 8.82242C19.6012 6.61899 18.5628 4.61395 16.9672 3.01836C15.3716 1.42277 13.3666 0.384369 11.1631 0.00868772C10.855 -0.0461871 10.5637 0.16487 10.5088 0.473013C10.4582 0.785377 10.665 1.07664 10.9774 1.13151C12.9444 1.46498 14.7384 2.39785 16.1652 3.82037C17.5919 5.24712 18.5206 7.0411 18.854 9.00815C18.9005 9.28675 19.1411 9.48092 19.4154 9.48092C19.4492 9.48092 19.4788 9.4767 19.5125 9.47248C19.8207 9.42604 20.0317 9.13056 19.9769 8.82242Z" fill="black"/>
</g>
<defs>
<clipPath id="clip0">
<rect width="20" height="20" fill="white"/>
</clipPath>
</defs>
</svg>
