<svg width="20" height="20" viewBox="0 0 20 20" fill="none" xmlns="http://www.w3.org/2000/svg">
<path d="M9.99553 0C5.57624 0 1.97876 3.59748 1.97876 8.01677C1.97876 8.51992 2.02488 9.02725 2.12132 9.52201C2.12551 9.55136 2.14228 9.63941 2.17582 9.79036C2.29742 10.3312 2.47771 10.8637 2.71251 11.3711C3.57624 13.4046 5.47562 16.5283 9.64333 19.8742C9.74815 19.9581 9.87394 20 9.99972 20C10.1255 20 10.2513 19.9581 10.3561 19.8742C14.5196 16.5283 16.4232 13.4046 17.2869 11.3711C17.5217 10.8637 17.702 10.3354 17.8236 9.79036C17.8572 9.63941 17.8739 9.55136 17.8781 9.52201C17.9704 9.02725 18.0207 8.51992 18.0207 8.01677C18.0123 3.59748 14.4148 0 9.99553 0ZM16.7544 9.32495C16.7544 9.33333 16.7502 9.34172 16.7502 9.3501C16.7461 9.37107 16.7335 9.43396 16.7125 9.5304C16.7125 9.53459 16.7125 9.53459 16.7125 9.53878C16.6077 10.0084 16.4526 10.4654 16.2471 10.9057C16.2429 10.9099 16.2429 10.9182 16.2387 10.9224C15.4546 12.7799 13.7356 15.6143 9.99553 18.7044C6.25549 15.6143 4.53641 12.7799 3.75234 10.9224C3.74815 10.9182 3.74815 10.9099 3.74396 10.9057C3.5427 10.4696 3.38756 10.0084 3.27855 9.53878C3.27855 9.53459 3.27855 9.53459 3.27855 9.5304C3.25339 9.43396 3.24501 9.37107 3.24081 9.3501C3.24081 9.34172 3.23662 9.33333 3.23662 9.32075C3.15276 8.88889 3.11084 8.45283 3.11084 8.01258C3.11084 4.21803 6.20098 1.12788 9.99553 1.12788C13.7901 1.12788 16.8802 4.21803 16.8802 8.01258C16.8802 8.45702 16.8383 8.89727 16.7544 9.32495Z" fill="black"/>
<path d="M9.99566 3.01465C7.19063 3.01465 4.90552 5.29976 4.90552 8.10479C4.90552 10.9098 7.19063 13.1949 9.99566 13.1949C12.8007 13.1949 15.0858 10.9098 15.0858 8.10479C15.0858 5.29976 12.8007 3.01465 9.99566 3.01465ZM9.99566 12.0629C7.81118 12.0629 6.03759 10.2851 6.03759 8.10479C6.03759 5.9245 7.81537 4.14672 9.99566 4.14672C12.176 4.14672 13.9537 5.9245 13.9537 8.10479C13.9537 10.2851 12.1801 12.0629 9.99566 12.0629Z" fill="black"/>
</svg>
