<svg width="60" height="60" viewBox="0 0 60 60" fill="none" xmlns="http://www.w3.org/2000/svg">
<path d="M59 58H53V25C53 24.4478 52.5522 24 52 24H38V1C38 0.44775 37.5522 0 37 0H11C10.4478 0 10 0.44775 10 1V58H1C0.44775 58 0 58.4478 0 59C0 59.5522 0.44775 60 1 60H59C59.5522 60 60 59.5522 60 59C60 58.4478 59.5522 58 59 58ZM21 58H17V49C17 48.4478 17.4478 48 18 48H20C20.5522 48 21 48.4478 21 49V58ZM25 25V58H23V49C23 47.3431 21.6569 46 20 46H18C16.3431 46 15 47.3431 15 49V58H12V2H36V24H26C25.4478 24 25 24.4478 25 25ZM51 58H27V26H51V58Z" fill="black"/>
<path d="M32 14H26C25.4477 14 25 14.4477 25 15V21C25 21.5522 25.4477 22 26 22H32C32.5522 22 33 21.5522 33 21V15C33 14.4477 32.5522 14 32 14ZM31 20H27V16H31V20Z" fill="black"/>
<path d="M32 4H26C25.4477 4 25 4.44775 25 5V11C25 11.5522 25.4477 12 26 12H32C32.5522 12 33 11.5522 33 11V5C33 4.44775 32.5522 4 32 4ZM31 10H27V6H31V10Z" fill="black"/>
<path d="M22 14H16C15.4477 14 15 14.4477 15 15V21C15 21.5522 15.4477 22 16 22H22C22.5522 22 23 21.5522 23 21V15C23 14.4477 22.5522 14 22 14ZM21 20H17V16H21V20Z" fill="black"/>
<path d="M22 4H16C15.4477 4 15 4.44775 15 5V11C15 11.5522 15.4477 12 16 12H22C22.5522 12 23 11.5522 23 11V5C23 4.44775 22.5522 4 22 4ZM21 10H17V6H21V10Z" fill="black"/>
<path d="M22 24H16C15.4477 24 15 24.4477 15 25V31C15 31.5522 15.4477 32 16 32H22C22.5522 32 23 31.5522 23 31V25C23 24.4477 22.5522 24 22 24ZM21 30H17V26H21V30Z" fill="black"/>
<path d="M22 34H16C15.4477 34 15 34.4477 15 35V41C15 41.5522 15.4477 42 16 42H22C22.5522 42 23 41.5522 23 41V35C23 34.4477 22.5522 34 22 34ZM21 40H17V36H21V40Z" fill="black"/>
<path d="M41 46H47C47.5522 46 48 45.5522 48 45V39C48 38.4477 47.5522 38 47 38H41C40.4477 38 40 38.4477 40 39V45C40 45.5522 40.4477 46 41 46ZM42 40H46V44H42V40Z" fill="black"/>
<path d="M41 36H47C47.5522 36 48 35.5522 48 35V29C48 28.4477 47.5522 28 47 28H41C40.4477 28 40 28.4477 40 29V35C40 35.5522 40.4477 36 41 36ZM42 30H46V34H42V30Z" fill="black"/>
<path d="M41 56H47C47.5522 56 48 55.5522 48 55V49C48 48.4477 47.5522 48 47 48H41C40.4477 48 40 48.4477 40 49V55C40 55.5522 40.4477 56 41 56ZM42 50H46V54H42V50Z" fill="black"/>
<path d="M31 46H37C37.5522 46 38 45.5522 38 45V39C38 38.4477 37.5522 38 37 38H31C30.4477 38 30 38.4477 30 39V45C30 45.5522 30.4477 46 31 46ZM32 40H36V44H32V40Z" fill="black"/>
<path d="M31 36H37C37.5522 36 38 35.5522 38 35V29C38 28.4477 37.5522 28 37 28H31C30.4477 28 30 28.4477 30 29V35C30 35.5522 30.4477 36 31 36ZM32 30H36V34H32V30Z" fill="black"/>
<path d="M31 56H37C37.5522 56 38 55.5522 38 55V49C38 48.4477 37.5522 48 37 48H31C30.4477 48 30 48.4477 30 49V55C30 55.5522 30.4477 56 31 56ZM32 50H36V54H32V50Z" fill="black"/>
</svg>
