<svg width="60" height="60" viewBox="0 0 60 60" fill="none" xmlns="http://www.w3.org/2000/svg">
<g clip-path="url(#clip0)">
<path d="M59.2818 20.8827L15.1181 4.52088C14.5532 4.31214 13.9256 4.60099 13.7174 5.16632C13.7169 5.16678 13.7169 5.16724 13.7164 5.1677L8.82753 18.4754C8.6197 19.0407 8.90947 19.6678 9.4748 19.8757H9.47572L14.5949 21.7552L13.467 24.8282C13.2596 25.3936 13.5494 26.0198 14.1147 26.2276L24.3549 29.9872L23.6023 32.0357C22.9184 33.8704 23.5565 35.9359 25.1569 37.0643V42.6307H10.4801C9.76961 41.0065 8.31575 39.8273 6.57945 39.4675V37.1769C6.57945 36.5744 6.09147 36.086 5.48859 36.086H1.09085C0.488434 36.086 0 36.5744 0 37.1769V54.6291C0 55.232 0.488434 55.72 1.09085 55.72H5.48859C6.09147 55.72 6.57945 55.232 6.57945 54.6291V52.3389C8.31575 51.9787 9.76961 50.7999 10.4801 49.1753H25.1569V50.2662C25.1569 52.0734 26.6217 53.5387 28.429 53.5387C30.2362 53.5387 31.7015 52.0734 31.7015 50.2662V38.1826C32.6931 37.6909 33.4589 36.8381 33.8407 35.799L34.5932 33.7505L43.809 37.132C43.9293 37.1764 44.0561 37.1988 44.1843 37.1988C44.6416 37.1988 45.0509 36.9136 45.2088 36.4843L45.6176 35.3705C49.1671 36.0384 52.5857 33.7024 53.2531 30.1534C53.4998 28.8419 53.3396 27.4864 52.794 26.2688L59.4064 22.8736C59.9424 22.5989 60.1543 21.9416 59.8797 21.4055C59.7552 21.162 59.5437 20.9743 59.2873 20.8795L59.2818 20.8827ZM27.3381 38.0581L28.2413 38.3854C28.6524 38.5328 29.0836 38.6174 29.5198 38.6362V42.6307H27.3381V38.0581ZM4.3982 53.5387H2.1817V38.2677H4.3982V53.5387ZM8.76115 46.9941C8.75932 48.3802 7.88591 49.6157 6.57945 50.0799V41.7266C7.88591 42.1903 8.75932 43.4258 8.76115 44.8124V46.9941ZM10.9767 44.8124H29.5198V46.9941H10.9767V44.8124ZM28.429 51.357C27.8266 51.357 27.3381 50.8686 27.3381 50.2662V49.1753H29.5198V50.2662C29.5198 50.8686 29.0314 51.357 28.429 51.357ZM32.5457 32.9993L31.7931 35.0478C31.3775 36.1776 30.1246 36.7571 28.9939 36.3424L26.9422 35.5907C25.8115 35.1755 25.2311 33.9222 25.6462 32.791C25.6462 32.791 25.6462 32.791 25.6462 32.7906L26.3993 30.7434L31.9281 32.7732L32.5457 32.9993ZM43.5375 34.7118L15.8904 24.5595L16.6434 22.511L33.0259 28.5269C33.4136 28.6679 33.8485 28.5796 34.1501 28.2976L37.2112 25.416L45.7934 28.5681L43.5375 34.7118ZM50.9125 30.4486C50.2213 32.3122 48.3623 33.4768 46.3843 33.2849L48.0698 28.6936L50.8228 27.2759C51.2536 28.2839 51.2856 29.4182 50.9125 30.4486ZM47.2307 26.6771C47.1731 26.6822 47.1158 26.6922 47.0595 26.7073L37.3343 23.1363C36.9466 22.994 36.5117 23.0823 36.2105 23.3652L33.1458 26.2473L11.2514 18.2071L15.3868 6.94703L56.1993 22.0674L47.2307 26.6771Z" fill="#1E2433"/>
<path d="M20.1948 19.1666L20.9465 17.1185L22.9945 17.8706L22.2424 19.9187L20.1948 19.1666Z" fill="#1E2433"/>
<path d="M24.2906 20.6704L25.0423 18.6223L27.0903 19.3744L26.3382 21.422L24.2906 20.6704Z" fill="#1E2433"/>
<path d="M28.3859 22.175L29.138 20.127L31.1856 20.8791L30.4334 22.9271L28.3859 22.175Z" fill="#1E2433"/>
</g>
<defs>
<clipPath id="clip0">
<rect width="60" height="60" fill="white"/>
</clipPath>
</defs>
</svg>
