<svg width="60" height="60" viewBox="0 0 60 60" fill="none" xmlns="http://www.w3.org/2000/svg">
<path d="M44.0625 44.0625H33.75C33.5014 44.0625 33.2629 44.1613 33.0871 44.3371C32.9113 44.5129 32.8125 44.7514 32.8125 45V50.625C32.8125 51.3709 33.1088 52.0863 33.6363 52.6137C34.1637 53.1412 34.8791 53.4375 35.625 53.4375H39.375C40.1209 53.4375 40.8363 53.1412 41.3637 52.6137C41.8912 52.0863 42.1875 51.3709 42.1875 50.625V49.6875H44.0625C44.5598 49.6875 45.0367 49.49 45.3883 49.1383C45.74 48.7867 45.9375 48.3098 45.9375 47.8125V45.9375C45.9375 45.4402 45.74 44.9633 45.3883 44.6117C45.0367 44.26 44.5598 44.0625 44.0625 44.0625ZM40.3125 50.625C40.3125 50.8736 40.2137 51.1121 40.0379 51.2879C39.8621 51.4637 39.6236 51.5625 39.375 51.5625H35.625C35.3764 51.5625 35.1379 51.4637 34.9621 51.2879C34.7863 51.1121 34.6875 50.8736 34.6875 50.625V45.9375H40.3125V50.625ZM42.1875 47.8125V45.9375H44.0625V47.8125H42.1875Z" fill="#1E2433"/>
<path d="M44.0625 39.375H40.3125C39.8152 39.375 39.3383 39.5725 38.9867 39.9242C38.635 40.2758 38.4375 40.7527 38.4375 41.25V42.1875H40.3125V41.25H44.0625C44.5598 41.25 45.0367 41.0525 45.3883 40.7008C45.74 40.3492 45.9375 39.8723 45.9375 39.375V37.5H44.0625V39.375Z" fill="#1E2433"/>
<path d="M36.5625 39.375C36.5625 39.1264 36.6613 38.8879 36.8371 38.7121C37.0129 38.5363 37.2514 38.4375 37.5 38.4375H40.3125C40.8098 38.4375 41.2867 38.24 41.6383 37.8883C41.99 37.5367 42.1875 37.0598 42.1875 36.5625V34.6875H40.3125V36.5625H37.5C36.7541 36.5625 36.0387 36.8588 35.5113 37.3863C34.9838 37.9137 34.6875 38.6291 34.6875 39.375V41.25H36.5625V39.375Z" fill="#1E2433"/>
<path d="M30.9375 8.4375H29.0625V10.3125H30.9375V8.4375Z" fill="#1E2433"/>
<path d="M34.6875 8.4375H32.8125V10.3125H34.6875V8.4375Z" fill="#1E2433"/>
<path d="M27.1875 8.4375H25.3125V10.3125H27.1875V8.4375Z" fill="#1E2433"/>
<path d="M53.4375 56.25V33.6563C54.4956 33.4387 55.4462 32.863 56.1293 32.0262C56.8124 31.1894 57.1861 30.1427 57.1875 29.0625V23.4375C57.1891 23.2924 57.157 23.149 57.0938 23.0184L51.4688 11.7684C51.3905 11.6119 51.27 11.4803 51.1209 11.3887C50.9718 11.2971 50.8 11.249 50.625 11.25H46.875V2.8125C46.875 2.56386 46.7762 2.3254 46.6004 2.14959C46.4246 1.97377 46.1861 1.875 45.9375 1.875H14.0625C13.8139 1.875 13.5754 1.97377 13.3996 2.14959C13.2238 2.3254 13.125 2.56386 13.125 2.8125V11.25H9.375C9.20078 11.2499 9.02999 11.2984 8.88178 11.39C8.73357 11.4815 8.61381 11.6126 8.53594 11.7684L2.91094 23.0184C2.84607 23.1486 2.81236 23.2921 2.8125 23.4375V29.0625C2.81386 30.1427 3.18758 31.1894 3.87067 32.0262C4.55376 32.863 5.50445 33.4387 6.5625 33.6563V56.25H1.875V58.125H58.125V56.25H53.4375ZM55.3125 29.0625C55.3125 29.8084 55.0162 30.5238 54.4887 31.0512C53.9613 31.5787 53.2459 31.875 52.5 31.875C51.7541 31.875 51.0387 31.5787 50.5113 31.0512C49.9838 30.5238 49.6875 29.8084 49.6875 29.0625V28.125H55.3125V29.0625ZM47.8125 29.0625C47.8125 29.8084 47.5162 30.5238 46.9887 31.0512C46.4613 31.5787 45.7459 31.875 45 31.875C44.2541 31.875 43.5387 31.5787 43.0113 31.0512C42.4838 30.5238 42.1875 29.8084 42.1875 29.0625V28.125H47.8125V29.0625ZM40.3125 29.0625C40.3125 29.8084 40.0162 30.5238 39.4887 31.0512C38.9613 31.5787 38.2459 31.875 37.5 31.875C36.7541 31.875 36.0387 31.5787 35.5113 31.0512C34.9838 30.5238 34.6875 29.8084 34.6875 29.0625V28.125H40.3125V29.0625ZM32.8125 29.0625C32.8125 29.8084 32.5162 30.5238 31.9887 31.0512C31.4613 31.5787 30.7459 31.875 30 31.875C29.2541 31.875 28.5387 31.5787 28.0113 31.0512C27.4838 30.5238 27.1875 29.8084 27.1875 29.0625V28.125H32.8125V29.0625ZM25.3125 29.0625C25.3125 29.8084 25.0162 30.5238 24.4887 31.0512C23.9613 31.5787 23.2459 31.875 22.5 31.875C21.7541 31.875 21.0387 31.5787 20.5113 31.0512C19.9838 30.5238 19.6875 29.8084 19.6875 29.0625V28.125H25.3125V29.0625ZM17.8125 29.0625C17.8125 29.8084 17.5162 30.5238 16.9887 31.0512C16.4613 31.5787 15.7459 31.875 15 31.875C14.2541 31.875 13.5387 31.5787 13.0113 31.0512C12.4838 30.5238 12.1875 29.8084 12.1875 29.0625V28.125H17.8125V29.0625ZM4.6875 24.375H55.3125V26.25H4.6875V24.375ZM15 3.75H45V15H15V3.75ZM9.95438 13.125H13.125V15.9375C13.125 16.1861 13.2238 16.4246 13.3996 16.6004C13.5754 16.7762 13.8139 16.875 14.0625 16.875H45.9375C46.1861 16.875 46.4246 16.7762 46.6004 16.6004C46.7762 16.4246 46.875 16.1861 46.875 15.9375V13.125H50.0456L54.7331 22.5H5.26688L9.95438 13.125ZM4.6875 29.0625V28.125H10.3125V29.0625C10.3125 29.8084 10.0162 30.5238 9.48874 31.0512C8.96129 31.5787 8.24592 31.875 7.5 31.875C6.75408 31.875 6.03871 31.5787 5.51126 31.0512C4.98382 30.5238 4.6875 29.8084 4.6875 29.0625ZM14.0625 56.25V39.375H25.3125V56.25H14.0625ZM27.1875 56.25V38.4375C27.1875 38.1889 27.0887 37.9504 26.9129 37.7746C26.7371 37.5988 26.4986 37.5 26.25 37.5H13.125C12.8764 37.5 12.6379 37.5988 12.4621 37.7746C12.2863 37.9504 12.1875 38.1889 12.1875 38.4375V56.25H8.4375V33.6563C9.56578 33.4199 10.5672 32.7757 11.25 31.8469C11.6812 32.437 12.2455 32.917 12.8971 33.2479C13.5487 33.5788 14.2692 33.7512 15 33.7512C15.7308 33.7512 16.4513 33.5788 17.1029 33.2479C17.7545 32.917 18.3188 32.437 18.75 31.8469C19.1812 32.437 19.7455 32.917 20.3971 33.2479C21.0487 33.5788 21.7692 33.7512 22.5 33.7512C23.2308 33.7512 23.9513 33.5788 24.6029 33.2479C25.2545 32.917 25.8188 32.437 26.25 31.8469C26.6812 32.437 27.2455 32.917 27.8971 33.2479C28.5487 33.5788 29.2692 33.7512 30 33.7512C30.7308 33.7512 31.4513 33.5788 32.1029 33.2479C32.7545 32.917 33.3188 32.437 33.75 31.8469C34.1812 32.437 34.7455 32.917 35.3971 33.2479C36.0487 33.5788 36.7692 33.7512 37.5 33.7512C38.2308 33.7512 38.9513 33.5788 39.6029 33.2479C40.2545 32.917 40.8188 32.437 41.25 31.8469C41.6812 32.437 42.2455 32.917 42.8971 33.2479C43.5487 33.5788 44.2692 33.7512 45 33.7512C45.7308 33.7512 46.4513 33.5788 47.1029 33.2479C47.7545 32.917 48.3188 32.437 48.75 31.8469C49.4328 32.7757 50.4342 33.4199 51.5625 33.6563V56.25H27.1875Z" fill="#1E2433"/>
</svg>
