<svg width="45" height="45" viewBox="0 0 45 45" fill="none" xmlns="http://www.w3.org/2000/svg">
<path d="M42.0508 27.5206L30.3128 15.7826C31.1952 14.2432 31.6376 12.5145 31.6376 10.7851C31.6376 5.28096 27.1004 0.743763 21.5963 0.743763C20.2766 0.743763 19.0155 0.978598 17.8127 1.49887C16.2433 0.548451 14.4064 0 12.4475 0C6.72028 0 2.0343 4.68598 2.0343 10.4132C2.0343 14.2472 4.13444 17.6142 7.24091 19.4215V40.5372C7.24091 40.7603 7.31526 40.9834 7.53839 41.1322L12.0012 44.8512C12.0756 44.9256 12.2987 45 12.4475 45C12.5963 45 12.8194 44.9256 12.8194 44.8512L17.2823 41.1322C17.5054 40.9834 17.5798 40.7603 17.5798 40.5372V39.0495C17.5798 38.8264 17.5054 38.6776 17.3566 38.5289L14.9021 36.0744L16.9848 33.9917C17.2823 33.6942 17.2823 33.248 16.9848 32.9504L14.9021 30.8677L15.4959 30.274L27.398 42.2478C27.9931 42.7684 28.6625 43.066 29.4062 43.1404C29.4062 43.1404 29.4806 43.1404 29.555 43.1404C30.2988 43.1404 30.9683 42.9172 31.4146 42.3966L42.1997 31.5371C43.3153 30.4959 43.1665 28.6364 42.0508 27.5206ZM21.5963 2.23138C26.2823 2.23138 30.1501 6.09916 30.1501 10.7851C30.1501 12.1396 29.8226 13.4934 29.2068 14.7001C28.3214 13.9491 27.2539 13.5008 26.1336 13.3141L22.6109 12.7803C22.786 11.9913 22.8609 11.2023 22.8609 10.4133C22.8609 7.29212 21.469 4.48048 19.2755 2.56768C20.0319 2.34986 20.7993 2.23138 21.5963 2.23138ZM3.52192 10.4132C3.52192 5.50409 7.53848 1.48761 12.4475 1.48761C17.3565 1.48761 21.3731 5.50418 21.3731 10.4132C21.3731 11.126 21.3033 11.8388 21.1012 12.5515L16.3153 11.8264C15.2608 11.7092 14.2534 11.9165 13.4365 12.4453C13.3248 11.8819 13.2657 11.302 13.2657 10.7107C13.2657 10.5728 13.2657 10.435 13.2657 10.2971C14.5074 9.93938 15.4227 8.79072 15.4227 7.43798C15.4227 5.80158 14.0839 4.46275 12.4475 4.46275C10.8111 4.46275 9.47228 5.80158 9.47228 7.43798C9.47228 8.8228 10.4313 9.99432 11.7179 10.3218C11.7042 10.4705 11.7037 10.6158 11.7037 10.7851C11.7037 11.8259 11.8607 12.8453 12.1567 13.8158C11.83 14.3949 11.6493 15.0546 11.6482 15.7508C11.6432 16.0005 11.6609 16.255 11.7037 16.5124L11.9826 18.2788L12.1432 19.3385C7.38597 19.1862 3.52192 15.2456 3.52192 10.4132ZM13.9351 7.43798C13.9351 7.84881 13.7661 8.22198 13.4945 8.49191C13.6008 8.0568 13.7419 7.63383 13.9182 7.22619C13.9282 7.29558 13.9351 7.36594 13.9351 7.43798ZM11.9412 8.83441C11.3707 8.62589 10.96 8.07833 10.96 7.43798C10.96 6.61978 11.6294 5.95037 12.4476 5.95037C12.6006 5.95037 12.7483 5.97385 12.8874 6.01719C12.4474 6.90415 12.1317 7.84979 11.9412 8.83441ZM15.4971 33.4711L13.4144 35.5538C13.1169 35.8513 13.1169 36.2975 13.4144 36.5951L16.1665 39.3472V40.1654L12.4475 43.2893L8.72852 40.1654H8.80287V20.5289C9.25287 20.7089 9.72741 20.852 10.2161 20.9594V38.8265C10.2161 39.2728 10.5136 39.5703 10.9599 39.5703C11.4062 39.5703 11.7037 39.1983 11.7037 38.8265V21.1722C11.9434 21.1889 12.1841 21.1976 12.4249 21.1981L13.1913 26.2562C13.2116 26.3777 13.2367 26.4983 13.2642 26.6184L13.2656 26.6281C13.4144 27.595 13.7863 28.562 14.3813 29.3802L13.4144 30.3471C13.1169 30.6446 13.1169 31.0908 13.4144 31.3884L15.4971 33.4711ZM41.1583 30.4959L30.3731 41.281C30.15 41.5041 29.8525 41.5785 29.4806 41.5785C29.1087 41.5785 28.7368 41.4297 28.4393 41.1322L16.0922 28.7851C15.3484 28.0414 14.8277 27.0744 14.6789 26.033L13.7793 20.0954C13.7861 20.019 13.7863 19.9393 13.7863 19.8595L13.2749 16.28C14.1637 17.7069 15.403 18.9264 16.9236 19.8068C16.9151 19.8977 16.9103 19.9896 16.9103 20.0827C16.9103 21.7191 18.2491 23.0579 19.8855 23.0579C21.5219 23.0579 22.8607 21.7191 22.8607 20.0827C22.8607 18.4463 21.5219 17.1074 19.8855 17.1074C18.921 17.1074 18.0602 17.5728 17.5157 18.2898C15.8711 17.2602 14.6286 15.7862 13.9242 14.0695C13.928 14.0657 13.9314 14.0616 13.9351 14.0579C14.1156 13.8773 14.3326 13.7245 14.5723 13.6069C14.9059 13.4615 15.2638 13.3884 15.6459 13.3884C15.7947 13.3884 15.9434 13.3884 16.0178 13.3884L16.968 13.5324L21.522 14.2811C21.6041 14.2811 21.6824 14.2734 21.7566 14.258L25.836 14.8761C26.8774 15.0249 27.8443 15.5456 28.5881 16.2894L41.0096 28.6365C41.5302 29.157 41.6046 30.0496 41.1583 30.4959ZM20.9402 21.1288C20.6703 21.4009 20.2968 21.5703 19.8855 21.5703C19.2231 21.5703 18.6585 21.1314 18.4674 20.5302C19.2649 20.8257 20.0969 21.0297 20.9402 21.1288ZM18.8842 18.9873C19.1492 18.7447 19.5003 18.595 19.8856 18.595C20.5307 18.595 21.0819 19.012 21.2868 19.5892C20.4696 19.5045 19.6747 19.3039 18.8842 18.9873Z" fill="black"/>
<path d="M33.7947 32.2066L29.0344 36.967C28.7369 37.2644 28.7369 37.7107 29.0344 38.0083C29.1832 38.1571 29.3319 38.2314 29.555 38.2314C29.7782 38.2314 29.9269 38.1571 30.0756 38.0083L34.836 33.248C35.1335 32.9505 35.1335 32.5042 34.836 32.2066C34.5386 31.9091 34.0923 31.9091 33.7947 32.2066Z" fill="black"/>
<path d="M30.9682 32.2066C30.6707 31.9091 30.2244 31.9091 29.9268 32.2066L26.8028 35.3306C26.5053 35.6281 26.5053 36.0744 26.8028 36.372C26.9516 36.5208 27.1003 36.5951 27.3235 36.5951C27.5466 36.5951 27.6954 36.5208 27.8441 36.4463L30.968 33.248C31.2657 32.9504 31.2657 32.5041 30.9682 32.2066Z" fill="black"/>
<path d="M30.3732 28.4877C30.0757 28.1902 29.6294 28.1902 29.3318 28.4877L24.5715 33.248C24.274 33.5455 24.274 33.9918 24.5715 34.2894C24.7203 34.4382 24.869 34.5125 25.0921 34.5125C25.3153 34.5125 25.4641 34.4382 25.6128 34.2894L30.3731 29.529C30.6707 29.2315 30.6707 28.7852 30.3732 28.4877Z" fill="black"/>
</svg>
