<svg width="60" height="60" viewBox="0 0 60 60" fill="none" xmlns="http://www.w3.org/2000/svg">
<path d="M51.5625 37.5C53.3024 37.498 54.9704 36.806 56.2007 35.5757C57.431 34.3454 58.123 32.6774 58.125 30.9375V8.4375C58.123 6.69763 57.431 5.02958 56.2007 3.7993C54.9704 2.56903 53.3024 1.87699 51.5625 1.875H38.4375C36.6976 1.87699 35.0296 2.56903 33.7993 3.7993C32.569 5.02958 31.877 6.69763 31.875 8.4375V30.9375C31.877 32.6774 32.569 34.3454 33.7993 35.5757C35.0296 36.806 36.6976 37.498 38.4375 37.5H42.1875V52.5H38.4375C37.6916 52.5 36.9762 52.7963 36.4488 53.3238C35.9213 53.8512 35.625 54.5666 35.625 55.3125V56.25C35.625 56.7473 35.8225 57.2242 36.1742 57.5758C36.5258 57.9275 37.0027 58.125 37.5 58.125H56.25C56.7473 58.125 57.2242 57.9275 57.5758 57.5758C57.9275 57.2242 58.125 56.7473 58.125 56.25V55.3125C58.125 54.5666 57.8287 53.8512 57.3012 53.3238C56.7738 52.7963 56.0584 52.5 55.3125 52.5H55.2459C55.0184 50.9389 54.2371 49.5117 53.0445 48.479C51.8519 47.4463 50.3276 46.877 48.75 46.875C48.4361 46.8768 48.1228 46.9016 47.8125 46.9491V37.5H51.5625ZM38.4375 35.625C37.1948 35.6235 36.0033 35.1292 35.1246 34.2504C34.2458 33.3717 33.7515 32.1802 33.75 30.9375V8.4375C33.7515 7.19475 34.2458 6.00334 35.1246 5.12458C36.0033 4.24583 37.1948 3.75149 38.4375 3.75H51.5625C52.8052 3.75149 53.9967 4.24583 54.8754 5.12458C55.7542 6.00334 56.2485 7.19475 56.25 8.4375V30.9375C56.2485 32.1802 55.7542 33.3717 54.8754 34.2504C53.9967 35.1292 52.8052 35.6235 51.5625 35.625H47.8125V19.6875C47.8125 19.4389 47.7137 19.2004 47.5379 19.0246C47.3621 18.8488 47.1236 18.75 46.875 18.75H43.125C42.8764 18.75 42.6379 18.8488 42.4621 19.0246C42.2863 19.2004 42.1875 19.4389 42.1875 19.6875V35.625H38.4375ZM45.9375 35.625H44.0625V20.625H45.9375V35.625ZM53.4375 53.4375C53.4375 53.6861 53.5363 53.9246 53.7121 54.1004C53.8879 54.2762 54.1264 54.375 54.375 54.375H55.3125C55.5611 54.375 55.7996 54.4738 55.9754 54.6496C56.1512 54.8254 56.25 55.0639 56.25 55.3125V56.25H37.5V55.3125C37.5 55.0639 37.5988 54.8254 37.7746 54.6496C37.9504 54.4738 38.1889 54.375 38.4375 54.375H43.125C43.3736 54.375 43.6121 54.2762 43.7879 54.1004C43.9637 53.9246 44.0625 53.6861 44.0625 53.4375C44.0625 52.1943 44.5564 51.002 45.4354 50.1229C46.3145 49.2439 47.5068 48.75 48.75 48.75C49.9932 48.75 51.1855 49.2439 52.0646 50.1229C52.9436 51.002 53.4375 52.1943 53.4375 53.4375ZM45.9375 47.5116C45.2385 47.8446 44.6037 48.2984 44.0625 48.8522V37.5H45.9375V47.5116Z" fill="#1E2433"/>
<path d="M30.9375 46.875H28.125V45H30C30.2486 45 30.4871 44.9012 30.6629 44.7254C30.8387 44.5496 30.9375 44.3111 30.9375 44.0625V38.4375C30.9375 38.1889 30.8387 37.9504 30.6629 37.7746C30.4871 37.5988 30.2486 37.5 30 37.5H3.75C3.50136 37.5 3.2629 37.5988 3.08709 37.7746C2.91127 37.9504 2.8125 38.1889 2.8125 38.4375V44.0625C2.8125 44.3111 2.91127 44.5496 3.08709 44.7254C3.2629 44.9012 3.50136 45 3.75 45H5.625V46.875H2.8125C2.56386 46.875 2.3254 46.9738 2.14959 47.1496C1.97377 47.3254 1.875 47.5639 1.875 47.8125V51.5625C1.875 51.8111 1.97377 52.0496 2.14959 52.2254C2.3254 52.4012 2.56386 52.5 2.8125 52.5H4.6875V57.1875C4.6875 57.4361 4.78627 57.6746 4.96209 57.8504C5.1379 58.0262 5.37636 58.125 5.625 58.125H9.375C9.62364 58.125 9.8621 58.0262 10.0379 57.8504C10.2137 57.6746 10.3125 57.4361 10.3125 57.1875V52.5H23.4375V57.1875C23.4375 57.4361 23.5363 57.6746 23.7121 57.8504C23.8879 58.0262 24.1264 58.125 24.375 58.125H28.125C28.3736 58.125 28.6121 58.0262 28.7879 57.8504C28.9637 57.6746 29.0625 57.4361 29.0625 57.1875V52.5H30.9375C31.1861 52.5 31.4246 52.4012 31.6004 52.2254C31.7762 52.0496 31.875 51.8111 31.875 51.5625V47.8125C31.875 47.5639 31.7762 47.3254 31.6004 47.1496C31.4246 46.9738 31.1861 46.875 30.9375 46.875ZM4.6875 39.375H29.0625V43.125H4.6875V39.375ZM7.5 45H26.25V46.875H7.5V45ZM8.4375 56.25H6.5625V52.5H8.4375V56.25ZM27.1875 56.25H25.3125V52.5H27.1875V56.25ZM30 50.625H3.75V48.75H30V50.625Z" fill="#1E2433"/>
</svg>
