<svg width="70" height="70" viewBox="0 0 70 70" fill="none" xmlns="http://www.w3.org/2000/svg">
<path d="M54.6877 29.5313C53.0638 29.5336 51.4546 29.8392 49.943 30.4325L47.4547 22.9688H49.2189C50.0891 22.9688 50.9237 22.6231 51.5391 22.0077C52.1544 21.3924 52.5002 20.5578 52.5002 19.6875C52.5002 18.8173 52.1544 17.9827 51.5391 17.3673C50.9237 16.752 50.0891 16.4063 49.2189 16.4063H39.3752V18.5938H49.2189C49.509 18.5938 49.7872 18.709 49.9923 18.9141C50.1974 19.1192 50.3127 19.3974 50.3127 19.6875C50.3127 19.9776 50.1974 20.2558 49.9923 20.4609C49.7872 20.666 49.509 20.7813 49.2189 20.7813H45.9377C45.7643 20.7812 45.5935 20.8224 45.4392 20.9013C45.2849 20.9802 45.1516 21.0947 45.0502 21.2353C44.9489 21.3759 44.8824 21.5385 44.8562 21.7098C44.83 21.8811 44.8449 22.0562 44.8997 22.2206L45.5133 24.0625H26.5214L25.6847 21.9242L28.9287 20.9978C29.472 20.843 29.9409 20.4969 30.2489 20.0234C30.557 19.55 30.6834 18.9811 30.605 18.4217C30.5265 17.8623 30.2483 17.3502 29.8219 16.9798C29.3954 16.6094 28.8494 16.4057 28.2845 16.4063H20.0158C19.474 16.4039 18.946 16.5764 18.5102 16.8983C18.0744 17.2201 17.7541 17.6741 17.597 18.1926C17.44 18.7111 17.4545 19.2664 17.6385 19.776C17.8224 20.2856 18.1659 20.7222 18.618 21.0208L18.7405 21.1017C19.9965 21.9406 21.4728 22.3885 22.9831 22.3891C23.1559 22.3891 23.3277 22.365 23.5005 22.353L24.7364 25.5106L21.3075 30.9958C18.892 29.7491 16.149 29.2831 13.4573 29.6623C10.7656 30.0414 8.25801 31.2469 6.28084 33.1123C4.30366 34.9777 2.95444 37.411 2.41951 40.0761C1.88457 42.7412 2.19031 45.5066 3.29451 47.9905C4.3987 50.4744 6.24687 52.5542 8.58378 53.9426C10.9207 55.3311 13.631 55.9597 16.3406 55.7417C19.0501 55.5237 21.625 54.4698 23.7099 52.7255C25.7947 50.9813 27.2866 48.6327 27.9794 46.0042L29.5577 46.2821C29.6422 47.3779 30.1369 48.4015 30.943 49.1486C31.7491 49.8958 32.8073 50.3114 33.9064 50.3125C34.007 50.3125 34.1022 50.2896 34.2017 50.283L35.0559 52.8457C35.1285 53.0635 35.2678 53.253 35.4541 53.3873C35.6404 53.5216 35.8643 53.5938 36.0939 53.5938H40.4689V51.4063H36.8825L36.2809 49.6027C36.8117 49.2629 37.262 48.8114 37.6004 48.2798C37.9389 47.7481 38.1574 47.1491 38.2407 46.5244C38.3239 45.8997 38.2701 45.2643 38.0827 44.6626C37.8954 44.0609 37.5791 43.5072 37.1559 43.0402L46.9439 28.3533L47.9622 31.4071C45.2477 33.0409 43.2175 35.6034 42.2479 38.6197C41.2783 41.636 41.4349 44.9015 42.6888 47.8111C43.9428 50.7206 46.2089 53.077 49.0673 54.4436C51.9258 55.8101 55.1827 56.0941 58.2345 55.2429C61.2863 54.3917 63.9261 52.4631 65.6647 49.8145C67.4032 47.1658 68.1227 43.9767 67.6898 40.8381C67.2568 37.6996 65.7008 34.8244 63.31 32.7453C60.9193 30.6663 57.8559 29.5244 54.6877 29.5313ZM24.4936 19.9894C23.7313 20.2074 22.9307 20.257 22.1473 20.1348C21.3639 20.0126 20.6164 19.7215 19.9567 19.2817L19.8353 19.2008C19.7741 19.1629 19.727 19.1059 19.7014 19.0386C19.6757 18.9712 19.673 18.8973 19.6935 18.8283C19.714 18.7593 19.7567 18.6989 19.8149 18.6565C19.8732 18.6141 19.9438 18.5921 20.0158 18.5938H28.2845C28.3217 18.5935 28.3577 18.6068 28.3858 18.6311C28.4139 18.6554 28.4321 18.6891 28.4372 18.7259C28.4423 18.7627 28.4338 18.8001 28.4134 18.8312C28.393 18.8622 28.3619 18.8847 28.3261 18.8946L24.4936 19.9894ZM14.313 43.1014C14.3858 43.265 14.4977 43.4082 14.6388 43.5184C14.78 43.6287 14.946 43.7026 15.1223 43.7336L21.488 44.8569C21.048 46.0929 20.2477 47.1686 19.1903 47.9452C18.1329 48.7218 16.867 49.1636 15.5561 49.2137C14.2451 49.2638 12.9492 48.9198 11.8357 48.2261C10.7221 47.5325 9.84204 46.521 9.30904 45.3222C8.77603 44.1234 8.61457 42.7924 8.84549 41.5009C9.0764 40.2095 9.68909 39.0169 10.6045 38.0771C11.5199 37.1373 12.6959 36.4934 13.9808 36.2286C15.2658 35.9638 16.6006 36.0902 17.813 36.5914L14.3852 42.0766C14.2901 42.2284 14.2338 42.4013 14.2212 42.58C14.2087 42.7587 14.2402 42.9378 14.313 43.1014ZM17.0998 41.8611L19.6647 37.7574C20.3589 38.371 20.9149 39.125 21.296 39.9695C21.677 40.814 21.8744 41.7298 21.8752 42.6563C21.8752 42.6727 21.8752 42.688 21.8752 42.7033L17.0998 41.8611ZM15.3127 53.5938C13.6627 53.5983 12.0331 53.2295 10.5459 52.515C9.05872 51.8004 7.75245 50.7587 6.72492 49.4678C5.6974 48.1768 4.97526 46.6701 4.61258 45.0605C4.24989 43.4509 4.25607 41.7802 4.63064 40.1733C5.00521 38.5664 5.73847 37.0651 6.77551 35.7818C7.81255 34.4985 9.12649 33.4664 10.6189 32.7629C12.1114 32.0594 13.7436 31.7026 15.3935 31.7194C17.0434 31.7361 18.6681 32.1259 20.1459 32.8596L18.9811 34.7189C17.7929 34.1677 16.4962 33.8902 15.1865 33.907C13.8768 33.9238 12.5876 34.2344 11.414 34.8159C10.2403 35.3973 9.21222 36.2349 8.40546 37.2667C7.59869 38.2986 7.03386 39.4984 6.75264 40.7776C6.47142 42.0568 6.48098 43.3829 6.78061 44.658C7.08025 45.933 7.66231 47.1246 8.48387 48.1447C9.30542 49.1647 10.3455 49.9874 11.5274 50.5519C12.7093 51.1164 14.0029 51.4084 15.3127 51.4063C17.1811 51.4038 18.9999 50.8043 20.5037 49.6954C22.0074 48.5865 23.1176 47.0261 23.6722 45.2419L25.8302 45.6236C25.1824 47.9152 23.8051 49.9331 21.9071 51.3713C20.0092 52.8096 17.694 53.5898 15.3127 53.5938ZM26.2086 43.4689L24.0408 43.0861C24.0484 42.9428 24.0627 42.8017 24.0627 42.6563C24.0632 41.3573 23.774 40.0746 23.2162 38.9015C22.6584 37.7285 21.8461 36.6945 20.8383 35.875L21.9998 34.0156C23.3219 35.0349 24.3926 36.3439 25.1294 37.8419C25.8663 39.3399 26.2497 40.9869 26.2502 42.6563C26.2502 42.9308 26.2294 43.2031 26.2086 43.4689ZM29.935 44.1252L28.3775 43.8506C28.4125 43.4558 28.4377 43.0588 28.4377 42.6552C28.4357 40.6159 27.9577 38.6053 27.0417 36.7834C26.1257 34.9615 24.797 33.3785 23.1614 32.1606L25.7328 28.0471L31.3503 42.4014C30.7384 42.8455 30.251 43.4395 29.935 44.1263V44.1252ZM31.86 46.6856L33.0752 46.9044L33.4678 48.0835C33.103 48.0069 32.7638 47.8384 32.4824 47.594C32.2011 47.3495 31.9868 47.0373 31.86 46.6867V46.6856ZM33.3913 44.7355L32.2417 44.5321C32.4452 44.288 32.6997 44.0915 32.9873 43.9564C33.2749 43.8213 33.5886 43.7508 33.9064 43.75C33.9523 43.75 33.9961 43.761 34.0409 43.7632L33.3913 44.7355ZM35.5383 47.3769L35.1117 46.0983L35.8609 44.975C36.0582 45.3613 36.133 45.7986 36.0754 46.2285C36.0177 46.6585 35.8304 47.0606 35.5383 47.3813V47.3769ZM35.3348 41.8207C34.8766 41.655 34.3937 41.5678 33.9064 41.5625C33.7338 41.5694 33.5617 41.587 33.3913 41.615L27.3778 26.25H45.7189L35.3348 41.8207ZM50.515 37.5922C51.7506 40.0154 53.2285 42.3072 54.9261 44.4325L56.6345 43.0653C55.0066 41.0286 53.593 38.8294 52.4159 36.5028C53.9553 35.9393 55.6503 35.9746 57.1649 36.6015C58.6796 37.2285 59.9036 38.4014 60.5944 39.8881C61.2852 41.3747 61.3925 43.0666 60.8949 44.6286C60.3974 46.1906 59.3314 47.5087 57.908 48.322C56.4847 49.1352 54.8078 49.3842 53.2095 49.0196C51.6113 48.6551 50.2082 47.7035 49.2783 46.3535C48.3484 45.0035 47.9594 43.3534 48.1885 41.7302C48.4175 40.107 49.2478 38.629 50.515 37.5889V37.5922ZM54.6877 53.5938C52.3324 53.5956 50.0396 52.8365 48.1507 51.4297C46.2618 50.0229 44.8778 48.0435 44.205 45.7864C43.5321 43.5293 43.6063 41.1153 44.4166 38.9038C45.2268 36.6923 46.7298 34.8017 48.7016 33.5136C48.9662 34.2136 49.2506 34.9041 49.5547 35.5852C47.7593 36.895 46.5305 38.8397 46.1183 41.0235C45.7061 43.2073 46.1414 45.4661 47.3358 47.3403C48.5302 49.2144 50.3937 50.5631 52.5473 51.1117C54.7009 51.6604 56.9826 51.3679 58.9281 50.2937C60.8737 49.2195 62.3368 47.4444 63.0197 45.3295C63.7027 43.2147 63.5542 40.9191 62.6044 38.9099C61.6546 36.9007 59.975 35.3289 57.9072 34.5144C55.8395 33.6998 53.5391 33.7037 51.4742 34.5253C51.1822 33.8592 50.9142 33.1811 50.6605 32.4964C52.1579 31.8994 53.7689 31.6408 55.3779 31.7392C56.987 31.8375 58.5545 32.2903 59.9681 33.0651C61.3818 33.84 62.6067 34.9178 63.5551 36.2214C64.5036 37.5249 65.1521 39.022 65.4544 40.6055C65.7567 42.189 65.7052 43.8197 65.3036 45.381C64.902 46.9423 64.1602 48.3955 63.1314 49.6366C62.1026 50.8777 60.8121 51.876 59.3524 52.5601C57.8927 53.2442 56.2997 53.5972 54.6877 53.5938Z" fill="#203371"/>
</svg>
