<svg width="70" height="70" viewBox="0 0 70 70" fill="none" xmlns="http://www.w3.org/2000/svg">
<path d="M51.4062 51.4062H39.375C39.0849 51.4062 38.8067 51.5215 38.6016 51.7266C38.3965 51.9317 38.2812 52.2099 38.2812 52.5V59.0625C38.2812 59.9327 38.627 60.7673 39.2423 61.3827C39.8577 61.998 40.6923 62.3438 41.5625 62.3438H45.9375C46.8077 62.3438 47.6423 61.998 48.2577 61.3827C48.873 60.7673 49.2188 59.9327 49.2188 59.0625V57.9688H51.4062C51.9864 57.9688 52.5428 57.7383 52.953 57.328C53.3633 56.9178 53.5938 56.3614 53.5938 55.7812V53.5938C53.5938 53.0136 53.3633 52.4572 52.953 52.047C52.5428 51.6367 51.9864 51.4062 51.4062 51.4062ZM47.0312 59.0625C47.0312 59.3526 46.916 59.6308 46.7109 59.8359C46.5058 60.041 46.2276 60.1562 45.9375 60.1562H41.5625C41.2724 60.1562 40.9942 60.041 40.7891 59.8359C40.584 59.6308 40.4688 59.3526 40.4688 59.0625V53.5938H47.0312V59.0625ZM49.2188 55.7812V53.5938H51.4062V55.7812H49.2188Z" fill="#203371"/>
<path d="M51.4062 45.9375H47.0312C46.4511 45.9375 45.8947 46.168 45.4845 46.5782C45.0742 46.9884 44.8438 47.5448 44.8438 48.125V49.2188H47.0312V48.125H51.4062C51.9864 48.125 52.5428 47.8945 52.953 47.4843C53.3633 47.0741 53.5938 46.5177 53.5938 45.9375V43.75H51.4062V45.9375Z" fill="#203371"/>
<path d="M42.6562 45.9375C42.6562 45.6474 42.7715 45.3692 42.9766 45.1641C43.1817 44.959 43.4599 44.8438 43.75 44.8438H47.0312C47.6114 44.8438 48.1678 44.6133 48.578 44.203C48.9883 43.7928 49.2188 43.2364 49.2188 42.6562V40.4688H47.0312V42.6562H43.75C42.8798 42.6562 42.0452 43.002 41.4298 43.6173C40.8145 44.2327 40.4688 45.0673 40.4688 45.9375V48.125H42.6562V45.9375Z" fill="#203371"/>
<path d="M36.0938 9.84375H33.9062V12.0312H36.0938V9.84375Z" fill="#203371"/>
<path d="M40.4688 9.84375H38.2812V12.0312H40.4688V9.84375Z" fill="#203371"/>
<path d="M31.7188 9.84375H29.5312V12.0312H31.7188V9.84375Z" fill="#203371"/>
<path d="M62.3438 65.625V39.2656C63.5781 39.0118 64.6873 38.3401 65.4842 37.3639C66.2812 36.3876 66.7172 35.1665 66.7188 33.9062V27.3438C66.7206 27.1745 66.6832 27.0072 66.6094 26.8548L60.0469 13.7298C59.9556 13.5472 59.815 13.3937 59.6411 13.2868C59.4671 13.1799 59.2667 13.1239 59.0625 13.125H54.6875V3.28125C54.6875 2.99117 54.5723 2.71297 54.3671 2.50785C54.162 2.30273 53.8838 2.1875 53.5938 2.1875H16.4062C16.1162 2.1875 15.838 2.30273 15.6329 2.50785C15.4277 2.71297 15.3125 2.99117 15.3125 3.28125V13.125H10.9375C10.7342 13.1249 10.535 13.1814 10.3621 13.2883C10.1892 13.3951 10.0494 13.548 9.95859 13.7298L3.39609 26.8548C3.32041 27.0067 3.28109 27.1741 3.28125 27.3438V33.9062C3.28284 35.1665 3.71885 36.3876 4.51579 37.3639C5.31272 38.3401 6.42186 39.0118 7.65625 39.2656V65.625H2.1875V67.8125H67.8125V65.625H62.3438ZM64.5312 33.9062C64.5312 34.7765 64.1855 35.6111 63.5702 36.2264C62.9548 36.8418 62.1202 37.1875 61.25 37.1875C60.3798 37.1875 59.5452 36.8418 58.9298 36.2264C58.3145 35.6111 57.9688 34.7765 57.9688 33.9062V32.8125H64.5312V33.9062ZM55.7812 33.9062C55.7812 34.7765 55.4355 35.6111 54.8202 36.2264C54.2048 36.8418 53.3702 37.1875 52.5 37.1875C51.6298 37.1875 50.7952 36.8418 50.1798 36.2264C49.5645 35.6111 49.2188 34.7765 49.2188 33.9062V32.8125H55.7812V33.9062ZM47.0312 33.9062C47.0312 34.7765 46.6855 35.6111 46.0702 36.2264C45.4548 36.8418 44.6202 37.1875 43.75 37.1875C42.8798 37.1875 42.0452 36.8418 41.4298 36.2264C40.8145 35.6111 40.4688 34.7765 40.4688 33.9062V32.8125H47.0312V33.9062ZM38.2812 33.9062C38.2812 34.7765 37.9355 35.6111 37.3202 36.2264C36.7048 36.8418 35.8702 37.1875 35 37.1875C34.1298 37.1875 33.2952 36.8418 32.6798 36.2264C32.0645 35.6111 31.7188 34.7765 31.7188 33.9062V32.8125H38.2812V33.9062ZM29.5312 33.9062C29.5312 34.7765 29.1855 35.6111 28.5702 36.2264C27.9548 36.8418 27.1202 37.1875 26.25 37.1875C25.3798 37.1875 24.5452 36.8418 23.9298 36.2264C23.3145 35.6111 22.9688 34.7765 22.9688 33.9062V32.8125H29.5312V33.9062ZM20.7812 33.9062C20.7812 34.7765 20.4355 35.6111 19.8202 36.2264C19.2048 36.8418 18.3702 37.1875 17.5 37.1875C16.6298 37.1875 15.7952 36.8418 15.1798 36.2264C14.5645 35.6111 14.2188 34.7765 14.2188 33.9062V32.8125H20.7812V33.9062ZM5.46875 28.4375H64.5312V30.625H5.46875V28.4375ZM17.5 4.375H52.5V17.5H17.5V4.375ZM11.6134 15.3125H15.3125V18.5938C15.3125 18.8838 15.4277 19.162 15.6329 19.3671C15.838 19.5723 16.1162 19.6875 16.4062 19.6875H53.5938C53.8838 19.6875 54.162 19.5723 54.3671 19.3671C54.5723 19.162 54.6875 18.8838 54.6875 18.5938V15.3125H58.3866L63.8553 26.25H6.14469L11.6134 15.3125ZM5.46875 33.9062V32.8125H12.0312V33.9062C12.0312 34.7765 11.6855 35.6111 11.0702 36.2264C10.4548 36.8418 9.62024 37.1875 8.75 37.1875C7.87976 37.1875 7.04516 36.8418 6.42981 36.2264C5.81445 35.6111 5.46875 34.7765 5.46875 33.9062ZM16.4062 65.625V45.9375H29.5312V65.625H16.4062ZM31.7188 65.625V44.8438C31.7188 44.5537 31.6035 44.2755 31.3984 44.0704C31.1933 43.8652 30.9151 43.75 30.625 43.75H15.3125C15.0224 43.75 14.7442 43.8652 14.5391 44.0704C14.334 44.2755 14.2188 44.5537 14.2188 44.8438V65.625H9.84375V39.2656C11.1601 38.9899 12.3284 38.2383 13.125 37.1547C13.628 37.8431 14.2864 38.4031 15.0466 38.7892C15.8068 39.1752 16.6474 39.3764 17.5 39.3764C18.3526 39.3764 19.1932 39.1752 19.9534 38.7892C20.7136 38.4031 21.372 37.8431 21.875 37.1547C22.378 37.8431 23.0364 38.4031 23.7966 38.7892C24.5568 39.1752 25.3974 39.3764 26.25 39.3764C27.1026 39.3764 27.9432 39.1752 28.7034 38.7892C29.4636 38.4031 30.122 37.8431 30.625 37.1547C31.128 37.8431 31.7864 38.4031 32.5466 38.7892C33.3068 39.1752 34.1474 39.3764 35 39.3764C35.8526 39.3764 36.6932 39.1752 37.4534 38.7892C38.2136 38.4031 38.872 37.8431 39.375 37.1547C39.878 37.8431 40.5364 38.4031 41.2966 38.7892C42.0568 39.1752 42.8974 39.3764 43.75 39.3764C44.6026 39.3764 45.4432 39.1752 46.2034 38.7892C46.9636 38.4031 47.622 37.8431 48.125 37.1547C48.628 37.8431 49.2864 38.4031 50.0466 38.7892C50.8068 39.1752 51.6474 39.3764 52.5 39.3764C53.3526 39.3764 54.1932 39.1752 54.9534 38.7892C55.7136 38.4031 56.372 37.8431 56.875 37.1547C57.6716 38.2383 58.8399 38.9899 60.1562 39.2656V65.625H31.7188Z" fill="#203371"/>
</svg>
