<svg width="70" height="70" viewBox="0 0 70 70" fill="none" xmlns="http://www.w3.org/2000/svg">
<path d="M49.2187 20.7813C49.2187 17.9691 48.3848 15.22 46.8225 12.8817C45.2601 10.5435 43.0394 8.72103 40.4413 7.64484C37.8431 6.56866 34.9842 6.28708 32.2261 6.83572C29.4679 7.38435 26.9344 8.73855 24.9458 10.7271C22.9573 12.7156 21.6031 15.2491 21.0545 18.0073C20.5058 20.7655 20.7874 23.6244 21.8636 26.2225C22.9398 28.8207 24.7622 31.0413 27.1005 32.6037C29.4388 34.1661 32.1878 35 35 35C38.7697 34.9957 42.3838 33.4962 45.0494 30.8306C47.715 28.165 49.2144 24.551 49.2187 20.7813ZM22.9688 20.7813C22.9688 18.4017 23.6744 16.0756 24.9964 14.0971C26.3184 12.1185 28.1974 10.5764 30.3958 9.66583C32.5943 8.75521 35.0133 8.51696 37.3472 8.98118C39.681 9.44541 41.8248 10.5913 43.5074 12.2739C45.19 13.9565 46.3358 16.1002 46.8001 18.4341C47.2643 20.7679 47.026 23.187 46.1154 25.3854C45.2048 27.5838 43.6627 29.4629 41.6842 30.7849C39.7057 32.1069 37.3796 32.8125 35 32.8125C31.8103 32.8087 28.7523 31.54 26.4968 29.2845C24.2413 27.029 22.9725 23.971 22.9688 20.7813Z" fill="#203371"/>
<path d="M44.8438 22.9688V18.5938C44.8438 18.3037 44.7285 18.0255 44.5234 17.8204C44.3183 17.6152 44.0401 17.5 43.75 17.5H26.25C25.9599 17.5 25.6817 17.6152 25.4766 17.8204C25.2715 18.0255 25.1562 18.3037 25.1562 18.5938V22.9688C25.1562 23.2588 25.2715 23.537 25.4766 23.7421C25.6817 23.9473 25.9599 24.0625 26.25 24.0625H43.75C44.0401 24.0625 44.3183 23.9473 44.5234 23.7421C44.7285 23.537 44.8438 23.2588 44.8438 22.9688ZM42.6562 21.875H27.3438V19.6875H42.6562V21.875Z" fill="#203371"/>
<path d="M44.8436 62.3436C44.8436 62.0535 44.7283 61.7753 44.5232 61.5702C44.3181 61.3651 44.0399 61.2498 43.7498 61.2498H39.3748V38.8334C43.7969 37.7629 47.6731 35.1081 50.2693 31.3716C52.8655 27.6352 54.0017 23.0765 53.4626 18.5587C52.9235 14.0409 50.7466 9.87751 47.3441 6.85687C43.9416 3.83622 39.5497 2.16797 34.9998 2.16797C30.4499 2.16797 26.058 3.83622 22.6555 6.85687C19.253 9.87751 17.0761 14.0409 16.537 18.5587C15.9979 23.0765 17.1341 27.6352 19.7303 31.3716C22.3265 35.1081 26.2027 37.7629 30.6248 38.8334V61.2498H26.2498C25.9597 61.2498 25.6815 61.3651 25.4764 61.5702C25.2713 61.7753 25.1561 62.0535 25.1561 62.3436V65.6248H19.6873V67.8123H50.3123V65.6248H44.8436V62.3436ZM18.5936 20.7811C18.5936 17.5362 19.5558 14.3643 21.3585 11.6663C23.1612 8.96827 25.7235 6.86544 28.7214 5.62369C31.7193 4.38194 35.018 4.05704 38.2005 4.69008C41.383 5.32312 44.3063 6.88566 46.6008 9.18012C48.8952 11.4746 50.4578 14.3979 51.0908 17.5804C51.7239 20.7629 51.3989 24.0616 50.1572 27.0595C48.9155 30.0573 46.8126 32.6196 44.1146 34.4224C41.4166 36.2251 38.2447 37.1873 34.9998 37.1873C30.6501 37.1824 26.48 35.4523 23.4043 32.3766C20.3286 29.3009 18.5985 25.1308 18.5936 20.7811ZM32.8123 39.2348C34.2647 39.4215 35.7349 39.4215 37.1873 39.2348V61.2498H32.8123V39.2348ZM27.3436 65.6248V63.4373H42.6561V65.6248H27.3436Z" fill="#203371"/>
</svg>
