<svg width="70" height="70" viewBox="0 0 70 70" fill="none" xmlns="http://www.w3.org/2000/svg">
<path d="M66.8605 29.1211H63.1639V23.3598C63.17 22.8616 63.0771 22.3671 62.8906 21.9051C62.7041 21.4431 62.4277 21.0227 62.0774 20.6683C61.7272 20.314 61.31 20.0327 60.8502 19.8409C60.3904 19.649 59.897 19.5504 59.3988 19.5508H58.9844C58.3399 19.5501 57.7058 19.7132 57.1417 20.0248C56.9937 19.1295 56.5329 18.3157 55.8412 17.7282C55.1496 17.1407 54.272 16.8176 53.3645 16.8164H52.9501C50.8393 16.8164 49.0818 18.5146 49.0818 20.6254V28.9844H20.9178V20.6254C20.9178 18.5146 19.16 16.8164 17.0486 16.8164H16.6342C15.7268 16.8176 14.8492 17.1407 14.1576 17.7281C13.4659 18.3156 13.0051 19.1294 12.8571 20.0246C12.2931 19.7133 11.6592 19.5503 11.015 19.5508H10.6006C10.1023 19.5504 9.60899 19.649 9.14918 19.8409C8.68936 20.0327 8.27223 20.314 7.92199 20.6683C7.57175 21.0227 7.29537 21.4431 7.1089 21.9051C6.92243 22.3671 6.82958 22.8616 6.83573 23.3598V29.1211H3.13913C2.84617 29.1289 2.56799 29.2514 2.36441 29.4622C2.16084 29.673 2.04814 29.9553 2.05058 30.2483V39.7517C2.04814 40.0447 2.16084 40.327 2.36441 40.5378C2.56799 40.7486 2.84617 40.8711 3.13913 40.8789H6.83573V46.6402C6.82958 47.1384 6.92243 47.6329 7.1089 48.0949C7.29537 48.5569 7.57175 48.9773 7.92199 49.3317C8.27223 49.686 8.68936 49.9673 9.14918 50.1591C9.60899 50.351 10.1023 50.4496 10.6006 50.4492H11.015C11.6594 50.4498 12.2934 50.2868 12.8576 49.9753C13.0057 50.8706 13.4665 51.6844 14.1581 52.2719C14.8497 52.8593 15.7273 53.1824 16.6348 53.1836H17.0486C19.1594 53.1836 20.9178 51.4854 20.9178 49.3746V41.0156H49.0818V49.3746C49.0818 51.4854 50.8393 53.1836 52.9501 53.1836H53.3645C54.272 53.1824 55.1496 52.8593 55.8412 52.2718C56.5329 51.6843 56.9937 50.8705 57.1417 49.9752C57.7058 50.2868 58.3399 50.4499 58.9844 50.4492H59.3988C59.897 50.4496 60.3904 50.351 60.8502 50.1591C61.31 49.9673 61.7272 49.686 62.0774 49.3317C62.4277 48.9773 62.7041 48.5569 62.8906 48.0949C63.0771 47.6329 63.17 47.1384 63.1639 46.6402V40.8789H66.8605C67.1534 40.8711 67.4316 40.7486 67.6352 40.5378C67.8388 40.327 67.9514 40.0447 67.949 39.7517V30.2483C67.9514 29.9553 67.8388 29.673 67.6352 29.4622C67.4316 29.2514 67.1534 29.1289 66.8605 29.1211ZM30.6248 31.1719H33.906V38.8281H30.6248V31.1719ZM28.4373 38.8281H25.156V31.1719H28.4373V38.8281ZM36.0935 31.1719H39.3748V38.8281H36.0935V31.1719ZM41.5623 31.1719H44.8435V38.8281H41.5623V31.1719ZM4.23808 38.6914V31.3086H6.83573V38.6914H4.23808ZM12.7146 46.6211C12.7146 47.0562 12.5418 47.4735 12.2341 47.7812C11.9264 48.0889 11.5091 48.2617 11.074 48.2617H10.6639C10.2287 48.2617 9.81144 48.0889 9.50376 47.7812C9.19608 47.4735 9.02323 47.0562 9.02323 46.6211V23.3789C9.02323 22.9438 9.19608 22.5265 9.50376 22.2188C9.81144 21.9111 10.2287 21.7383 10.6639 21.7383H11.074C11.5091 21.7383 11.9264 21.9111 12.2341 22.2188C12.5418 22.5265 12.7146 22.9438 12.7146 23.3789V46.6211ZM17.0486 50.9961H16.6342C16.4222 50.9971 16.2122 50.9556 16.0165 50.8741C15.8208 50.7926 15.6434 50.6728 15.4947 50.5217C15.346 50.3706 15.2291 50.1912 15.1508 49.9942C15.0725 49.7972 15.0345 49.5866 15.0389 49.3746V20.6254C15.0345 20.4134 15.0725 20.2027 15.1509 20.0056C15.2292 19.8086 15.3462 19.6292 15.4949 19.4781C15.6436 19.327 15.8211 19.2072 16.0169 19.1257C16.2127 19.0443 16.4227 19.0029 16.6348 19.0039H17.0486C17.9533 19.0039 18.7303 19.7209 18.7303 20.6254V29.7529C18.6789 29.7951 18.6394 29.8499 18.6154 29.9119C18.5915 29.9739 18.5839 30.0411 18.5935 30.1068V39.8932C18.5839 39.9589 18.5915 40.0261 18.6154 40.0881C18.6394 40.1501 18.6789 40.2049 18.7303 40.2471V49.3746C18.7303 50.2791 17.9538 50.9961 17.0486 50.9961ZM20.9178 31.1719H22.9685V38.8281H20.9178V31.1719ZM49.0818 38.8281H47.031V31.1719H49.0818V38.8281ZM54.9607 49.3555C54.9607 49.7906 54.7879 50.2079 54.4802 50.5156C54.1725 50.8232 53.7552 50.9961 53.3201 50.9961H52.91C52.4748 50.9961 52.0575 50.8232 51.7499 50.5156C51.4422 50.2079 51.2693 49.7906 51.2693 49.3555V20.6445C51.2693 20.2094 51.4422 19.7921 51.7499 19.4844C52.0575 19.1768 52.4748 19.0039 52.91 19.0039H53.3201C53.7552 19.0039 54.1725 19.1768 54.4802 19.4844C54.7879 19.7921 54.9607 20.2094 54.9607 20.6445V49.3555ZM60.9764 46.6211C60.9764 47.0562 60.8035 47.4735 60.4958 47.7812C60.1882 48.0889 59.7709 48.2617 59.3357 48.2617H58.9256C58.4905 48.2617 58.0732 48.0889 57.7655 47.7812C57.4578 47.4735 57.285 47.0562 57.285 46.6211V23.3789C57.285 22.9438 57.4578 22.5265 57.7655 22.2188C58.0732 21.9111 58.4905 21.7383 58.9256 21.7383H59.3357C59.7709 21.7383 60.1882 21.9111 60.4958 22.2188C60.8035 22.5265 60.9764 22.9438 60.9764 23.3789V46.6211ZM65.7615 38.6914H63.1639V31.3086H65.7615V38.6914Z" fill="#203371"/>
</svg>
