<svg width="70" height="70" viewBox="0 0 70 70" fill="none" xmlns="http://www.w3.org/2000/svg">
<path d="M55.3427 57.2773H54.3633C54.1095 57.2773 53.866 57.3782 53.6866 57.5576C53.5071 57.7371 53.4062 57.9806 53.4062 58.2344C53.4062 58.4882 53.5071 58.7316 53.6866 58.9111C53.866 59.0906 54.1095 59.1914 54.3633 59.1914H55.3427C55.5966 59.1914 55.84 59.0906 56.0195 58.9111C56.1989 58.7316 56.2998 58.4882 56.2998 58.2344C56.2998 57.9806 56.1989 57.7371 56.0195 57.5576C55.84 57.3782 55.5966 57.2773 55.3427 57.2773Z" fill="#203371"/>
<path d="M64.791 49.9097L63.1295 49.3466L65.1004 49.1048C65.2316 49.0887 65.358 49.0455 65.4717 48.9781C65.5854 48.9106 65.6839 48.8204 65.761 48.713C65.838 48.6056 65.892 48.4834 65.9195 48.3541C65.947 48.2248 65.9474 48.0912 65.9207 47.9617L63.5581 36.5032C64.0965 36.1219 64.5078 35.5876 64.7387 34.9695C64.9695 34.3515 65.0092 33.6783 64.8526 33.0374C64.7563 32.6327 64.5672 32.2559 64.3003 31.9369C64.0334 31.6179 63.6959 31.3653 63.3145 31.1992L63.3231 28.8001V28.7934L63.3284 27.3256C63.3355 25.8513 63.0518 24.3901 62.4936 23.0256C61.9353 21.6611 61.1135 20.42 60.075 19.3735C59.0366 18.327 57.802 17.4955 56.4419 16.9267C55.0817 16.3579 53.6228 16.0628 52.1485 16.0585C50.6742 16.0541 49.2136 16.3405 47.8501 16.9013C46.4866 17.4621 45.2471 18.2863 44.2026 19.3267C43.158 20.3671 42.3288 21.6032 41.7625 22.9644C41.1962 24.3256 40.9039 25.7851 40.9023 27.2594L40.9126 30.7692C40.9126 30.7769 40.9126 30.7844 40.9126 30.7921L40.9219 31.2054C40.5437 31.3725 40.2094 31.6249 39.945 31.9427C39.6806 32.2605 39.4933 32.6352 39.3977 33.0374C39.2278 33.7321 39.2889 34.4632 39.5719 35.12C39.8549 35.7768 40.3443 36.3234 40.9659 36.677L37.9767 47.909C37.9439 48.0319 37.936 48.1602 37.9534 48.2862C37.9708 48.4123 38.0131 48.5336 38.078 48.6431C38.1428 48.7525 38.2288 48.848 38.331 48.9238C38.4331 48.9997 38.5494 49.0544 38.673 49.0848C39.3881 49.2451 40.1119 49.3644 40.8406 49.442L39.4598 49.9101C39.1507 50.0152 38.8509 50.1459 38.5635 50.3007L29.8608 47.4791V43.308C31.4864 42.3336 32.8881 41.027 33.9742 39.4738C35.0603 37.9205 35.8063 36.1555 36.1635 34.2941L36.7001 32.4484C37.7357 32.1056 38.6041 31.3853 39.1325 30.431C39.6609 29.4767 39.8104 28.3584 39.5514 27.2988C39.4166 26.7337 39.1419 26.2116 38.7524 25.7805C38.363 25.3495 37.8714 25.0233 37.3229 24.8321V18.7596C37.3287 16.866 36.9608 14.9899 36.2402 13.2388C35.5196 11.4877 34.4605 9.89597 33.1236 8.55494C31.7867 7.21391 30.1983 6.14991 28.4494 5.42392C26.7005 4.69792 24.8255 4.32422 22.9319 4.32422C21.0383 4.32422 19.1634 4.69792 17.4145 5.42392C15.6656 6.14991 14.0772 7.21391 12.7403 8.55494C11.4034 9.89597 10.3443 11.4877 9.62366 13.2388C8.90306 14.9899 8.53514 16.866 8.54098 18.7596V24.8299C7.99113 25.0205 7.49817 25.3465 7.10765 25.778C6.71712 26.2094 6.44161 26.7323 6.30658 27.2984C6.04735 28.358 6.19683 29.4764 6.72523 30.4308C7.25363 31.3852 8.12218 32.1055 9.15785 32.4483L9.69433 34.294C10.0515 36.1553 10.7975 37.9203 11.8836 39.4736C12.9697 41.0269 14.3714 42.3334 15.9971 43.3078V47.4786L6.76596 50.4714C4.16652 51.3144 2.19517 53.3444 1.49258 55.9025C1.46523 56.0016 1.43994 56.1014 1.41615 56.2033C1.28794 56.7691 1.22564 57.3479 1.23049 57.928V64.673C1.23049 64.9268 1.33132 65.1703 1.51079 65.3497C1.69027 65.5292 1.9337 65.63 2.18752 65.63H43.6691C43.9229 65.63 44.1663 65.5292 44.3458 65.3497C44.5253 65.1703 44.6261 64.9268 44.6261 64.673V62.4681H67.8125C68.0663 62.4681 68.3098 62.3673 68.4892 62.1878C68.6687 62.0084 68.7695 61.7649 68.7695 61.5111V55.4589C68.77 54.234 68.3863 53.0399 67.6727 52.0445C66.959 51.0491 65.9512 50.3025 64.791 49.9097ZM47.754 49.1195L51.1583 52.5148V54.6709L46.045 49.6986L47.754 49.1195ZM51.2325 46.8182H53.0178C53.7824 46.8174 54.5438 46.7204 55.2842 46.5295V47.6251L52.126 50.7757L48.9669 47.6251V46.5295C49.707 46.7203 50.4682 46.8173 51.2325 46.8182ZM53.0725 52.5344L56.4964 49.1195L58.2054 49.6986L53.0725 54.6902V52.5344ZM59.5547 48.135L60.0879 47.4817L61.5645 48.816L59.5547 48.135ZM62.9024 47.446L60.6232 45.3861C60.5269 45.2991 60.4139 45.2325 60.2911 45.1905C60.1682 45.1485 60.0382 45.132 59.9087 45.1418C59.7793 45.1517 59.6533 45.1878 59.5382 45.2479C59.4232 45.308 59.3216 45.3909 59.2396 45.4915L57.6199 47.4793L57.1981 47.3363V45.805C58.311 45.233 59.3098 44.4621 60.1452 43.5306C61.0865 42.4855 61.8228 41.2726 62.3157 39.9554L63.837 47.3313L62.9024 47.446ZM54.7741 27.6835C55.1459 27.3729 55.5016 27.0433 55.8395 26.6961C57.2723 28.2207 58.6852 28.9399 61.4063 29.5656L61.403 30.4384C58.9558 30.2517 56.6327 29.2863 54.7741 27.6835ZM52.1156 17.9577C53.3417 17.9577 54.5558 18.2003 55.6879 18.6713C56.8199 19.1424 57.8477 19.8327 58.7119 20.7025C59.5761 21.5723 60.2598 22.6045 60.7235 23.7396C61.1873 24.8747 61.422 26.0903 61.4141 27.3164L61.413 27.6004C59.1406 27.0398 58.1684 26.4347 57.0927 25.2351C57.583 24.5856 58.0292 23.9039 58.428 23.1945C58.491 23.085 58.5316 22.9641 58.5476 22.8389C58.5637 22.7136 58.5547 22.5864 58.5214 22.4646C58.488 22.3428 58.4309 22.2288 58.3532 22.1292C58.2756 22.0296 58.179 21.9463 58.0691 21.8842C57.9591 21.822 57.838 21.7823 57.7126 21.7672C57.5872 21.7522 57.4601 21.7621 57.3385 21.7963C57.217 21.8306 57.1034 21.8886 57.0044 21.967C56.9054 22.0454 56.8228 22.1426 56.7615 22.253C53.2092 28.5407 48.0848 28.8271 45.6221 28.9645L45.5852 28.9667C44.8677 29.0068 44.1961 29.4999 43.8326 30.2549C43.7728 30.3753 43.6738 30.4717 43.5519 30.5283C43.4386 30.582 43.3114 30.5993 43.1879 30.578C43.0643 30.5567 42.9503 30.4978 42.8615 30.4093L42.825 30.3729L42.816 27.2564C42.8189 24.7909 43.7996 22.4273 45.543 20.6841C47.2864 18.9409 49.6501 17.9604 52.1156 17.9577ZM41.2571 33.4928C41.2973 33.327 41.3895 33.1784 41.5202 33.0687C41.6509 32.9591 41.8132 32.894 41.9835 32.8832C42.1313 32.8697 42.2739 32.8219 42.4001 32.7437C42.5263 32.6656 42.6325 32.5591 42.7104 32.4327C43.2674 32.5652 43.853 32.504 44.3705 32.2591C44.8881 32.0143 45.3067 31.6003 45.5574 31.0856C45.594 31.0033 45.6504 30.9313 45.7215 30.876H45.73C47.3219 30.787 50.2305 30.6238 53.1812 28.8266C55.4619 30.9348 58.4036 32.1859 61.5042 32.3664C61.5776 32.51 61.6862 32.6327 61.8197 32.7231C61.9533 32.8135 62.1076 32.8687 62.2682 32.8836C62.4385 32.8945 62.6008 32.9595 62.7315 33.0692C62.8622 33.179 62.9544 33.3276 62.9946 33.4935C63.0391 33.6758 63.0458 33.8653 63.0142 34.0504C62.9826 34.2354 62.9134 34.412 62.8109 34.5692C62.7084 34.7264 62.5748 34.861 62.4182 34.9645C62.2617 35.0681 62.0856 35.1385 61.9008 35.1713C61.679 35.2101 61.4779 35.3259 61.3331 35.4984C61.1882 35.6708 61.1088 35.8888 61.1088 36.114V36.1276C61.0904 38.3901 60.2428 40.5672 58.7265 42.2465C57.1758 43.9604 55.1487 44.9043 53.0185 44.9043H51.2325C49.1023 44.9043 47.0752 43.9609 45.5245 42.2465C44.0082 40.5673 43.1606 38.3901 43.1423 36.1276V36.114C43.1423 35.8888 43.0629 35.6708 42.918 35.4984C42.7732 35.3259 42.5721 35.2101 42.3503 35.1713C42.1655 35.1384 41.9894 35.068 41.8328 34.9644C41.6763 34.8608 41.5427 34.7263 41.4402 34.569C41.3377 34.4118 41.2685 34.2352 41.2369 34.0501C41.2053 33.8651 41.212 33.6756 41.2565 33.4932L41.2571 33.4928ZM42.0183 40.1659C42.5086 41.4026 43.2154 42.5419 44.1055 43.5306C44.9408 44.4624 45.9396 45.2335 47.0525 45.8058V47.3364L46.2754 47.5998C45.9139 47.5959 45.5531 47.5834 45.2029 47.5698L45.1138 47.5662L45.0063 45.5556C44.9964 45.3687 44.9318 45.1889 44.8207 45.0383C44.7095 44.8877 44.5566 44.773 44.381 44.7084C44.2053 44.6438 44.0146 44.6321 43.8323 44.6748C43.6501 44.7175 43.4844 44.8127 43.3557 44.9486L40.9167 47.5227C40.6048 47.4847 40.3281 47.4448 40.091 47.4069L42.0183 40.1659ZM43.2135 47.8818L43.2492 48.5488C43.2506 48.5738 43.2536 48.5983 43.2569 48.6228L42.1593 48.9947L43.2135 47.8818ZM24.0811 19.0764C25.2741 20.3381 28.9329 23.5953 35.408 24.2717V24.6617C32.8582 24.5947 25.5117 24.03 19.6342 19.9183C21.1317 19.725 22.6166 19.4439 24.0811 19.0764ZM10.4542 18.7596C10.4488 17.1176 10.7675 15.4907 11.3921 13.9722C12.0167 12.4537 12.9348 11.0733 14.094 9.91036C15.2531 8.7474 16.6304 7.82465 18.1468 7.19504C19.6633 6.56543 21.2891 6.24134 22.9311 6.24134C24.5731 6.24134 26.1989 6.56543 27.7154 7.19504C29.2318 7.82465 30.6091 8.7474 31.7682 9.91036C32.9274 11.0733 33.8455 12.4537 34.4701 13.9722C35.0947 15.4907 35.4134 17.1176 35.408 18.7596V22.3446C30.7128 21.8003 27.6812 19.7375 26.2097 18.455C28.4065 17.7246 30.5543 16.7118 32.3839 15.3087C32.5827 15.1533 32.7121 14.9257 32.7439 14.6755C32.7758 14.4252 32.7075 14.1725 32.554 13.9723C32.4004 13.7721 32.1741 13.6406 31.9241 13.6064C31.6742 13.5723 31.4208 13.6382 31.2192 13.7899C24.5364 18.9152 12.6008 18.3743 12.4816 18.3684C12.3556 18.362 12.2296 18.3805 12.1108 18.4229C11.992 18.4653 11.8827 18.5308 11.7893 18.6155C11.6959 18.7003 11.6202 18.8028 11.5665 18.9169C11.5128 19.0311 11.4822 19.1547 11.4765 19.2808L11.2543 24.1586C11.249 24.3042 11.2055 24.4458 11.1281 24.5692C11.0508 24.6927 10.9422 24.7936 10.8135 24.8618C10.7025 24.9214 10.58 24.9565 10.4542 24.9646V18.7596ZM11.5659 33.8943C11.5601 33.8639 11.5529 33.8337 11.5443 33.8038L10.8722 31.4933C10.8382 31.2995 10.7453 31.1209 10.6061 30.9818C10.467 30.8427 10.2883 30.7498 10.0945 30.7159C9.76832 30.658 9.45748 30.5337 9.1812 30.3509C8.90492 30.1681 8.66907 29.9306 8.48822 29.653C8.30737 29.3754 8.18537 29.0637 8.12975 28.7371C8.07413 28.4105 8.08608 28.076 8.16486 27.7542C8.22635 27.4856 8.35861 27.2383 8.54791 27.038C8.7372 26.8378 8.97665 26.6918 9.24139 26.6153C9.65183 26.8081 10.1035 26.8966 10.5563 26.873C11.0092 26.8494 11.4492 26.7144 11.8374 26.48C12.2256 26.2456 12.5499 25.9191 12.7817 25.5293C13.0135 25.1396 13.1455 24.6987 13.166 24.2457L13.3454 20.3055C14.1396 20.3135 15.3717 20.2997 16.8671 20.1961C24.7497 26.9453 35.923 26.5982 36.4012 26.5796C36.4204 26.5796 36.439 26.5765 36.4579 26.5747C36.7558 26.6302 37.0312 26.7714 37.2502 26.981C37.4693 27.1905 37.6225 27.4593 37.6912 27.7546C37.7698 28.0763 37.7817 28.4108 37.726 28.7373C37.6703 29.0638 37.5483 29.3754 37.3675 29.6529C37.1866 29.9304 36.9508 30.1679 36.6746 30.3507C36.3984 30.5334 36.0877 30.6577 35.7615 30.7156C35.5677 30.7496 35.3891 30.8424 35.2499 30.9815C35.1108 31.1206 35.0179 31.2992 34.9839 31.493L34.3119 33.8036C34.3028 33.8334 34.2956 33.8635 34.2902 33.8941C33.7921 36.5433 32.3839 38.9353 30.3092 40.6563C28.2344 42.3774 25.6234 43.3194 22.9278 43.3194C20.2321 43.3194 17.6211 42.3774 15.5463 40.6563C13.4716 38.9353 12.0634 36.5433 11.5653 33.8941L11.5659 33.8943ZM22.9278 45.2332C24.6471 45.2335 26.3505 44.9036 27.9453 44.2613V47.5997C26.3766 48.3421 24.6627 48.7272 22.9272 48.7272C21.1917 48.7272 19.4778 48.3421 17.9091 47.5997V44.2613C19.5043 44.9037 21.2081 45.2337 22.9278 45.2332ZM42.711 63.716H3.14455V57.928C3.13997 57.4945 3.18544 57.0618 3.28004 56.6387C3.29822 56.5614 3.31777 56.4845 3.33842 56.4089C3.86971 54.4746 5.3717 52.9363 7.35644 52.2922L16.8548 49.2124C18.7419 50.1511 20.8208 50.6397 22.9284 50.6397C25.036 50.6397 27.1149 50.1511 29.0019 49.2124L38.5 52.2922C39.4592 52.5905 40.3289 53.1232 41.0305 53.842C41.7321 54.5609 42.2434 55.4433 42.5183 56.4095C42.5392 56.4849 42.5585 56.5608 42.5764 56.6378C42.6712 57.0611 42.7167 57.494 42.712 57.9279L42.711 63.716ZM44.4394 56.2031C44.4157 56.102 44.3901 56.0012 44.3628 55.9024C43.8455 54.042 42.6601 52.4379 41.0336 51.3972L44.008 50.3892L51.1573 57.3412V60.5541H44.6261V57.928C44.6311 57.3478 44.5688 56.769 44.4404 56.2031H44.4394ZM66.8555 60.5541H53.0725V57.3601L60.2414 50.3886L64.1766 51.7225C64.9578 51.9869 65.6364 52.4896 66.1169 53.1599C66.5974 53.8301 66.8558 54.6341 66.8555 55.4589V60.5541Z" fill="#203371"/>
</svg>
