<svg width="55" height="55" viewBox="0 0 55 55" fill="none" xmlns="http://www.w3.org/2000/svg">
<path d="M55 27.5C55 42.7 42.7 55 27.5 55C12.3 55 0 42.7 0 27.5C0 12.3 12.3 0 27.5 0C42.7 0 55 12.3 55 27.5Z" fill="#9911AA"/>
<path d="M25.5 37.6008C25.5 38.7008 26.4 39.5008 27.4 39.5008C28.5 39.5008 29.3 38.6008 29.3 37.6008V29.5008V29.0008H29.8H37.5C38 29.0008 38.5 28.8008 38.9 28.4008C39.3 28.0008 39.5 27.5008 39.5 27.0008C39.5 26.5008 39.3 26.0008 38.9 25.6008C38.5 25.2008 38 25.0008 37.5 25.0008H29.8H29.3V24.5008V17.3008C29.3 16.8008 29.1 16.3008 28.7 15.9008C28.3 15.5008 27.8 15.3008 27.3 15.3008C26.2 15.3008 25.4 16.2008 25.4 17.2008V24.4008V24.9008H25H17.5C16.4 24.9008 15.6 25.8008 15.6 26.8008C15.6 27.9008 16.5 28.7008 17.5 28.7008H25H25.5V29.2008V37.6008Z" fill="white"/>
</svg>
