<svg width="55" height="55" viewBox="0 0 55 55" fill="none" xmlns="http://www.w3.org/2000/svg">
<path d="M55 27.5C55 42.7 42.7 55 27.5 55C12.3 55 0 42.7 0 27.5C0 12.3 12.3 0 27.5 0C42.7 0 55 12.3 55 27.5Z" fill="#FFAA00"/>
<path d="M18.4 15.0996C16.4 15.0996 14.8 16.6996 14.8 18.6996C14.8 20.6996 16.4 22.2996 18.4 22.2996C20.4 22.2996 22 20.6996 22 18.6996C22 16.6996 20.4 15.0996 18.4 15.0996Z" fill="white"/>
<path d="M35.6 15.0996C33.6 15.0996 32 16.6996 32 18.6996C32 20.6996 33.6 22.2996 35.6 22.2996C37.6 22.2996 39.2 20.6996 39.2 18.6996C39.2 16.6996 37.6 15.0996 35.6 15.0996Z" fill="white"/>
<path d="M43.2999 19.2008L39 23.5008C38.1 24.4008 36.8999 24.9008 35.5999 24.9008C34.2999 24.9008 33.0999 24.4008 32.2999 23.5008L28 19.2008C27.7999 19.0008 27.5 18.9008 27.2 18.9008C26.8 18.8008 26.4 19.0008 26.1 19.2008L21.8 23.5008C20.9 24.4008 19.6 24.9008 18.4 24.9008C17.1 24.9008 15.9 24.4008 15.1 23.5008L10.8 19.2008C10.6 19.0008 10.3 18.8008 9.89995 18.8008C9.49995 18.8008 9.29995 18.9008 9.09995 19.1008C8.79995 19.3008 8.69995 19.7008 8.69995 20.0008C8.69995 20.3008 8.79995 20.6008 9.09995 20.9008L14.9 26.7008V39.7008C14.9 40.1008 15 40.4008 15.3 40.6008C15.5 40.8008 15.8 40.9008 16.1 40.9008C16.8 40.9008 17.3 40.4008 17.3 39.7008V34.1008C17.3 33.4008 17.8 32.9008 18.5 32.9008C19.2 32.9008 19.7 33.4008 19.7 34.1008V39.6008C19.7 40.0008 19.8 40.3008 20.1 40.5008C20.3 40.7008 20.6 40.8008 20.9 40.8008C21.6 40.8008 22.1 40.3008 22.1 39.6008V26.7008L27.1 21.7008L32.2 26.8008L30.1 35.8008H32.2V39.7008C32.2 40.1008 32.2999 40.4008 32.5999 40.6008C32.7999 40.8008 33.1 40.9008 33.4 40.9008C34.1 40.9008 34.5999 40.4008 34.5999 39.7008V35.8008H36.9V39.7008C36.9 40.1008 37 40.4008 37.2999 40.6008C37.5 40.8008 37.7999 40.9008 38.0999 40.9008C38.7999 40.9008 39.2999 40.4008 39.2999 39.7008V35.8008H41.4L39.2 26.7008L45.0999 20.8008C45.2999 20.6008 45.5 20.3008 45.5 20.0008C45.5 19.7008 45.3999 19.3008 45.0999 19.1008C44.5999 18.7008 43.7999 18.7008 43.2999 19.2008Z" fill="white"/>
</svg>
