<svg width="55" height="55" viewBox="0 0 55 55" fill="none" xmlns="http://www.w3.org/2000/svg">
<path d="M55 27.5C55 42.7 42.7 55 27.5 55C12.3 55 0 42.7 0 27.5C0 12.3 12.3 0 27.5 0C42.7 0 55 12.3 55 27.5Z" fill="#0088FF"/>
<path d="M14 37.0991L14.5 36.9991C17.9 35.8991 21.6 36.3991 24.6 38.4991L26.3 39.5991C26.7 39.7991 27.2 39.7991 27.5 39.5991L29.1 38.4991C32.1 36.3991 35.9 35.8991 39.3 36.9991L39.7 37.0991C40.3 37.2991 40.8 36.8991 40.8 36.2991V16.8991C40.8 16.3991 40.5 15.9991 40.1 15.8991L39.5 15.6991C35.9 14.4991 32 14.9991 28.9 17.1991L27.4 18.1991C27 18.3991 26.5 18.3991 26.2 18.1991L24.6 17.0991C21.6 15.0991 17.8 14.4991 14.4 15.5991L13.6 15.7991C13.2 15.8991 12.9 16.3991 12.9 16.7991V36.1991C12.9 36.8991 13.5 37.2991 14 37.0991Z" fill="white"/>
<path d="M27.9 15H26.1V47H27.9V15Z" fill="#0088FF"/>
</svg>
