<svg width="55" height="55" viewBox="0 0 55 55" fill="none" xmlns="http://www.w3.org/2000/svg">
<path d="M55 27.5C55 42.7 42.7 55 27.5 55C12.3 55 0 42.7 0 27.5C0 12.3 12.3 0 27.5 0C42.7 0 55 12.3 55 27.5Z" fill="#FF0033"/>
<path d="M39.1001 36.8004C39.1001 37.6004 38.4001 38.3004 37.6001 38.3004C36.8001 38.3004 36.1001 37.6004 36.1001 36.8004V24.4004C36.1001 23.6004 36.8001 22.9004 37.6001 22.9004C38.4001 22.9004 39.1001 23.6004 39.1001 24.4004V36.8004Z" fill="white"/>
<path d="M18.7 24.4004C18.7 23.6004 18 22.9004 17.2 22.9004C16.4 22.9004 15.7 23.6004 15.7 24.4004V36.8004C15.7 37.6004 16.4 38.3004 17.2 38.3004C18 38.3004 18.7 37.6004 18.7 36.8004V24.4004Z" fill="white"/>
<path d="M25.5 24.4004C25.5 23.6004 24.8 22.9004 24 22.9004C23.2 22.9004 22.5 23.6004 22.5 24.4004V36.8004C22.5 37.6004 23.2 38.3004 24 38.3004C24.8 38.3004 25.5 37.6004 25.5 36.8004V24.4004Z" fill="white"/>
<path d="M32.3 24.4004C32.3 23.6004 31.6 22.9004 30.8 22.9004C30 22.9004 29.3 23.6004 29.3 24.4004V36.8004C29.3 37.6004 30 38.3004 30.8 38.3004C31.6 38.3004 32.3 37.6004 32.3 36.8004V24.4004Z" fill="white"/>
<path d="M39.8999 15.2996L31.6999 11.4996C28.9999 10.2996 25.8999 10.2996 23.2999 11.4996L15.0999 15.2996C14.5999 15.4996 14.7999 16.1996 15.2999 16.1996H39.6999C40.1999 16.1996 40.3999 15.4996 39.8999 15.2996Z" fill="white"/>
<path d="M43.0999 19.9996C43.0999 19.1996 42.4999 18.5996 41.6999 18.5996H13.2999C12.4999 18.5996 11.8999 19.1996 11.8999 19.9996C11.8999 20.7996 12.4999 21.3996 13.2999 21.3996H41.6999C42.4999 21.2996 43.0999 20.6996 43.0999 19.9996Z" fill="white"/>
<path d="M43.8 41.2008C43.8 40.4008 43.2001 39.8008 42.4001 39.8008H12.7C11.9 39.8008 11.3 40.4008 11.3 41.2008C11.3 42.0008 11.9 42.6008 12.7 42.6008H42.4001C43.1001 42.6008 43.8 42.0008 43.8 41.2008Z" fill="white"/>
</svg>
