<svg width="55" height="55" viewBox="0 0 55 55" fill="none" xmlns="http://www.w3.org/2000/svg">
<path d="M55 27.5C55 42.7 42.7 55 27.5 55C12.3 55 0 42.7 0 27.5C0 12.3 12.3 0 27.5 0C42.7 0 55 12.3 55 27.5Z" fill="#AADD22"/>
<path d="M27.5 12.0996C26.2 12.0996 24.9 12.1996 23.8 12.3996C23.2 12.4996 22.7 13.2996 22.9 13.8996C23.1 14.4996 23.1 14.9996 23.1 15.4996H21.2C21 14.9996 20.6 14.6996 20.1 14.6996H17.7C17.2 14.6996 16.8 14.9996 16.7 15.4996H15.6C13.6 15.4996 11.7 16.8996 11.7 18.8996V35.9996C11.7 37.9996 13.6 39.3996 15.6 39.3996H39.5C41.5 39.3996 43.4 37.9996 43.4 35.9996V18.9996C43.4 16.9996 41.5 15.5996 39.5 15.5996H38.2999C38.0999 15.0996 37.7 14.7996 37.2 14.7996H34.7999C34.2999 14.7996 33.9 15.0996 33.7999 15.5996H32C32 15.1996 32 14.5996 32.2 13.9996C32.4 13.3996 32 12.5996 31.2999 12.4996C30.0999 12.1996 28.8 12.0996 27.5 12.0996ZM27.5 14.4996C28.2 14.4996 28.9 14.4996 29.6 14.5996C29.6 14.8996 29.5 15.1996 29.6 15.4996H25.4C25.4 15.1996 25.4 14.8996 25.4 14.5996C26.1 14.5996 26.8 14.4996 27.5 14.4996ZM15.6 17.7996H39.5C40.5 17.7996 41.0999 18.3996 41.0999 18.8996V35.9996C41.0999 36.4996 40.5 37.0996 39.5 37.0996H15.6C14.6 37.0996 14 36.4996 14 35.9996V18.9996C14 18.3996 14.6 17.7996 15.6 17.7996ZM24.8 20.5996V24.8996H20.6V30.2996H24.8V34.5996H30.2V30.2996H34.4V24.8996H30.2V20.5996H24.8Z" fill="white"/>
</svg>
