<svg width="55" height="55" viewBox="0 0 55 55" fill="none" xmlns="http://www.w3.org/2000/svg">
<path d="M55 27.5C55 42.7 42.7 55 27.5 55C12.3 55 0 42.7 0 27.5C0 12.3 12.3 0 27.5 0C42.7 0 55 12.3 55 27.5Z" fill="#0088FF"/>
<path d="M28.4001 14.1992C26.9001 14.1992 25.4001 14.3992 24.3001 14.9992L11.0001 21.0992C10.4001 21.3992 10.0001 21.6992 9.6001 21.9992C9.2001 22.3992 9.0001 22.8992 9.0001 23.3992C9.0001 23.4992 9.0001 23.4992 9.0001 23.5992V30.5992C8.5001 30.7992 8.1001 31.3992 8.1001 31.9992C8.1001 32.7992 8.7001 33.4992 9.4001 33.4992C10.1001 33.4992 10.7001 32.7992 10.7001 31.9992C10.7001 31.2992 10.3001 30.7992 9.8001 30.5992V24.9992C10.1001 25.1992 10.4001 25.4992 10.9001 25.6992L16.4001 28.1992V35.2992C16.4001 36.1992 16.8001 36.8992 17.5001 37.5992C18.1001 38.2992 19.0001 38.7992 20.1001 39.2992C22.3001 40.1992 25.2001 40.7992 28.4001 40.7992C31.6001 40.7992 34.6001 40.1992 36.7001 39.2992C37.8001 38.7992 38.7001 38.2992 39.3001 37.5992C39.9001 36.8992 40.4001 36.0992 40.4001 35.2992V28.1992L45.9001 25.6992C46.5001 25.3992 46.9001 25.0992 47.3001 24.6992C47.7001 24.2992 47.8001 23.8992 47.8001 23.3992C47.8001 22.8992 47.6001 22.4992 47.3001 22.0992C47.0001 21.6992 46.5001 21.3992 45.9001 21.1992L32.5001 14.9992C31.3001 14.4992 29.9001 14.1992 28.4001 14.1992ZM28.4001 15.1992C29.8001 15.1992 31.2001 15.3992 32.2001 15.8992L45.5001 21.9992C46.0001 22.1992 46.4001 22.4992 46.6001 22.6992C46.8001 22.8992 46.9001 23.1992 46.9001 23.2992C46.9001 23.3992 46.8001 23.6992 46.6001 23.8992C46.4001 24.0992 46.0001 24.3992 45.5001 24.5992L32.2001 30.6992C30.1001 31.5992 26.6001 31.5992 24.6001 30.6992L17.0001 27.3992L11.3001 24.7992C10.8001 24.5992 10.4001 24.2992 10.2001 24.0992C10.0001 23.8992 9.9001 23.6992 9.9001 23.4992C9.9001 23.2992 10.0001 23.0992 10.2001 22.8992C10.4001 22.6992 10.8001 22.3992 11.3001 22.1992L24.6001 16.0992C25.6001 15.3992 27.0001 15.1992 28.4001 15.1992ZM39.5001 28.4992V35.1992C39.5001 35.6992 39.3001 36.2992 38.7001 36.7992C38.2001 37.2992 37.4001 37.8992 36.3001 38.2992C34.3001 39.1992 31.4001 39.6992 28.3001 39.6992C25.2001 39.6992 22.3001 39.0992 20.3001 38.2992C19.3001 37.8992 18.5001 37.2992 18.0001 36.7992C17.5001 36.2992 17.2001 35.6992 17.2001 35.1992V28.4992L24.2001 31.6992C26.5001 32.7992 30.1001 32.7992 32.5001 31.6992L39.5001 28.4992ZM9.4001 31.3992C9.7001 31.3992 9.8001 31.5992 9.8001 31.8992C9.8001 32.1992 9.6001 32.3992 9.4001 32.3992C9.1001 32.3992 8.9001 32.1992 8.9001 31.8992C9.0001 31.5992 9.2001 31.3992 9.4001 31.3992Z" fill="white"/>
<path d="M28.4001 14.1992C26.9001 14.1992 25.4001 14.3992 24.3001 14.9992L11.0001 21.0992C10.4001 21.3992 10.0001 21.6992 9.6001 21.9992C9.2001 22.3992 9.0001 22.8992 9.0001 23.3992C9.0001 23.4992 9.0001 23.4992 9.0001 23.5992V30.5992C8.5001 30.7992 8.1001 31.3992 8.1001 31.9992C8.1001 32.7992 8.7001 33.4992 9.4001 33.4992C10.1001 33.4992 10.7001 32.7992 10.7001 31.9992C10.7001 31.2992 10.3001 30.7992 9.8001 30.5992V24.9992C10.1001 25.1992 10.4001 25.4992 10.9001 25.6992L16.4001 28.1992V35.2992C16.4001 36.1992 16.8001 36.8992 17.5001 37.5992C18.1001 38.2992 19.0001 38.7992 20.1001 39.2992C22.3001 40.1992 25.2001 40.7992 28.4001 40.7992C31.6001 40.7992 34.6001 40.1992 36.7001 39.2992C37.8001 38.7992 38.7001 38.2992 39.3001 37.5992C39.9001 36.8992 40.4001 36.0992 40.4001 35.2992V28.1992L45.9001 25.6992C46.5001 25.3992 46.9001 25.0992 47.3001 24.6992C47.7001 24.2992 47.8001 23.8992 47.8001 23.3992C47.8001 22.8992 47.6001 22.4992 47.3001 22.0992C47.0001 21.6992 46.5001 21.3992 45.9001 21.1992L32.5001 14.9992C31.3001 14.4992 29.9001 14.1992 28.4001 14.1992ZM28.4001 15.1992C29.8001 15.1992 31.2001 15.3992 32.2001 15.8992L45.5001 21.9992C46.0001 22.1992 46.4001 22.4992 46.6001 22.6992C46.8001 22.8992 46.9001 23.1992 46.9001 23.2992C46.9001 23.3992 46.8001 23.6992 46.6001 23.8992C46.4001 24.0992 46.0001 24.3992 45.5001 24.5992L32.2001 30.6992C30.1001 31.5992 26.6001 31.5992 24.6001 30.6992L17.0001 27.3992L11.3001 24.7992C10.8001 24.5992 10.4001 24.2992 10.2001 24.0992C10.0001 23.8992 9.9001 23.6992 9.9001 23.4992C9.9001 23.2992 10.0001 23.0992 10.2001 22.8992C10.4001 22.6992 10.8001 22.3992 11.3001 22.1992L24.6001 16.0992C25.6001 15.3992 27.0001 15.1992 28.4001 15.1992ZM39.5001 28.4992V35.1992C39.5001 35.6992 39.3001 36.2992 38.7001 36.7992C38.2001 37.2992 37.4001 37.8992 36.3001 38.2992C34.3001 39.1992 31.4001 39.6992 28.3001 39.6992C25.2001 39.6992 22.3001 39.0992 20.3001 38.2992C19.3001 37.8992 18.5001 37.2992 18.0001 36.7992C17.5001 36.2992 17.2001 35.6992 17.2001 35.1992V28.4992L24.2001 31.6992C26.5001 32.7992 30.1001 32.7992 32.5001 31.6992L39.5001 28.4992ZM9.4001 31.3992C9.7001 31.3992 9.8001 31.5992 9.8001 31.8992C9.8001 32.1992 9.6001 32.3992 9.4001 32.3992C9.1001 32.3992 8.9001 32.1992 8.9001 31.8992C9.0001 31.5992 9.2001 31.3992 9.4001 31.3992Z" stroke="white" stroke-width="1.5" stroke-miterlimit="10"/>
</svg>
