<svg width="55" height="55" viewBox="0 0 55 55" fill="none" xmlns="http://www.w3.org/2000/svg">
<path d="M55 27.5C55 42.7 42.7 55 27.5 55C12.3 55 0 42.7 0 27.5C0 12.3 12.3 0 27.5 0C42.7 0 55 12.3 55 27.5Z" fill="#9911AA"/>
<path d="M39.9 20.1995C42.2 17.3995 42.8 13.2994 40.7 11.4994C38.6 9.69945 34.6 11.0994 32.3 13.7994C30.3 16.1995 30.4 18.5994 31.7 20.2994L14.9 39.7994V39.8995C14.8 40.5995 15.1 41.1994 15.6 41.5994C16.1 41.9994 16.8 42.1994 17.4 41.9994H17.5L33.6 21.8994C35.6 22.8994 38 22.4995 39.9 20.1995Z" fill="white"/>
<path d="M14.2001 15.1999C13.9001 15.4999 13.8001 15.9999 14.1001 16.2999L23.2001 27.1999L24.3001 25.9999L15.3001 15.2999C15.0001 14.9999 14.5001 14.9999 14.2001 15.1999Z" fill="white"/>
<path d="M36.9 44.2992L38.5 42.9992L28.6 31.1992L27.5 32.5992L36.9 44.2992Z" fill="white"/>
<path d="M39.7001 41.9996L41.3001 40.5996L30.7001 28.5996L29.6001 29.9996L39.7001 41.9996Z" fill="white"/>
<path d="M16.6 13.2998C16.3 13.5998 16.2 14.0998 16.5 14.3998L25.3 24.8998L26.3 23.6998L17.6 13.3998C17.4 12.9998 16.9 12.9998 16.6 13.2998Z" fill="white"/>
</svg>
