<svg width="55" height="55" viewBox="0 0 55 55" fill="none" xmlns="http://www.w3.org/2000/svg">
<path d="M55 27.5C55 42.7 42.7 55 27.5 55C12.3 55 0 42.7 0 27.5C0 12.3 12.3 0 27.5 0C42.7 0 55 12.3 55 27.5Z" fill="#FF7700"/>
<path d="M33.7001 37.6992C35.0001 37.6992 36.1 38.7992 36.1 40.0992C36.1 41.3992 35.0001 42.4992 33.7001 42.4992C32.4001 42.4992 31.3 41.3992 31.3 40.0992C31.3 38.6992 32.3001 37.6992 33.7001 37.6992Z" fill="white"/>
<path d="M24.6 37.6992C25.9 37.6992 27 38.7992 27 40.0992C27 41.3992 25.9 42.4992 24.6 42.4992C23.3 42.4992 22.2 41.3992 22.2 40.0992C22.2 38.6992 23.3 37.6992 24.6 37.6992Z" fill="white"/>
<path d="M33.3001 23.2994C33.9001 23.7994 33.9001 24.6994 33.4001 25.1994L29.2001 29.6994C28.9001 29.9994 28.6001 30.0994 28.2001 30.0994C27.8001 30.0994 27.5001 29.9994 27.2001 29.6994L25.0001 27.4994C24.5001 26.8994 24.5001 26.0994 25.1001 25.5994C25.6001 25.0994 26.5001 25.0994 27.0001 25.6994L28.1001 26.8994L31.3001 23.3994C31.9001 22.8994 32.7001 22.7994 33.3001 23.2994Z" fill="white"/>
<path d="M21.8 31.4C21.9 32 22.5 32.5 23.1 32.5H35.5999C36.2999 32.5 36.8 32 36.9 31.4L38.4 22.3V22.1C38.4 21.4 37.8 20.7 37 20.7H20L21.7 30.6L21.8 31.4ZM23.1 35.2C21.2 35.2 19.6 33.9 19.1 32.1C19.1 32 19 31.9 19 31.8L16.4 16.4C16.3 15.7 15.7 15.3 15.1 15.3H12.6C11.9 15.3 11.2 14.7 11.2 13.9C11.2 13.2 11.8 12.5 12.6 12.5H15.1C17.1 12.5 18.8 13.9 19.1 15.9L19.4 17.9H37C39.3 17.9 41.0999 19.8 41.0999 22C41.0999 22.2 41.1 22.5 41 22.7L39.5 31.8C39.2 33.8 37.5 35.2 35.5 35.2H23.1Z" fill="white"/>
</svg>
