<svg width="100" height="98" viewBox="0 0 100 98" fill="none" xmlns="http://www.w3.org/2000/svg">
<path d="M94.7746 97.9188C94.3533 97.9188 93.932 97.7582 93.6108 97.4369C92.9676 96.7938 92.9676 95.7524 93.6108 95.1099L94.3395 94.3812H19.1779L19.9066 95.1092C20.5497 95.7524 20.5497 96.7938 19.9066 97.4363C19.2641 98.0794 18.2214 98.0794 17.5796 97.4363L14.0821 93.9388C13.7556 93.6123 13.595 93.1831 13.6002 92.7546C13.6002 92.748 13.6002 92.7407 13.6002 92.7341C13.6002 92.168 13.8859 91.669 14.3211 91.3728L17.6619 88.0327C18.3043 87.3895 19.3471 87.3895 19.9889 88.0327C20.632 88.6758 20.632 89.7172 19.9889 90.3597L19.2602 91.0884H94.4224L93.6937 90.3597C93.0506 89.7166 93.0506 88.6752 93.6937 88.0327C94.3362 87.3895 95.3789 87.3895 96.0208 88.0327L99.5182 91.5301C99.8454 91.8567 100.005 92.2859 100 92.7144C100 92.7216 100 92.7282 100 92.7348C100 93.3009 99.7144 93.7999 99.2793 94.0961L95.9385 97.4363C95.6172 97.7582 95.1959 97.9188 94.7746 97.9188ZM5.18407 86.4811C4.61795 86.4811 4.11831 86.1947 3.82274 85.7596L0.482602 82.4195C-0.160542 81.7763 -0.160542 80.7349 0.482602 80.0924C1.12509 79.4493 2.16781 79.4493 2.80964 80.0924L3.53836 80.8212V5.65825L2.80964 6.38697C2.16715 7.03012 1.12443 7.03012 0.482602 6.38697C-0.160542 5.74383 -0.160542 4.70242 0.482602 4.05994L3.98007 0.562471C4.30658 0.235962 4.73314 0.0694163 5.16366 0.0806071C5.7469 0.0944311 6.24654 0.361036 6.54606 0.802087L9.8862 4.14222C10.5293 4.78537 10.5293 5.82677 9.8862 6.46926C9.24371 7.1124 8.20099 7.1124 7.55916 6.46926L6.83044 5.74054V80.9035L7.55916 80.1747C8.20165 79.5316 9.24437 79.5316 9.8862 80.1747C10.5293 80.8179 10.5293 81.8593 9.8862 82.5018L6.38873 85.9992C6.06222 86.3257 5.62907 86.4903 5.20514 86.4811C5.19789 86.4811 5.19131 86.4811 5.18407 86.4811ZM98.3544 81.8251H18.825C17.9159 81.8251 17.1793 81.0884 17.1793 80.1793V1.72698C17.1793 0.817886 17.9159 0.0812655 18.825 0.0812655H66.3492C67.2583 0.0812655 67.9949 0.817886 67.9949 1.72698V33.6689H98.3537C99.2628 33.6689 99.9994 34.4055 99.9994 35.3146V80.1787C100 81.0878 99.2635 81.8251 98.3544 81.8251ZM67.9245 78.5336H96.7087V36.9603H67.9245V78.5336ZM36.3979 78.5336H64.6337V56.489H36.3979V78.5336ZM20.4708 78.5336H33.1059V56.489H20.4708V78.5336ZM34.7522 53.1976H64.6337V35.3146C64.6337 35.1481 64.6588 34.9875 64.7042 34.8354V17.6502H20.4708V53.1976H34.7522ZM44.198 14.3588H64.7042V3.37269H44.198V14.3588ZM20.4708 14.3588H40.9059V3.37269H20.4708V14.3588Z" fill="white"/>
</svg>
