<svg width="100" height="100" viewBox="0 0 100 100" fill="none" xmlns="http://www.w3.org/2000/svg">
<path d="M88.4689 100C88.4684 100 88.4672 100 88.4661 100L51.3008 99.929H11.5303C10.7457 99.929 10.1099 99.2932 10.1099 98.5085V34.6045C10.1099 33.8199 10.7457 33.1841 11.5303 33.1841H31.3661V1.42045C31.3661 0.635795 32.0019 0 32.7866 0H88.4684C89.253 0 89.8888 0.635795 89.8888 1.42045V98.5795C89.8888 98.9568 89.7388 99.3182 89.4718 99.5852C89.2059 99.8506 88.8451 100 88.4689 100ZM52.7235 97.0909L87.0479 97.1562V2.84091H34.207V33.1841H51.303C52.0877 33.1841 52.7235 33.8199 52.7235 34.6045V97.0909ZM12.9508 97.0881H49.8826V36.025H12.9508V97.0881ZM45.4974 87.8602H34.2593C33.4746 87.8602 32.8388 87.2244 32.8388 86.4398V79.8631C32.8388 79.0784 33.4746 78.4426 34.2593 78.4426H45.4974C46.282 78.4426 46.9178 79.0784 46.9178 79.8631V86.4398C46.9178 87.2244 46.282 87.8602 45.4974 87.8602ZM35.6797 85.0193H44.0769V81.2835H35.6797V85.0193ZM28.5746 87.8602H17.3366C16.5519 87.8602 15.9161 87.2244 15.9161 86.4398V79.8631C15.9161 79.0784 16.5519 78.4426 17.3366 78.4426H28.5746C29.3593 78.4426 29.9951 79.0784 29.9951 79.8631V86.4398C29.9951 87.2244 29.3593 87.8602 28.5746 87.8602ZM18.757 85.0193H27.1542V81.2835H18.757V85.0193ZM78.8144 87.1307H73.3809C72.5962 87.1307 71.9604 86.4949 71.9604 85.7102V79.8057C71.9604 79.021 72.5962 78.3852 73.3809 78.3852H78.8144C79.5991 78.3852 80.2349 79.021 80.2349 79.8057V85.7102C80.2349 86.4949 79.5991 87.1307 78.8144 87.1307ZM74.8019 84.2898H77.3945V81.2261H74.8019V84.2898ZM63.1445 87.1307H57.711C56.9263 87.1307 56.2905 86.4949 56.2905 85.7102V79.8057C56.2905 79.021 56.9263 78.3852 57.711 78.3852H63.1445C63.9292 78.3852 64.565 79.021 64.565 79.8057V85.7102C64.565 86.4949 63.9292 87.1307 63.1445 87.1307ZM59.1315 84.2898H61.7241V81.2261H59.1315V84.2898ZM45.4974 75.0097H34.2593C33.4746 75.0097 32.8388 74.3739 32.8388 73.5892V67.0125C32.8388 66.2278 33.4746 65.592 34.2593 65.592H45.4974C46.282 65.592 46.9178 66.2278 46.9178 67.0125V73.5892C46.9178 74.3733 46.282 75.0097 45.4974 75.0097ZM35.6797 72.1687H44.0769V68.433H35.6797V72.1687ZM28.5746 75.0097H17.3366C16.5519 75.0097 15.9161 74.3739 15.9161 73.5892V67.0125C15.9161 66.2278 16.5519 65.592 17.3366 65.592H28.5746C29.3593 65.592 29.9951 66.2278 29.9951 67.0125V73.5892C29.9951 74.3733 29.3593 75.0097 28.5746 75.0097ZM18.757 72.1687H27.1542V68.433H18.757V72.1687ZM78.8144 72.9767H73.3809C72.5962 72.9767 71.9604 72.3409 71.9604 71.5563V65.6523C71.9604 64.8676 72.5962 64.2318 73.3809 64.2318H78.8144C79.5991 64.2318 80.2349 64.8676 80.2349 65.6523V71.5563C80.2349 72.3409 79.5991 72.9767 78.8144 72.9767ZM74.8019 70.1358H77.3945V67.0727H74.8019V70.1358ZM63.1445 72.9767H57.711C56.9263 72.9767 56.2905 72.3409 56.2905 71.5563V65.6523C56.2905 64.8676 56.9263 64.2318 57.711 64.2318H63.1445C63.9292 64.2318 64.565 64.8676 64.565 65.6523V71.5563C64.565 72.3409 63.9292 72.9767 63.1445 72.9767ZM59.1315 70.1358H61.7241V67.0727H59.1315V70.1358ZM45.4974 62.1585H34.2593C33.4746 62.1585 32.8388 61.5227 32.8388 60.7381V54.1614C32.8388 53.3767 33.4746 52.7409 34.2593 52.7409H45.4974C46.282 52.7409 46.9178 53.3767 46.9178 54.1614V60.7381C46.9178 61.5227 46.282 62.1585 45.4974 62.1585ZM35.6797 59.3176H44.0769V55.5818H35.6797V59.3176ZM28.5746 62.1585H17.3366C16.5519 62.1585 15.9161 61.5227 15.9161 60.7381V54.1614C15.9161 53.3767 16.5519 52.7409 17.3366 52.7409H28.5746C29.3593 52.7409 29.9951 53.3767 29.9951 54.1614V60.7381C29.9951 61.5227 29.3593 62.1585 28.5746 62.1585ZM18.757 59.3176H27.1542V55.5818H18.757V59.3176ZM78.8144 58.8227H73.3809C72.5962 58.8227 71.9604 58.1869 71.9604 57.4023V51.4983C71.9604 50.7136 72.5962 50.0778 73.3809 50.0778H78.8144C79.5991 50.0778 80.2349 50.7136 80.2349 51.4983V57.4028C80.2349 58.1869 79.5991 58.8227 78.8144 58.8227ZM74.8019 55.9818H77.3945V52.9182H74.8019V55.9818ZM63.1445 58.8227H57.711C56.9263 58.8227 56.2905 58.1869 56.2905 57.4023V51.4983C56.2905 50.7136 56.9263 50.0778 57.711 50.0778H63.1445C63.9292 50.0778 64.565 50.7136 64.565 51.4983V57.4028C64.565 58.1869 63.9292 58.8227 63.1445 58.8227ZM59.1315 55.9818H61.7241V52.9182H59.1315V55.9818ZM45.4974 49.3074H34.2593C33.4746 49.3074 32.8388 48.6716 32.8388 47.8869V41.3102C32.8388 40.5256 33.4746 39.8898 34.2593 39.8898H45.4974C46.282 39.8898 46.9178 40.5256 46.9178 41.3102V47.8875C46.9178 48.6716 46.282 49.3074 45.4974 49.3074ZM35.6797 46.4665H44.0769V42.7301H35.6797V46.4665ZM28.5746 49.3074H17.3366C16.5519 49.3074 15.9161 48.6716 15.9161 47.8869V41.3102C15.9161 40.5256 16.5519 39.8898 17.3366 39.8898H28.5746C29.3593 39.8898 29.9951 40.5256 29.9951 41.3102V47.8875C29.9951 48.6716 29.3593 49.3074 28.5746 49.3074ZM18.757 46.4665H27.1542V42.7301H18.757V46.4665ZM78.8144 44.6687H73.3809C72.5962 44.6687 71.9604 44.033 71.9604 43.2483V37.3443C71.9604 36.5597 72.5962 35.9239 73.3809 35.9239H78.8144C79.5991 35.9239 80.2349 36.5597 80.2349 37.3443V43.2483C80.2349 44.033 79.5991 44.6687 78.8144 44.6687ZM74.8019 41.8278H77.3945V38.7648H74.8019V41.8278ZM63.1445 44.6687H57.711C56.9263 44.6687 56.2905 44.033 56.2905 43.2483V37.3443C56.2905 36.5597 56.9263 35.9239 57.711 35.9239H63.1445C63.9292 35.9239 64.565 36.5597 64.565 37.3443V43.2483C64.565 44.033 63.9292 44.6687 63.1445 44.6687ZM59.1315 41.8278H61.7241V38.7648H59.1315V41.8278ZM78.8144 30.5153H73.3809C72.5962 30.5153 71.9604 29.8795 71.9604 29.0949V23.1903C71.9604 22.4057 72.5962 21.7699 73.3809 21.7699H78.8144C79.5991 21.7699 80.2349 22.4057 80.2349 23.1903V29.0949C80.2349 29.879 79.5991 30.5153 78.8144 30.5153ZM74.8019 27.6744H77.3945V24.6108H74.8019V27.6744ZM63.1445 30.5153H57.711C56.9263 30.5153 56.2905 29.8795 56.2905 29.0949V23.1903C56.2905 22.4057 56.9263 21.7699 57.711 21.7699H63.1445C63.9292 21.7699 64.565 22.4057 64.565 23.1903V29.0949C64.565 29.879 63.9292 30.5153 63.1445 30.5153ZM59.1315 27.6744H61.7241V24.6108H59.1315V27.6744ZM47.4741 30.5153H42.0405C41.2559 30.5153 40.6201 29.8795 40.6201 29.0949V23.1903C40.6201 22.4057 41.2559 21.7699 42.0405 21.7699H47.4741C48.2587 21.7699 48.8945 22.4057 48.8945 23.1903V29.0949C48.8945 29.879 48.2587 30.5153 47.4741 30.5153ZM43.4616 27.6744H46.0542V24.6108H43.4616V27.6744ZM78.8144 16.3608H73.3809C72.5962 16.3608 71.9604 15.725 71.9604 14.9403V9.03636C71.9604 8.2517 72.5962 7.61591 73.3809 7.61591H78.8144C79.5991 7.61591 80.2349 8.2517 80.2349 9.03636V14.9409C80.2349 15.725 79.5991 16.3608 78.8144 16.3608ZM74.8019 13.5199H77.3945V10.4563H74.8019V13.5199ZM63.1445 16.3608H57.711C56.9263 16.3608 56.2905 15.725 56.2905 14.9403V9.03636C56.2905 8.2517 56.9263 7.61591 57.711 7.61591H63.1445C63.9292 7.61591 64.565 8.2517 64.565 9.03636V14.9409C64.565 15.725 63.9292 16.3608 63.1445 16.3608ZM59.1315 13.5199H61.7241V10.4563H59.1315V13.5199ZM47.4741 16.3608H42.0405C41.2559 16.3608 40.6201 15.725 40.6201 14.9403V9.03636C40.6201 8.2517 41.2559 7.61591 42.0405 7.61591H47.4741C48.2587 7.61591 48.8945 8.2517 48.8945 9.03636V14.9409C48.8945 15.725 48.2587 16.3608 47.4741 16.3608ZM43.4616 13.5199H46.0542V10.4563H43.4616V13.5199Z" fill="white"/>
</svg>
