<svg width="100" height="100" viewBox="0 0 100 100" fill="none" xmlns="http://www.w3.org/2000/svg">
<path d="M98.2224 99.9829H1.77763C0.795665 99.9829 0 99.1873 0 98.2053V1.79325C0 0.81129 0.795665 0.015625 1.77763 0.015625H98.2224C99.2043 0.015625 100 0.81129 100 1.79325V98.2053C100 99.1873 99.2043 99.9829 98.2224 99.9829ZM62.2169 96.4277H96.412V83.9139H62.2169V96.4277ZM24.4331 96.4277H58.6617V83.9139H24.4331V96.4277ZM3.55525 96.4277H20.8779V83.9139H3.55525V96.4277ZM79.1207 80.3586H96.4113V67.8456H79.1207V80.3586ZM60.4393 80.3586H75.5655V67.8456H41.3383V80.3593H60.4393V80.3586ZM22.6555 80.3586H37.7824V67.8456H3.55525V80.3593H22.6555V80.3586ZM77.3431 64.2903H96.4113V51.7765H62.2169V64.2896H77.3431V64.2903ZM39.5607 64.2903H58.6617V51.7765H24.4331V64.2896H39.5607V64.2903ZM3.55525 64.2903H20.8779V51.7765H3.55525V64.2903ZM79.1207 48.2213H96.4113V35.7082H79.1207V48.2213ZM60.4393 48.2213H75.5655V35.7082H41.3383V48.222H60.4393V48.2213ZM22.6555 48.2213H37.7824V35.7082H3.55525V48.222H22.6555V48.2213ZM77.3431 32.153H96.4113V19.6392H62.2169V32.153H77.3431ZM39.5607 32.153H58.6617V19.6392H24.4331V32.153H39.5607ZM3.55525 32.153H20.8779V19.6392H3.55525V32.153ZM79.1207 16.0839H96.4113V3.57088H79.1207V16.0839ZM60.4393 16.0839H75.5655V3.57088H41.3383V16.0839H60.4393ZM22.6555 16.0839H37.7824V3.57088H3.55525V16.0839H22.6555Z" fill="white"/>
</svg>
