<svg width="100" height="100" viewBox="0 0 100 100" fill="none" xmlns="http://www.w3.org/2000/svg">
<path d="M92.3646 100H7.63584C6.79033 100 6.10522 99.3149 6.10522 98.4694V91.8124C6.10522 90.9669 6.79033 90.2818 7.63584 90.2818H13.571V1.53062C13.571 0.685103 14.2561 0 15.1016 0H84.8976C85.7431 0 86.4282 0.685103 86.4282 1.53062V90.2818H92.364C93.2095 90.2818 93.8946 90.9669 93.8946 91.8124V98.47C93.8952 99.3149 93.2095 100 92.3646 100ZM9.16646 96.9388H90.834V93.3424H9.16646V96.9388ZM16.6322 90.2818H83.367V3.06123H16.6322V90.2818ZM78.7752 87.1428H53.0608C52.2153 87.1428 51.5302 86.4577 51.5302 85.6122V7.24471C51.5302 6.3992 52.2153 5.71409 53.0608 5.71409H60.2229C60.2302 5.71409 60.2382 5.71409 60.2492 5.71409H65.839C65.85 5.71409 65.8604 5.71409 65.8715 5.71409H70.606C70.6115 5.71409 70.6158 5.71409 70.6188 5.71409H78.7745C79.6201 5.71409 80.3052 6.3992 80.3052 7.24471V74.1283C80.3052 74.1308 80.3052 74.1332 80.3052 74.1357V85.6122C80.3058 86.4577 79.6207 87.1428 78.7752 87.1428ZM54.5914 84.0816H77.2445V74.7057C75.7029 72.8646 70.2368 65.6444 65.8115 51.1617C61.3727 36.6344 59.3076 14.6015 58.8208 8.77594H54.5914V84.0816ZM61.8961 8.77532C62.4208 14.8555 64.5074 36.4176 68.7392 50.2672C71.6296 59.7258 74.9768 65.9512 77.2452 69.4752V8.77532H72.259C72.5315 12.1923 73.2913 20.2188 74.7264 25.2974C74.9566 26.1111 74.4839 26.9566 73.6703 27.1868C72.8535 27.4145 72.0098 26.9431 71.7809 26.1301C70.2184 20.6058 69.4451 12.1396 69.1856 8.77471H67.5251C67.9207 13.1186 69.0851 25.0084 70.6072 32.4478C70.7762 33.2762 70.2423 34.0844 69.4145 34.2539C68.5855 34.4235 67.7774 33.8897 67.6084 33.0613C66.0006 25.205 64.8215 12.9264 64.4504 8.77532H61.8961ZM46.9384 87.1428H21.224C20.3785 87.1428 19.6934 86.4577 19.6934 85.6122V74.1338C19.6934 74.1326 19.6934 74.1314 19.6934 74.1302V7.24471C19.6934 6.3992 20.3785 5.71409 21.224 5.71409H28.7681C28.7755 5.71409 28.7834 5.71409 28.7945 5.71409H33.5228C33.5338 5.71409 33.5443 5.71409 33.5553 5.71409H39.7506C39.761 5.71409 39.769 5.71409 39.7769 5.71409H46.9384C47.7839 5.71409 48.469 6.3992 48.469 7.24471V85.6122C48.469 86.4577 47.7839 87.1428 46.9384 87.1428ZM22.7546 84.0816H45.4077V8.77532H41.179C40.6922 14.6015 38.6271 36.6344 34.1883 51.1611C29.763 65.6438 24.2969 72.864 22.7546 74.7057V84.0816ZM22.7546 8.77532V69.4606C25.0285 65.9212 28.383 59.6836 31.2612 50.2666C35.4924 36.417 37.579 14.8555 38.1043 8.77471H34.9451C34.5741 12.9264 33.3949 25.205 31.7865 33.0613C31.6169 33.8903 30.8038 34.4217 29.9804 34.2539C29.1514 34.0844 28.6175 33.2756 28.7877 32.4472C30.311 25.006 31.4755 13.118 31.8704 8.77471H30.2094C29.9498 12.1396 29.1759 20.6058 27.614 26.1301C27.3851 26.9431 26.5389 27.4182 25.7253 27.1868C24.9116 26.9572 24.4383 26.1111 24.6685 25.2974C26.1055 20.2151 26.864 12.1904 27.1365 8.77532H22.7546Z" fill="white"/>
<rect x="22.6666" y="8.66602" width="22.6667" height="74.6667" fill="#203371"/>
<rect x="54.6666" y="8.66602" width="22.6667" height="74.6667" fill="#203371"/>
</svg>
