<svg width="100" height="100" viewBox="0 0 100 100" fill="none" xmlns="http://www.w3.org/2000/svg">
<path d="M98.5632 94.0462H1.43678C0.643103 94.0462 0 93.4031 0 92.6095V7.38991C0 6.59623 0.643103 5.95312 1.43678 5.95312H88.6046C89.3983 5.95312 90.0414 6.59623 90.0414 7.38991V49.8767H98.5632C99.3569 49.8767 100 50.5198 100 51.3135V92.6095C100 93.4031 99.3569 94.0462 98.5632 94.0462ZM26.1494 91.1727H97.1264V52.7503H67.4132C66.6195 52.7503 65.9764 52.1071 65.9764 51.3135V48.5474H62.4293C61.6356 48.5474 60.9925 47.9043 60.9925 47.1106C60.9925 46.3169 61.6356 45.6738 62.4293 45.6738H65.9764V36.3824C65.9764 35.5888 66.6195 34.9457 67.4132 34.9457C68.2069 34.9457 68.85 35.5888 68.85 36.3824V49.8767H77.2V8.82669H68.85V19.3324C68.85 20.1261 68.2069 20.7692 67.4132 20.7692C66.6195 20.7692 65.9764 20.1261 65.9764 19.3324V14.9261H43.3908C42.5971 14.9261 41.954 14.283 41.954 13.4893V8.82669H36.7086V15.5008C36.7086 16.2945 36.0655 16.9376 35.2718 16.9376C34.4782 16.9376 33.8351 16.2945 33.8351 15.5008V8.82669H32.2799V12.5319C32.2799 13.3255 31.6368 13.9686 30.8431 13.9686H30.3954C30.6523 14.5554 30.7954 15.2037 30.7954 15.8842V19.6198C30.7954 22.2606 28.6471 24.4089 26.0063 24.4089C23.3655 24.4089 21.2172 22.2606 21.2172 19.6198V15.8842C21.2172 15.2031 21.3603 14.5554 21.6172 13.9686H21.1695C20.3759 13.9686 19.7328 13.3255 19.7328 12.5319V8.82669H14.5115V27.8571C14.5115 28.6508 13.8684 29.2939 13.0747 29.2939H11.2069V37.3617H33.8351V30.7307C33.8351 29.937 34.4782 29.2939 35.2718 29.2939C36.0655 29.2939 36.7086 29.937 36.7086 30.7307V45.6732H40.2557C41.0494 45.6732 41.6925 46.3163 41.6925 47.11C41.6925 47.9037 41.0494 48.5468 40.2557 48.5468H36.7086V55.587C36.7086 56.3807 36.0655 57.0238 35.2718 57.0238C34.4782 57.0238 33.8351 56.3807 33.8351 55.587V40.2353H13.3144V81.4974H24.7126C25.5063 81.4974 26.1494 82.1405 26.1494 82.9342V91.1727ZM2.87356 91.1727H23.2759V84.3709H11.8776C11.0839 84.3709 10.4408 83.7278 10.4408 82.9342V57.9342H2.87356V91.1727ZM2.87356 55.0606H10.4408V40.2353H2.87356V55.0606ZM85.0575 49.8767H87.1678V8.82669H85.0575V49.8767ZM80.0736 49.8767H82.1839V8.82669H80.0736V49.8767ZM2.87356 36.8612H8.33333V29.2939H2.87356V36.8612ZM9.77011 26.4204H11.6379V8.82669H2.87356V26.4204H9.77011ZM26.0057 13.9686C24.9494 13.9686 24.0902 14.8284 24.0902 15.8842V19.6198C24.0902 20.6761 24.9494 21.5353 26.0057 21.5353C27.0621 21.5353 27.9213 20.6761 27.9213 19.6198V15.8842C27.9213 14.8284 27.0621 13.9686 26.0057 13.9686ZM44.8276 12.0526H65.9764V8.82669H44.8276V12.0526ZM26.0057 11.0951H29.4063V8.82669H22.6052V11.0951H26.0057ZM57.446 86.9089H45.9259C45.1322 86.9089 44.4891 86.2658 44.4891 85.4721V59.1434C44.4891 58.3497 45.1322 57.7066 45.9259 57.7066H57.446C58.2397 57.7066 58.8828 58.3497 58.8828 59.1434V85.4727C58.8828 86.2658 58.2391 86.9089 57.446 86.9089ZM47.3626 84.0353H56.0092V82.5985H50.9098C50.1161 82.5985 49.473 81.9554 49.473 81.1618V63.4537C49.473 62.66 50.1161 62.0169 50.9098 62.0169H56.0092V60.5801H47.3626V84.0353ZM52.3465 79.725H56.0092V64.8905H52.3465V79.725ZM88.6046 86.0468C87.8109 86.0468 87.1678 85.4037 87.1678 84.61V59.8974C87.1678 59.1037 87.8109 58.4606 88.6046 58.4606C89.3983 58.4606 90.0414 59.1037 90.0414 59.8974V64.3548C90.7885 64.4054 91.3793 65.0278 91.3793 65.7882V78.7192C91.3793 79.4796 90.7891 80.102 90.0414 80.1526V84.61C90.0414 85.4037 89.3983 86.0468 88.6046 86.0468ZM74.7534 84.3227C70.1839 84.3227 66.6046 79.4003 66.6046 73.1158C66.6046 66.8313 70.1839 61.9089 74.7534 61.9089C79.323 61.9089 82.9023 66.8313 82.9023 73.1158C82.9023 79.4003 79.323 84.3227 74.7534 84.3227ZM74.7534 64.7824C71.8937 64.7824 69.4782 68.5985 69.4782 73.1158C69.4782 77.633 71.8942 81.4491 74.7534 81.4491C77.6126 81.4491 80.0287 77.633 80.0287 73.1158C80.0287 68.5985 77.6126 64.7824 74.7534 64.7824Z" fill="white"/>
</svg>
