<svg width="70" height="70" viewBox="0 0 70 70" fill="none" xmlns="http://www.w3.org/2000/svg">
<path d="M66.7188 25.1562C67.0088 25.1562 67.287 25.041 67.4921 24.8359C67.6973 24.6308 67.8125 24.3526 67.8125 24.0625V17.5C67.8125 17.2099 67.6973 16.9317 67.4921 16.7266C67.287 16.5215 67.0088 16.4062 66.7188 16.4062H64.5312V13.125C64.5312 12.8349 64.416 12.5567 64.2109 12.3516C64.0058 12.1465 63.7276 12.0312 63.4375 12.0312H60.6091L51.0858 2.50797C50.8807 2.30284 50.6026 2.18756 50.3125 2.1875H19.6875C19.3974 2.18756 19.1193 2.30284 18.9142 2.50797L9.39094 12.0312H6.5625C6.27242 12.0312 5.99422 12.1465 5.7891 12.3516C5.58398 12.5567 5.46875 12.8349 5.46875 13.125V16.4062H3.28125C2.99117 16.4062 2.71297 16.5215 2.50785 16.7266C2.30273 16.9317 2.1875 17.2099 2.1875 17.5V24.0625C2.1875 24.3526 2.30273 24.6308 2.50785 24.8359C2.71297 25.041 2.99117 25.1562 3.28125 25.1562H7.65625V53.5938H6.5625C6.27242 53.5938 5.99422 53.709 5.7891 53.9141C5.58398 54.1192 5.46875 54.3974 5.46875 54.6875V57.9688H3.28125C2.99117 57.9688 2.71297 58.084 2.50785 58.2891C2.30273 58.4942 2.1875 58.7724 2.1875 59.0625V65.625C2.1875 65.9151 2.30273 66.1933 2.50785 66.3984C2.71297 66.6035 2.99117 66.7188 3.28125 66.7188H66.7188C67.0088 66.7188 67.287 66.6035 67.4921 66.3984C67.6973 66.1933 67.8125 65.9151 67.8125 65.625V59.0625C67.8125 58.7724 67.6973 58.4942 67.4921 58.2891C67.287 58.084 67.0088 57.9688 66.7188 57.9688H64.5312V54.6875C64.5312 54.3974 64.416 54.1192 64.2109 53.9141C64.0058 53.709 63.7276 53.5938 63.4375 53.5938H62.3438V25.1562H66.7188ZM65.625 22.9688H45.7034C46.4048 21.6058 46.8367 20.1203 46.9755 18.5938H65.625V22.9688ZM25.1562 17.5C25.1562 15.5531 25.7336 13.6499 26.8152 12.0311C27.8969 10.4123 29.4342 9.15061 31.233 8.40556C33.0317 7.66051 35.0109 7.46557 36.9204 7.8454C38.8299 8.22522 40.5839 9.16274 41.9606 10.5394C43.3373 11.9161 44.2748 13.6701 44.6546 15.5796C45.0344 17.4891 44.8395 19.4683 44.0944 21.267C43.3494 23.0658 42.0877 24.6031 40.4689 25.6848C38.8501 26.7664 36.9469 27.3438 35 27.3438C32.3902 27.3409 29.888 26.3028 28.0426 24.4574C26.1972 22.612 25.1591 20.1098 25.1562 17.5ZM62.3438 16.4062H46.9755C46.9073 15.6659 46.7699 14.9335 46.5653 14.2188H62.3438V16.4062ZM20.1403 4.375H49.8597L57.5159 12.0312H45.7034C44.6985 10.0563 43.1668 8.39788 41.2777 7.23954C39.3886 6.08121 37.2159 5.46811 35 5.46811C32.7841 5.46811 30.6114 6.08121 28.7223 7.23954C26.8332 8.39788 25.3015 10.0563 24.2966 12.0312H12.4841L20.1403 4.375ZM7.65625 14.2188H23.4347C23.2301 14.9335 23.0927 15.6659 23.0245 16.4062H7.65625V14.2188ZM4.375 18.5938H23.0245C23.1633 20.1203 23.5952 21.6058 24.2966 22.9688H4.375V18.5938ZM4.375 60.1562H19.6875V57.9688H7.65625V55.7812H21.6344L19.8844 64.5312H4.375V60.1562ZM22.1156 64.5312L23.8656 55.7812H46.1355L47.8855 64.5312H22.1156ZM42.6562 53.5938H36.0938V38.2812H42.6562V53.5938ZM33.9062 53.5938H27.3438V38.2812H33.9062V53.5938ZM50.3125 57.9688V60.1562H65.625V64.5312H50.1156L48.3656 55.7812H62.3438V57.9688H50.3125ZM60.1562 53.5938H44.8438V37.1875C44.8438 36.8974 44.7285 36.6192 44.5234 36.4141C44.3183 36.209 44.0401 36.0938 43.75 36.0938H26.25C25.9599 36.0938 25.6817 36.209 25.4766 36.4141C25.2715 36.6192 25.1562 36.8974 25.1562 37.1875V53.5938H9.84375V25.1562H25.7261C26.8535 26.5244 28.2697 27.6261 29.873 28.3825C31.4764 29.1388 33.2272 29.531 35 29.531C36.7728 29.531 38.5236 29.1388 40.127 28.3825C41.7303 27.6261 43.1465 26.5244 44.2739 25.1562H60.1562V53.5938Z" fill="#203371"/>
<path d="M43.75 56.875H26.25V59.0625H43.75V56.875Z" fill="#203371"/>
<path d="M44.8438 61.25H25.1562V63.4375H44.8438V61.25Z" fill="#203371"/>
<path d="M48.125 44.8438H56.875C57.1651 44.8438 57.4433 44.7285 57.6484 44.5234C57.8535 44.3183 57.9688 44.0401 57.9688 43.75V37.1875C57.9688 36.8974 57.8535 36.6192 57.6484 36.4141C57.4433 36.209 57.1651 36.0938 56.875 36.0938H48.125C47.8349 36.0938 47.5567 36.209 47.3516 36.4141C47.1465 36.6192 47.0312 36.8974 47.0312 37.1875V43.75C47.0312 44.0401 47.1465 44.3183 47.3516 44.5234C47.5567 44.7285 47.8349 44.8438 48.125 44.8438ZM49.2188 38.2812H55.7812V42.6562H49.2188V38.2812Z" fill="#203371"/>
<path d="M21.875 36.0938H13.125C12.8349 36.0938 12.5567 36.209 12.3516 36.4141C12.1465 36.6192 12.0312 36.8974 12.0312 37.1875V43.75C12.0312 44.0401 12.1465 44.3183 12.3516 44.5234C12.5567 44.7285 12.8349 44.8438 13.125 44.8438H21.875C22.1651 44.8438 22.4433 44.7285 22.6484 44.5234C22.8535 44.3183 22.9688 44.0401 22.9688 43.75V37.1875C22.9688 36.8974 22.8535 36.6192 22.6484 36.4141C22.4433 36.209 22.1651 36.0938 21.875 36.0938ZM20.7812 42.6562H14.2188V38.2812H20.7812V42.6562Z" fill="#203371"/>
<path d="M31.7188 20.7812V24.0625C31.7188 24.3526 31.834 24.6308 32.0391 24.8359C32.2442 25.041 32.5224 25.1562 32.8125 25.1562H37.1875C37.4776 25.1562 37.7558 25.041 37.9609 24.8359C38.166 24.6308 38.2812 24.3526 38.2812 24.0625V20.7812H41.5625C41.8526 20.7812 42.1308 20.666 42.3359 20.4609C42.541 20.2558 42.6562 19.9776 42.6562 19.6875V15.3125C42.6562 15.0224 42.541 14.7442 42.3359 14.5391C42.1308 14.334 41.8526 14.2188 41.5625 14.2188H38.2812V10.9375C38.2812 10.6474 38.166 10.3692 37.9609 10.1641C37.7558 9.95898 37.4776 9.84375 37.1875 9.84375H32.8125C32.5224 9.84375 32.2442 9.95898 32.0391 10.1641C31.834 10.3692 31.7188 10.6474 31.7188 10.9375V14.2188H28.4375C28.1474 14.2188 27.8692 14.334 27.6641 14.5391C27.459 14.7442 27.3438 15.0224 27.3438 15.3125V19.6875C27.3438 19.9776 27.459 20.2558 27.6641 20.4609C27.8692 20.666 28.1474 20.7812 28.4375 20.7812H31.7188ZM29.5312 16.4062H32.8125C33.1026 16.4062 33.3808 16.291 33.5859 16.0859C33.791 15.8808 33.9062 15.6026 33.9062 15.3125V12.0312H36.0938V15.3125C36.0938 15.6026 36.209 15.8808 36.4141 16.0859C36.6192 16.291 36.8974 16.4062 37.1875 16.4062H40.4688V18.5938H37.1875C36.8974 18.5938 36.6192 18.709 36.4141 18.9141C36.209 19.1192 36.0938 19.3974 36.0938 19.6875V22.9688H33.9062V19.6875C33.9062 19.3974 33.791 19.1192 33.5859 18.9141C33.3808 18.709 33.1026 18.5938 32.8125 18.5938H29.5312V16.4062Z" fill="#203371"/>
</svg>
