<svg width="70" height="70" viewBox="0 0 70 70" fill="none" xmlns="http://www.w3.org/2000/svg">
<path d="M64.5312 37.1878H60.1562V33.9065C60.1585 32.5619 59.8059 31.2404 59.1342 30.0756C58.4625 28.9107 57.4953 27.9437 56.3304 27.2721C55.1654 26.6006 53.8439 26.2482 52.4992 26.2507C51.1546 26.2531 49.8344 26.6103 48.6719 27.2861C47.5099 26.6083 46.1889 26.2509 44.8438 26.2503C44.4775 26.2533 44.112 26.2826 43.75 26.3378V20.7815C43.75 20.4914 43.6348 20.2132 43.4296 20.0081C43.2245 19.803 42.9463 19.6878 42.6562 19.6878H39.375V14.219C39.3793 12.2601 38.9042 10.33 37.9912 8.59689C37.0781 6.86381 35.7549 5.38048 34.1368 4.27633C32.5188 3.17218 30.6551 2.48074 28.7085 2.26235C26.7618 2.04395 24.7912 2.30524 22.9688 3.0234C21.1463 2.30524 19.1757 2.04395 17.229 2.26235C15.2824 2.48074 13.4187 3.17218 11.8007 4.27633C10.1826 5.38048 8.85936 6.86381 7.94631 8.59689C7.03326 10.33 6.55817 12.2601 6.5625 14.219V19.6878H3.28125C2.99117 19.6878 2.71297 19.803 2.50785 20.0081C2.30273 20.2132 2.1875 20.4914 2.1875 20.7815V66.719C2.1875 67.0091 2.30273 67.2873 2.50785 67.4924C2.71297 67.6975 2.99117 67.8128 3.28125 67.8128H64.5312C64.8213 67.8128 65.0995 67.6975 65.3046 67.4924C65.5098 67.2873 65.625 67.0091 65.625 66.719V38.2815C65.625 37.9914 65.5098 37.7132 65.3046 37.5081C65.0995 37.303 64.8213 37.1878 64.5312 37.1878ZM57.9688 33.9065V37.1878H52.5V33.9065C52.4993 32.0263 51.8031 30.2128 50.5455 28.8151C51.168 28.5694 51.8307 28.4415 52.5 28.4378C53.9499 28.4395 55.3399 29.0162 56.3651 30.0415C57.3903 31.0667 57.967 32.4567 57.9688 33.9065ZM48.6719 30.0106C49.1911 30.5179 49.6037 31.1239 49.8855 31.7929C50.1672 32.462 50.3124 33.1806 50.3125 33.9065V37.1878H47.0312V33.9065C47.0314 33.1806 47.1765 32.462 47.4583 31.7929C47.74 31.1239 48.1526 30.5179 48.6719 30.0106ZM44.8438 28.4378C45.513 28.4415 46.1757 28.5694 46.7983 28.8151C45.5406 30.2128 44.8444 32.0263 44.8438 33.9065V37.1878H43.75V28.5472C44.11 28.4741 44.4764 28.4374 44.8438 28.4378ZM39.375 37.1878V33.9065C39.3775 33.062 39.5764 32.2296 39.9561 31.4752C40.3357 30.7208 40.8857 30.0651 41.5625 29.56V37.1878H39.375ZM37.8284 39.3753L37.1875 40.0162L36.5466 39.3753H37.8284ZM27.3438 4.37528C29.9536 4.37817 32.4557 5.41621 34.3011 7.26164C36.1466 9.10708 37.1846 11.6092 37.1875 14.219V19.6878H30.625V14.219C30.6233 12.3289 30.1755 10.4658 29.318 8.7813C28.4604 7.09683 27.2174 5.63857 25.69 4.52512C26.236 4.42857 26.7893 4.37844 27.3438 4.37528ZM22.9688 5.41434C24.609 6.22812 25.9897 7.48323 26.9558 9.03863C27.9219 10.594 28.435 12.388 28.4375 14.219V19.6878H17.5V14.219C17.5025 12.388 18.0156 10.594 18.9817 9.03863C19.9478 7.48323 21.3285 6.22812 22.9688 5.41434ZM8.75 14.219C8.74212 12.7843 9.04968 11.3653 9.65093 10.0626C10.2522 8.7599 11.1324 7.60526 12.2293 6.68041C13.3262 5.75557 14.613 5.08313 15.9986 4.71068C17.3842 4.33823 18.8347 4.27489 20.2475 4.52512C18.7201 5.63857 17.4771 7.09683 16.6195 8.7813C15.762 10.4658 15.3142 12.3289 15.3125 14.219V19.6878H8.75V14.219ZM9.39094 21.8753L7.65625 23.61L5.92156 21.8753H9.39094ZM4.375 23.4218L6.88297 25.9298C7.08808 26.1349 7.36623 26.25 7.65625 26.25C7.94627 26.25 8.22442 26.1349 8.42953 25.9298L10.9375 23.4218V65.6253H4.375V23.4218ZM13.125 21.8753H15.3125V27.344H17.5V21.8753H37.1875V27.344H39.375V21.8753H41.5625V26.9995C40.2551 27.6197 39.1502 28.5977 38.3758 29.8201C37.6015 31.0426 37.1895 32.4595 37.1875 33.9065V37.1878H33.9062C33.6162 37.1878 33.338 37.303 33.1329 37.5081C32.9277 37.7132 32.8125 37.9914 32.8125 38.2815V65.6253H13.125V21.8753ZM35 40.9218L36.4142 42.3361C36.6193 42.5411 36.8975 42.6563 37.1875 42.6563C37.4775 42.6563 37.7557 42.5411 37.9608 42.3361L39.375 40.9218V65.6253H35V40.9218ZM63.4375 65.6253H41.5625V39.3753H44.8438V42.6565H47.0312V39.3753H57.9688V42.6565H60.1562V39.3753H63.4375V65.6253Z" fill="#203371"/>
</svg>
